<?xml version="1.0" encoding="UTF-8" standalone="no"?>
<!DOCTYPE svg PUBLIC "-//W3C//DTD SVG 1.1//EN" "http://www.w3.org/Graphics/SVG/1.1/DTD/svg11.dtd">
<svg xmlns="http://www.w3.org/2000/svg" version="1.1" viewBox="0.00 0.00 500.00 500.00">
<g stroke-width="2.00" fill="none" stroke-linecap="butt">
<path stroke="#70b7e1" vector-effect="non-scaling-stroke" d="
  M 439.03 103.22
  Q 438.23 101.09 437.22 98.26
  Q 432.76 85.67 422.72 76.94
  Q 422.35 76.62 422.40 76.13
  L 422.43 75.80"
/>
<path stroke="#8c85a7" vector-effect="non-scaling-stroke" d="
  M 430.21 144.37
  Q 420.67 140.45 410.42 140.79"
/>
<path stroke="#1b78a8" vector-effect="non-scaling-stroke" d="
  M 410.03 124.19
  C 417.43 116.05 425.59 99.69 416.28 89.80
  A 1.75 1.68 -72.4 0 1 415.86 88.95
  Q 414.60 81.72 407.54 79.39
  C 398.41 76.37 388.82 75.63 380.16 80.55
  Q 379.71 80.80 379.28 80.52
  C 375.44 78.07 370.42 76.42 366.49 79.22
  C 362.82 81.84 362.36 86.39 365.29 89.84
  Q 365.62 90.23 365.18 90.49
  C 357.70 95.03 361.94 105.02 370.54 104.57"
/>
<path stroke="#9ad5f0" vector-effect="non-scaling-stroke" d="
  M 391.80 137.81
  L 391.70 141.62
  Q 391.69 142.13 391.24 142.35
  L 390.27 142.81"
/>
<path stroke="#8c85a7" vector-effect="non-scaling-stroke" d="
  M 390.27 142.81
  Q 375.33 144.14 370.12 158.00"
/>
<path stroke="#70b7e1" vector-effect="non-scaling-stroke" d="
  M 370.12 158.00
  Q 369.56 157.91 369.26 157.74
  C 351.06 147.34 341.52 128.05 344.58 107.14
  Q 344.60 106.99 344.55 106.88
  Q 344.45 106.64 344.27 106.78"
/>
<path stroke="#c792a8" vector-effect="non-scaling-stroke" d="
  M 370.12 158.00
  Q 370.22 158.46 370.78 158.71
  Q 393.69 169.27 415.64 157.37
  C 417.37 156.43 419.16 155.03 420.97 153.88"
/>
<path stroke="#bdd6f1" vector-effect="non-scaling-stroke" d="
  M 383.45 204.20
  Q 382.96 204.03 382.56 204.23"
/>
<path stroke="#9cbee2" vector-effect="non-scaling-stroke" d="
  M 382.56 204.23
  Q 382.87 203.30 382.42 203.11
  C 380.23 202.22 376.12 199.74 373.94 199.94"
/>
<path stroke="#bdd6f1" vector-effect="non-scaling-stroke" d="
  M 373.94 199.94
  Q 373.75 199.38 373.87 199.05"
/>
<path stroke="#bdd6f1" vector-effect="non-scaling-stroke" d="
  M 348.92 188.60
  L 347.44 188.16"
/>
<path stroke="#9cbee2" vector-effect="non-scaling-stroke" d="
  M 347.44 188.16
  Q 344.05 186.26 335.25 182.06
  Q 321.83 175.67 306.86 165.20"
/>
<path stroke="#70b7e1" vector-effect="non-scaling-stroke" d="
  M 306.86 165.20
  Q 305.77 159.68 306.20 152.27
  A 1.26 1.26 0.0 0 1 306.97 151.19
  C 318.49 146.49 329.80 137.51 332.72 124.58
  C 333.56 120.86 333.03 116.61 328.99 115.41
  C 323.39 113.75 317.35 118.87 314.28 123.29
  C 308.27 131.94 306.51 140.26 305.43 150.72
  A 0.85 0.83 -7.2 0 1 304.87 151.43
  Q 301.03 152.80 297.15 154.06
  Q 297.10 154.07 297.08 154.03
  Q 297.04 153.91 296.99 153.79"
/>
<path stroke="#f1afb6" vector-effect="non-scaling-stroke" d="
  M 391.53 142.75
  Q 390.68 142.40 390.27 142.81"
/>
<path stroke="#add0f1" vector-effect="non-scaling-stroke" d="
  M 296.97 156.50
  Q 296.92 167.92 297.01 178.93
  C 297.10 189.49 304.94 188.11 312.73 188.28
  Q 313.27 188.30 313.49 188.79
  C 322.44 209.33 333.95 228.67 345.37 247.90
  A 0.31 0.30 58.9 0 0 345.79 248.01
  L 346.01 247.88
  Q 346.06 247.84 346.03 247.79
  C 334.56 228.90 323.41 209.42 314.40 189.21
  A 0.60 0.60 0.0 0 1 314.94 188.36
  L 347.44 188.16"
/>
<path stroke="#add0f1" vector-effect="non-scaling-stroke" d="
  M 373.94 199.94
  C 373.69 202.10 373.29 205.66 375.03 207.17
  C 377.65 209.46 380.83 205.84 382.56 204.23"
/>
<path stroke="#add0f1" vector-effect="non-scaling-stroke" d="
  M 419.24 231.54
  Q 419.50 231.93 418.98 232.13
  C 392.75 242.27 402.55 280.18 430.00 275.80"
/>
<path stroke="#bdd6f1" vector-effect="non-scaling-stroke" d="
  M 430.00 275.80
  Q 430.39 275.99 430.46 276.22"
/>
<path stroke="#82c9f0" vector-effect="non-scaling-stroke" d="
  M 423.14 314.44
  Q 422.91 314.93 422.32 314.43
  C 409.96 303.93 398.38 305.09 382.83 305.23"
/>
<path stroke="#77addd" vector-effect="non-scaling-stroke" d="
  M 382.83 305.23
  L 393.60 251.28
  A 1.95 1.95 0.0 0 0 391.69 248.95
  L 292.20 248.95"
/>
<path stroke="#e7f4ff" vector-effect="non-scaling-stroke" d="
  M 292.20 248.95
  Q 295.14 238.81 297.40 235.66
  Q 299.77 232.37 308.77 225.78
  Q 309.53 225.22 309.72 224.57
  A 0.48 0.47 -85.4 0 0 309.21 223.97
  L 308.22 224.08
  A 0.33 0.33 0.0 0 1 307.96 223.50
  Q 308.86 222.73 309.86 222.12
  Q 310.74 221.58 309.91 220.75
  Q 309.51 220.34 308.98 220.52
  L 306.99 221.19
  Q 306.30 221.42 306.75 220.85
  Q 307.40 220.03 308.37 219.57
  Q 309.69 218.95 308.85 218.15
  A 1.10 1.10 0.0 0 0 307.69 217.93
  L 305.24 218.90
  Q 304.30 219.26 305.05 218.60
  L 306.62 217.20
  Q 307.09 216.78 306.58 216.42
  Q 305.63 215.75 304.47 216.29
  C 302.04 217.42 297.01 221.50 292.78 222.45
  A 0.40 0.40 0.0 0 1 292.35 221.87
  Q 293.39 220.01 294.12 218.03
  Q 295.20 215.15 292.78 217.05
  C 289.30 219.80 287.74 224.87 287.38 229.43
  Q 287.34 229.93 287.03 230.32
  L 265.74 257.41"
/>
<path stroke="#e7a9bb" vector-effect="non-scaling-stroke" d="
  M 265.74 257.41
  Q 261.81 247.08 256.71 237.06
  C 253.65 231.06 248.89 222.05 243.50 221.32
  Q 234.92 220.17 225.29 218.89"
/>
<path stroke="#e6cada" vector-effect="non-scaling-stroke" d="
  M 225.29 218.89
  Q 223.88 216.90 219.97 215.24"
/>
<path stroke="#e7f4ff" vector-effect="non-scaling-stroke" d="
  M 219.97 215.24
  Q 220.27 214.83 219.71 214.37
  C 218.86 213.66 218.62 212.43 219.18 211.55"
/>
<path stroke="#61b1e1" vector-effect="non-scaling-stroke" d="
  M 306.86 165.20
  C 307.61 172.70 310.66 180.49 313.70 187.36
  Q 313.80 187.59 313.57 187.69
  L 313.33 187.80
  A 0.11 0.11 0.0 0 1 313.19 187.74
  C 310.24 180.90 307.52 173.33 306.50 165.93
  Q 306.21 163.89 305.66 161.85"
/>
<path stroke="#70b7e1" vector-effect="non-scaling-stroke" d="
  M 305.66 161.85
  L 305.43 152.65
  A 0.55 0.55 0.0 0 0 304.69 152.14
  Q 301.40 153.36 297.97 154.24
  Q 296.76 154.55 296.81 154.08"
/>
<path stroke="#e7a9bb" vector-effect="non-scaling-stroke" d="
  M 252.56 274.01
  L 251.20 272.38"
/>
<path stroke="#f16572" vector-effect="non-scaling-stroke" d="
  M 251.20 272.38
  C 251.83 272.02 252.38 271.48 252.57 270.74
  Q 257.98 249.26 245.24 232.01
  Q 243.38 229.49 244.18 232.52
  C 246.90 242.85 249.14 255.76 247.32 266.82"
/>
<path stroke="#e7a9bb" vector-effect="non-scaling-stroke" d="
  M 247.32 266.82
  Q 245.72 270.92 243.41 274.58
  Q 242.30 276.35 242.13 278.24
  Q 240.95 291.48 239.70 305.18"
/>
<path stroke="#9a8aab" vector-effect="non-scaling-stroke" d="
  M 239.70 305.18
  L 183.28 305.15"
/>
<path stroke="#ffb5bb" vector-effect="non-scaling-stroke" d="
  M 183.28 305.15
  L 182.04 304.38"
/>
<path stroke="#8f6e98" vector-effect="non-scaling-stroke" d="
  M 182.04 304.38
  Q 182.96 290.93 184.00 277.70
  C 184.34 273.37 183.00 270.13 181.66 266.21
  Q 181.42 265.53 181.06 266.16
  Q 173.18 279.72 162.74 291.80"
/>
<path stroke="#ffb5bb" vector-effect="non-scaling-stroke" d="
  M 162.74 291.80
  Q 155.44 286.88 145.45 286.30"
/>
<path stroke="#886386" vector-effect="non-scaling-stroke" d="
  M 145.45 286.30
  L 151.81 270.62"
/>
<path stroke="#ff8b96" vector-effect="non-scaling-stroke" d="
  M 225.29 218.89
  Q 226.02 222.99 227.94 226.82
  C 230.11 231.15 226.25 233.40 222.37 233.05
  Q 220.38 232.87 218.43 232.25
  Q 217.95 232.09 217.53 232.39
  C 216.67 233.00 215.80 233.94 214.96 234.35
  Q 207.55 237.98 203.91 230.32
  Q 201.16 224.52 198.29 220.25"
/>
<path stroke="#8f8eb8" vector-effect="non-scaling-stroke" d="
  M 198.29 220.25
  Q 199.17 219.43 199.51 218.47"
/>
<path stroke="#9cbee2" vector-effect="non-scaling-stroke" d="
  M 305.66 161.85
  L 305.42 162.50
  Q 305.19 163.10 304.68 162.70
  L 296.97 156.50"
/>
<path stroke="#bdd6f1" vector-effect="non-scaling-stroke" d="
  M 296.97 156.50
  Q 297.36 155.37 296.73 154.76
  Q 296.44 154.48 296.10 154.71
  Q 295.95 154.80 295.84 154.97
  Q 295.57 155.39 295.08 155.50
  Q 281.21 158.54 272.00 159.46
  Q 255.67 161.09 229.70 162.01"
/>
<path stroke="#5685a9" vector-effect="non-scaling-stroke" d="
  M 229.70 162.01
  L 229.17 160.96"
/>
<path stroke="#2a8ecd" vector-effect="non-scaling-stroke" d="
  M 382.83 305.23
  L 378.07 329.13
  Q 377.97 329.65 377.48 329.83
  Q 376.50 330.18 375.27 329.78"
/>
<path stroke="#1867a8" vector-effect="non-scaling-stroke" d="
  M 375.27 329.78
  Q 376.82 330.14 376.44 328.77
  A 1.18 1.17 11.9 0 0 376.04 328.16
  L 342.87 301.02"
/>
<path stroke="#57a4d9" vector-effect="non-scaling-stroke" d="
  M 342.87 301.02
  C 354.19 290.40 336.56 276.36 328.67 289.32"
/>
<path stroke="#1867a8" vector-effect="non-scaling-stroke" d="
  M 328.67 289.32
  L 285.50 254.25
  A 0.77 0.76 -65.6 0 0 284.26 254.72
  L 271.53 329.77"
/>
<path stroke="#2a8ecd" vector-effect="non-scaling-stroke" d="
  M 271.53 329.77
  L 262.13 329.77"
/>
<path stroke="#105c95" vector-effect="non-scaling-stroke" d="
  M 262.13 329.77
  L 265.29 314.03"
/>
<path stroke="#2a8ecd" vector-effect="non-scaling-stroke" d="
  M 265.29 314.03
  L 266.91 305.21"
/>
<path stroke="#77addd" vector-effect="non-scaling-stroke" d="
  M 266.91 305.21
  L 271.94 279.91"
/>
<path stroke="#add0f1" vector-effect="non-scaling-stroke" d="
  M 423.43 237.89
  C 402.56 242.30 407.77 272.85 430.39 269.01"
/>
<path stroke="#ffd5da" vector-effect="non-scaling-stroke" d="
  M 219.97 215.24
  Q 220.37 222.99 218.46 230.29
  A 0.95 0.95 0.0 0 1 216.86 230.72
  L 202.34 215.85"
/>
<path stroke="#e7f4ff" vector-effect="non-scaling-stroke" d="
  M 202.34 215.85
  Q 201.99 215.37 202.06 213.67"
/>
<path stroke="#8fb8dd" vector-effect="non-scaling-stroke" d="
  M 193.84 201.27
  C 198.66 194.57 197.35 188.53 192.84 182.62"
/>
<path stroke="#9cbee2" vector-effect="non-scaling-stroke" d="
  M 430.00 275.80
  Q 430.98 274.73 430.98 274.25
  Q 431.00 270.83 430.39 269.01"
/>
<path stroke="#bdd6f1" vector-effect="non-scaling-stroke" d="
  M 430.39 269.01
  Q 440.90 265.03 441.62 255.10
  C 442.41 244.26 434.19 236.91 423.43 237.89"
/>
<path stroke="#9cbee2" vector-effect="non-scaling-stroke" d="
  M 423.43 237.89
  L 420.54 232.14"
/>
<path stroke="#6897b7" vector-effect="non-scaling-stroke" d="
  M 229.70 162.01
  C 230.92 165.56 230.74 168.95 232.28 172.38
  C 237.19 183.31 236.60 198.02 234.88 209.64
  Q 234.81 210.15 234.29 210.20
  L 219.18 211.55"
/>
<path stroke="#80a3b7" vector-effect="non-scaling-stroke" d="
  M 219.18 211.55
  Q 218.67 211.55 218.39 211.11
  A 0.63 0.63 0.0 0 1 218.68 210.19
  C 232.08 204.55 231.95 187.46 228.18 175.91
  C 226.66 171.27 223.84 166.02 219.08 164.02
  A 0.56 0.56 0.0 0 0 218.37 164.26
  C 213.55 172.94 203.52 177.24 194.24 179.23
  Q 193.74 179.33 193.61 179.83
  L 192.84 182.62"
/>
<path stroke="#105c95" vector-effect="non-scaling-stroke" d="
  M 192.84 182.62
  L 186.57 179.53"
/>
<path stroke="#8fb8dd" vector-effect="non-scaling-stroke" d="
  M 292.20 248.95
  L 280.76 248.96
  A 3.22 3.20 5.5 0 0 277.62 251.54
  L 271.94 279.91"
/>
<path stroke="#e7f4ff" vector-effect="non-scaling-stroke" d="
  M 271.94 279.91
  Q 258.57 285.28 252.56 274.01"
/>
<path stroke="#ffb5bb" vector-effect="non-scaling-stroke" d="
  M 252.56 274.01
  L 265.74 257.41"
/>
<path stroke="#1b78a8" vector-effect="non-scaling-stroke" d="
  M 207.56 327.28
  Q 213.32 327.65 218.00 326.53
  C 220.78 325.86 221.51 324.37 220.15 321.80
  Q 218.48 318.66 216.48 317.80"
/>
<path stroke="#1b78a8" vector-effect="non-scaling-stroke" d="
  M 265.29 314.03
  Q 248.55 314.03 232.00 313.84
  C 227.53 313.79 226.98 318.41 231.54 319.88
  Q 246.83 324.83 262.13 329.77"
/>
<path stroke="#50b9e4" vector-effect="non-scaling-stroke" d="
  M 405.15 346.10
  L 156.69 346.07"
/>
<path stroke="#82c9f0" vector-effect="non-scaling-stroke" d="
  M 147.32 344.06
  C 142.53 340.71 139.11 338.82 134.76 333.02"
/>
<path stroke="#9ad5f0" vector-effect="non-scaling-stroke" d="
  M 183.28 305.15
  L 191.52 310.50
  A 1.59 1.58 -29.7 0 0 192.44 310.75
  C 197.31 310.51 205.59 309.25 209.88 311.45
  Q 214.06 313.59 216.48 317.80"
/>
<path stroke="#80a3b7" vector-effect="non-scaling-stroke" d="
  M 216.48 317.80
  L 216.52 318.71
  Q 216.54 319.25 216.00 319.27
  C 213.82 319.36 209.74 316.15 207.91 314.85
  Q 207.68 314.68 207.56 314.95
  L 207.44 315.25
  Q 207.42 315.31 207.47 315.35
  C 209.48 316.78 213.80 319.24 214.80 321.42
  A 0.87 0.87 0.0 0 1 213.75 322.61
  Q 209.39 321.25 205.63 318.61
  Q 205.57 318.57 205.53 318.63
  L 205.39 318.85
  Q 205.32 318.96 205.43 319.04
  L 211.63 323.78
  A 0.74 0.74 0.0 0 1 211.26 325.10
  C 208.96 325.34 205.65 323.41 203.66 322.26
  A 0.29 0.28 -57.8 0 0 203.29 322.35
  L 203.15 322.55
  Q 203.12 322.60 203.16 322.63
  Q 204.62 323.80 206.23 324.76
  Q 207.90 325.75 207.56 327.28"
/>
<path stroke="#9ad5f0" vector-effect="non-scaling-stroke" d="
  M 207.56 327.28
  Q 201.10 325.04 194.35 324.20
  C 191.51 323.85 187.26 321.19 184.40 320.13
  C 172.91 315.87 161.06 311.21 150.52 304.90"
/>
<path stroke="#82c9f0" vector-effect="non-scaling-stroke" d="
  M 266.91 305.21
  L 239.70 305.18"
/>
<path stroke="#88aecb" vector-effect="non-scaling-stroke" d="
  M 145.45 286.30
  Q 140.90 297.84 150.52 304.90"
/>
<path stroke="#2383bb" vector-effect="non-scaling-stroke" d="
  M 150.52 304.90
  L 136.16 305.07"
/>
<path stroke="#8f6e98" vector-effect="non-scaling-stroke" d="
  M 198.29 220.25
  Q 186.28 224.20 174.42 228.58
  Q 171.36 229.71 169.86 232.36
  C 163.08 244.30 157.43 257.65 151.81 270.62"
/>
<path stroke="#1867a8" vector-effect="non-scaling-stroke" d="
  M 151.81 270.62
  L 145.99 225.40"
/>
<path stroke="#8fb8dd" vector-effect="non-scaling-stroke" d="
  M 182.04 304.38
  L 162.74 291.80"
/>
<path stroke="#d8a4b6" vector-effect="non-scaling-stroke" d="
  M 251.20 272.38
  L 247.32 266.82"
/>
<path stroke="#e6cada" vector-effect="non-scaling-stroke" d="
  M 202.34 215.85
  L 199.51 218.47"
/>
<path stroke="#77addd" vector-effect="non-scaling-stroke" d="
  M 199.51 218.47
  L 145.99 225.40"
/>
<path stroke="#70a2cb" vector-effect="non-scaling-stroke" d="
  M 145.99 225.40
  C 138.23 226.05 131.90 227.79 129.38 235.22
  Q 128.27 238.49 129.14 245.84
  Q 132.63 275.35 136.16 305.07"
/>
<path stroke="#82c9f0" vector-effect="non-scaling-stroke" d="
  M 136.16 305.07
  Q 134.83 305.21 131.25 305.24
  Q 124.23 305.29 121.53 312.62"
/>
<path stroke="#d8a4b6" vector-effect="non-scaling-stroke" d="
  M 121.53 312.62
  Q 121.17 310.51 121.80 308.25
  C 123.85 300.88 127.00 288.70 124.30 281.50
  C 121.47 273.96 113.47 278.49 110.30 283.09
  C 106.27 288.93 106.87 295.15 107.41 303.52
  C 107.63 306.87 109.08 313.40 107.58 316.39
  A 2.12 2.12 0.0 0 1 104.74 317.34
  C 99.64 314.80 96.69 309.68 93.39 305.37
  C 91.87 303.38 89.56 301.86 86.99 302.92
  C 76.87 307.09 95.30 332.66 98.60 337.90
  C 100.47 340.86 104.60 347.56 103.44 351.10
  A 1.19 1.19 0.0 0 1 101.62 351.70
  L 88.54 342.46"
/>
<path stroke="#e7a9bb" vector-effect="non-scaling-stroke" d="
  M 88.54 342.46
  Q 87.88 340.98 86.99 338.72
  Q 85.79 335.64 82.75 334.97
  A 1.43 1.40 -52.1 0 0 81.79 335.10
  Q 79.67 336.22 78.44 337.96
  Q 76.21 341.14 72.60 346.94"
/>
<path stroke="#bdd6f1" vector-effect="non-scaling-stroke" d="
  M 58.52 313.44
  Q 58.23 312.93 58.53 312.53
  Q 58.71 312.30 58.96 312.46"
/>
<path stroke="#bdd6f1" vector-effect="non-scaling-stroke" d="
  M 225.44 90.01
  Q 225.32 90.50 225.53 90.89"
/>
<path stroke="#add0f1" vector-effect="non-scaling-stroke" d="
  M 225.53 90.89
  Q 216.79 104.01 223.27 116.54
  C 230.67 130.85 249.35 133.40 260.63 122.33"
/>
<path stroke="#bdd6f1" vector-effect="non-scaling-stroke" d="
  M 260.63 122.33
  Q 261.40 122.29 261.55 122.04"
/>
<path stroke="#bdd6f1" vector-effect="non-scaling-stroke" d="
  M 294.49 154.32
  Q 286.73 156.70 278.76 157.71
  Q 263.67 159.61 248.49 160.37
  Q 238.94 160.84 229.17 160.96"
/>
<path stroke="#6897b7" vector-effect="non-scaling-stroke" d="
  M 229.17 160.96
  Q 225.98 155.42 218.93 153.76"
/>
<path stroke="#82c9f0" vector-effect="non-scaling-stroke" d="
  M 218.93 153.76
  Q 213.50 151.10 207.75 151.61
  Q 204.26 151.92 200.13 152.88"
/>
<path stroke="#6897b7" vector-effect="non-scaling-stroke" d="
  M 200.13 152.88
  Q 191.72 152.71 185.28 157.34
  Q 179.92 161.18 176.41 166.09"
/>
<path stroke="#add0f1" vector-effect="non-scaling-stroke" d="
  M 176.41 166.09
  Q 168.92 167.85 162.60 171.11
  A 0.59 0.59 0.0 0 1 161.74 170.59
  Q 161.76 156.94 161.73 143.13
  C 161.71 136.07 158.04 133.74 151.15 133.73
  Q 116.44 133.69 81.73 133.71
  C 77.61 133.71 76.84 138.40 75.56 141.18
  Q 74.64 143.15 74.31 144.49
  C 73.18 149.04 73.39 153.97 73.46 159.84
  C 73.54 167.13 76.97 169.30 84.12 169.31
  Q 111.95 169.34 139.81 169.30
  C 143.66 169.30 149.53 173.59 152.84 175.55
  A 0.53 0.52 43.4 0 1 152.87 176.44
  C 131.58 190.70 117.18 212.29 107.53 236.24
  C 102.60 248.48 99.13 261.15 93.13 272.94
  A 0.52 0.52 0.0 0 1 92.40 273.16
  C 82.18 267.11 73.47 281.80 83.05 288.17
  A 0.48 0.47 -55.5 0 1 83.17 288.85
  Q 73.11 302.46 59.00 312.01"
/>
<path stroke="#bdd6f1" vector-effect="non-scaling-stroke" d="
  M 59.00 312.01
  Q 58.96 311.96 58.92 311.92"
/>
<path stroke="#add0f1" vector-effect="non-scaling-stroke" d="
  M 55.05 266.17
  C 75.78 269.61 91.65 248.27 81.76 229.49
  C 76.79 220.07 67.90 216.57 57.19 216.23"
/>
<path stroke="#509ac7" vector-effect="non-scaling-stroke" d="
  M 328.67 289.32
  Q 326.08 295.48 330.20 299.80
  Q 335.69 305.56 342.87 301.02"
/>
<path stroke="#2383bb" vector-effect="non-scaling-stroke" d="
  M 375.27 329.78
  L 271.53 329.77"
/>
<path stroke="#105c95" vector-effect="non-scaling-stroke" d="
  M 183.58 180.39
  C 174.83 185.06 174.64 198.23 183.22 202.62
  Q 188.76 205.45 193.84 201.27"
/>
<path stroke="#80a3b7" vector-effect="non-scaling-stroke" d="
  M 193.84 201.27
  Q 198.65 204.31 203.98 204.91
  Q 204.51 204.97 204.77 204.50
  L 205.04 204.02
  Q 205.32 203.51 205.90 203.41
  Q 207.67 203.12 209.35 203.62
  A 0.96 0.94 8.2 0 1 210.04 204.53
  L 210.04 206.92
  Q 210.04 207.37 209.63 207.54
  Q 207.00 208.64 204.81 207.19
  Q 204.42 206.93 203.95 206.84
  L 199.32 205.91
  Q 197.47 205.54 199.01 206.63
  L 201.14 208.15
  Q 201.61 208.48 201.77 209.03
  Q 202.51 211.44 202.06 213.67"
/>
<path stroke="#6897b7" vector-effect="non-scaling-stroke" d="
  M 202.06 213.67
  L 177.82 216.77
  A 0.82 0.81 74.1 0 1 176.97 216.29
  C 170.43 201.12 167.53 182.74 175.28 167.83"
/>
<path stroke="#1b78a8" vector-effect="non-scaling-stroke" d="
  M 218.93 153.76
  C 216.67 153.88 214.39 153.32 212.37 153.45
  Q 194.56 154.67 188.42 170.84
  C 187.42 173.45 187.06 176.60 186.57 179.53"
/>
<path stroke="#2a8ecd" vector-effect="non-scaling-stroke" d="
  M 186.57 179.53
  Q 184.99 180.85 183.58 180.39"
/>
<path stroke="#1b78a8" vector-effect="non-scaling-stroke" d="
  M 183.58 180.39
  C 182.88 167.55 187.08 157.65 200.13 152.88"
/>
<path stroke="#7ccff0" vector-effect="non-scaling-stroke" d="
  M 398.62 354.17
  L 154.10 381.97"
/>
<path stroke="#9cd8f4" vector-effect="non-scaling-stroke" d="
  M 154.10 381.97
  L 153.73 370.10"
/>
<path stroke="#8c85a7" vector-effect="non-scaling-stroke" d="
  M 121.53 312.62
  Q 121.64 313.78 122.75 313.85
  C 127.08 314.13 143.49 299.83 146.07 309.01
  Q 147.64 314.57 143.91 319.93
  Q 139.38 326.46 134.76 333.02"
/>
<path stroke="#d8a4b6" vector-effect="non-scaling-stroke" d="
  M 134.76 333.02
  C 131.94 337.08 126.45 345.56 127.49 350.50
  C 128.62 355.85 134.83 353.50 137.21 351.20
  Q 142.23 346.37 147.32 344.06"
/>
<path stroke="#8c85a7" vector-effect="non-scaling-stroke" d="
  M 147.32 344.06
  Q 153.51 342.01 156.69 346.07"
/>
<path stroke="#a693ab" vector-effect="non-scaling-stroke" d="
  M 156.69 346.07
  C 159.33 353.26 156.30 363.32 153.73 370.10"
/>
<path stroke="#d8a4b6" vector-effect="non-scaling-stroke" d="
  M 153.73 370.10
  Q 149.06 383.52 140.01 393.78"
/>
<path stroke="#816894" vector-effect="non-scaling-stroke" d="
  M 117.70 411.23
  Q 117.54 411.29 117.21 411.29"
/>
<path stroke="#f16572" vector-effect="non-scaling-stroke" d="
  M 105.91 401.14
  Q 109.86 394.17 111.84 386.21
  C 113.27 380.46 115.02 375.30 114.49 369.24
  C 114.16 365.38 111.38 358.55 107.24 357.17
  C 102.09 355.44 98.14 364.26 97.09 368.21
  C 96.52 370.37 95.61 372.46 94.02 373.58
  C 90.00 376.42 88.00 369.97 87.62 366.88
  C 87.03 362.19 87.27 356.90 87.88 351.25
  Q 88.34 346.99 88.54 342.46"
/>
<path stroke="#8f6e98" vector-effect="non-scaling-stroke" d="
  M 100.29 410.55
  Q 100.02 410.95 99.96 411.77"
/>
<path stroke="#477fa9" vector-effect="non-scaling-stroke" d="
  M 176.41 166.09
  Q 175.84 167.33 175.28 167.83"
/>
<path stroke="#add0f1" vector-effect="non-scaling-stroke" d="
  M 175.28 167.83
  Q 175.24 167.14 174.80 167.27
  Q 168.44 169.18 162.73 171.91
  A 1.73 1.72 -12.9 0 0 161.75 173.46
  L 161.74 180.00
  A 0.40 0.40 0.0 0 1 161.14 180.34
  L 155.26 176.89
  A 1.26 1.23 -38.7 0 0 154.22 176.79
  Q 153.39 177.09 152.48 177.71
  C 129.21 193.55 114.74 217.85 105.54 243.81
  C 101.98 253.84 99.08 263.40 93.93 273.43
  Q 93.67 273.93 94.00 274.39
  C 94.57 275.19 95.18 275.88 95.54 276.60
  C 99.12 283.94 92.46 291.03 84.87 288.95
  A 0.81 0.79 -63.8 0 0 84.02 289.25
  Q 73.88 302.89 59.98 312.40
  Q 59.39 312.80 58.96 312.46"
/>
<path stroke="#9cbee2" vector-effect="non-scaling-stroke" d="
  M 58.96 312.46
  Q 58.87 312.19 59.00 312.01"
/>
<path stroke="#9cbee2" vector-effect="non-scaling-stroke" d="
  M 260.63 122.33
  C 261.35 120.24 258.65 118.81 257.29 117.87"
/>
<path stroke="#9cbee2" vector-effect="non-scaling-stroke" d="
  M 232.89 94.80
  Q 231.07 93.81 228.37 91.38
  Q 227.06 90.20 225.53 90.89"
/>
<path stroke="#9dceed" vector-effect="non-scaling-stroke" d="
  M 396.26 359.64
  Q 396.20 359.67 396.13 359.70"
/>
<path stroke="#c6c1d7" vector-effect="non-scaling-stroke" d="
  M 349.56 393.60
  C 349.09 382.45 341.25 377.64 331.08 381.32"
/>
<path stroke="#62c1ec" vector-effect="non-scaling-stroke" d="
  M 331.08 381.32
  C 303.93 362.63 270.78 387.94 280.49 419.16
  Q 280.63 419.61 280.97 419.92
  L 281.70 420.61"
/>
<path stroke="#9dceed" vector-effect="non-scaling-stroke" d="
  M 281.70 420.61
  Q 281.59 420.95 281.27 421.06"
/>
<path stroke="#aee0fc" vector-effect="non-scaling-stroke" d="
  M 153.96 395.72
  L 154.10 381.97"
/>
<path stroke="#1867a8" vector-effect="non-scaling-stroke" d="
  M 137.78 421.30
  L 92.92 421.21"
/>
<path stroke="#9aabcb" vector-effect="non-scaling-stroke" d="
  M 331.08 381.32
  Q 323.36 386.42 325.13 395.85"
/>
<path stroke="#70b7e1" vector-effect="non-scaling-stroke" d="
  M 281.70 420.61
  L 288.63 419.05"
/>
<path stroke="#d5b8cc" vector-effect="non-scaling-stroke" d="
  M 334.49 404.50
  Q 339.39 404.73 344.44 402.67"
/>
<path stroke="#9aabcb" vector-effect="non-scaling-stroke" d="
  M 329.05 401.52
  L 327.53 400.48"
/>
<path stroke="#d5e2f1" vector-effect="non-scaling-stroke" d="
  M 444.21 86.84
  C 444.06 83.40 445.34 81.97 447.75 79.02
  C 454.38 70.88 445.79 65.16 437.94 68.85
  Q 437.30 69.15 437.59 69.80
  L 438.19 71.10
  Q 438.49 71.76 439.10 71.38
  C 443.40 68.74 448.27 71.75 445.31 76.86
  C 443.32 80.29 440.54 81.97 441.02 86.82
  A 0.77 0.76 -2.1 0 0 441.76 87.50
  L 443.55 87.52
  Q 444.24 87.53 444.21 86.84"
/>
<path stroke="#d5e2f1" vector-effect="non-scaling-stroke" d="
  M 445.10 93.07
  A 2.49 2.49 0.0 0 0 442.61 90.58
  A 2.49 2.49 0.0 0 0 440.12 93.07
  A 2.49 2.49 0.0 0 0 442.61 95.56
  A 2.49 2.49 0.0 0 0 445.10 93.07"
/>
<path stroke="#add0f1" vector-effect="non-scaling-stroke" d="
  M 175.42 115.42
  A 0.39 0.39 0.0 0 0 175.75 116.01
  L 191.79 116.10
  A 0.39 0.39 0.0 0 0 192.11 115.48
  L 183.57 103.51
  A 0.39 0.39 0.0 0 0 182.92 103.53
  L 175.42 115.42"
/>
<path stroke="#70b7e1" vector-effect="non-scaling-stroke" d="
  M 318.11 119.87
  C 310.34 127.43 306.70 139.70 306.27 150.25
  Q 306.25 150.78 306.75 150.59
  Q 321.15 145.16 328.96 132.49
  C 331.28 128.72 334.36 121.80 331.50 117.75
  C 328.22 113.12 321.17 116.90 318.11 119.87"
/>
<path stroke="#c6dbf1" vector-effect="non-scaling-stroke" d="
  M 154.08 142.31
  A 0.52 0.52 0.0 0 0 153.56 141.79
  L 79.04 141.79
  A 0.52 0.52 0.0 0 0 78.52 142.31
  L 78.52 142.33
  A 0.52 0.52 0.0 0 0 79.04 142.85
  L 153.56 142.85
  A 0.52 0.52 0.0 0 0 154.08 142.33
  L 154.08 142.31"
/>
<path stroke="#c6dbf1" vector-effect="non-scaling-stroke" d="
  M 154.12 151.42
  A 0.49 0.49 0.0 0 0 153.63 150.93
  L 78.97 150.93
  A 0.49 0.49 0.0 0 0 78.48 151.42
  L 78.48 151.48
  A 0.49 0.49 0.0 0 0 78.97 151.97
  L 153.63 151.97
  A 0.49 0.49 0.0 0 0 154.12 151.48
  L 154.12 151.42"
/>
<path stroke="#c6dbf1" vector-effect="non-scaling-stroke" d="
  M 154.13 160.52
  A 0.50 0.50 0.0 0 0 153.63 160.02
  L 78.99 160.02
  A 0.50 0.50 0.0 0 0 78.49 160.52
  L 78.49 160.56
  A 0.50 0.50 0.0 0 0 78.99 161.06
  L 153.63 161.06
  A 0.50 0.50 0.0 0 0 154.13 160.56
  L 154.13 160.52"
/>
<path stroke="#add0f1" vector-effect="non-scaling-stroke" d="
  M 262.57 202.26
  A 0.38 0.38 0.0 0 0 262.89 202.84
  L 275.95 203.01
  A 0.38 0.38 0.0 0 0 276.26 202.41
  L 269.19 192.67
  A 0.38 0.38 0.0 0 0 268.56 192.70
  L 262.57 202.26"
/>
<path stroke="#add0f1" vector-effect="non-scaling-stroke" d="
  M 379.87 229.19
  A 9.41 9.41 0.0 0 0 370.46 219.78
  A 9.41 9.41 0.0 0 0 361.05 229.19
  A 9.41 9.41 0.0 0 0 370.46 238.60
  A 9.41 9.41 0.0 0 0 379.87 229.19"
/>
<path stroke="#2a8ecd" vector-effect="non-scaling-stroke" d="
  M 186.7785 199.0214
  A 6.95 5.89 79.4 0 0 191.2895 191.1065
  A 6.95 5.89 79.4 0 0 184.2215 185.3586
  A 6.95 5.89 79.4 0 0 179.7105 193.2735
  A 6.95 5.89 79.4 0 0 186.7785 199.0214"
/>
<path stroke="#add0f1" vector-effect="non-scaling-stroke" d="
  M 263.82 201.80
  A 0.32 0.32 0.0 0 0 264.09 202.29
  L 274.22 202.10
  A 0.32 0.32 0.0 0 0 274.47 201.59
  L 269.27 194.09
  A 0.32 0.32 0.0 0 0 268.73 194.10
  L 263.82 201.80"
/>
<path stroke="#add0f1" vector-effect="non-scaling-stroke" d="
  M 55.17 264.54
  Q 55.22 264.66 55.27 264.80
  Q 55.35 265.05 55.60 265.08
  C 79.53 268.60 93.59 240.65 76.13 223.62
  Q 68.50 216.18 56.99 217.48"
/>
<path stroke="#bdd6f1" vector-effect="non-scaling-stroke" d="
  M 55.27 260.65
  Q 55.53 260.45 55.94 260.43"
/>
<path stroke="#add0f1" vector-effect="non-scaling-stroke" d="
  M 55.94 260.43
  C 66.59 262.21 77.02 255.46 78.70 244.75
  C 80.79 231.35 70.28 221.00 56.96 222.24"
/>
<path stroke="#bdd6f1" vector-effect="non-scaling-stroke" d="
  M 56.96 222.24
  Q 56.29 222.36 56.21 221.70"
/>
<path stroke="#9cbee2" vector-effect="non-scaling-stroke" d="
  M 56.96 222.24
  Q 56.39 223.34 56.30 224.50
  Q 54.95 241.85 54.94 259.25
  Q 54.94 260.43 55.94 260.43"
/>
<path stroke="#f16572" vector-effect="non-scaling-stroke" d="
  M 180.02 232.70
  Q 178.66 231.19 179.27 233.13
  C 182.42 243.03 183.58 252.24 182.19 263.03
  Q 182.09 263.82 182.58 263.20
  C 189.97 253.85 187.58 241.13 180.02 232.70"
/>
<path stroke="#f16572" vector-effect="non-scaling-stroke" d="
  M 241.28 262.83
  L 204.94 266.28
  Q 201.86 266.57 204.67 267.87
  C 215.49 272.89 232.55 273.03 241.65 263.59
  A 0.45 0.45 0.0 0 0 241.28 262.83"
/>
<path stroke="#add0f1" vector-effect="non-scaling-stroke" d="
  M 378.90 229.28
  A 8.52 8.52 0.0 0 0 370.38 220.76
  A 8.52 8.52 0.0 0 0 361.86 229.28
  A 8.52 8.52 0.0 0 0 370.38 237.80
  A 8.52 8.52 0.0 0 0 378.90 229.28"
/>
<path stroke="#add0f1" vector-effect="non-scaling-stroke" d="
  M 424.03 238.60
  C 402.00 242.69 410.16 274.47 431.03 268.03"
/>
<path stroke="#bdd6f1" vector-effect="non-scaling-stroke" d="
  M 431.03 268.03
  C 444.11 262.87 444.89 245.69 431.98 239.70
  Q 427.97 237.84 424.03 238.60"
/>
<path stroke="#9cbee2" vector-effect="non-scaling-stroke" d="
  M 431.03 268.03
  Q 430.14 257.40 428.70 251.24
  Q 427.48 246.02 424.03 238.60"
/>
<path stroke="#f16572" vector-effect="non-scaling-stroke" d="
  M 81.65 346.21
  A 0.17 0.17 0.0 0 0 81.44 346.34
  L 76.51 367.31
  A 0.17 0.17 0.0 0 1 76.19 367.35
  L 56.79 335.33
  A 0.17 0.17 0.0 0 0 56.55 335.27
  L 56.04 335.58
  A 0.17 0.17 0.0 0 0 55.99 335.81
  L 75.55 367.88
  A 0.17 0.17 0.0 0 1 75.38 368.13
  L 50.32 363.69
  A 0.17 0.17 0.0 0 0 50.12 363.83
  L 50.02 364.40
  A 0.17 0.17 0.0 0 0 50.16 364.60
  L 76.10 369.17
  A 0.17 0.17 0.0 0 1 76.22 369.25
  L 91.07 394.47
  A 0.17 0.17 0.0 0 0 91.31 394.54
  L 91.58 394.37
  A 0.17 0.17 0.0 0 0 91.65 394.14
  L 77.01 368.43
  A 0.17 0.17 0.0 0 1 77.00 368.30
  L 82.20 346.52
  A 0.17 0.17 0.0 0 0 82.07 346.31
  L 81.65 346.21"
/>
<path stroke="#f16572" vector-effect="non-scaling-stroke" d="
  M 103.9652 371.0365
  A 0.34 0.34 0.0 0 0 103.7968 370.5861
  L 103.7604 370.5695
  A 0.34 0.34 0.0 0 0 103.3100 370.7379
  L 92.8348 393.7235
  A 0.34 0.34 0.0 0 0 93.0032 394.1739
  L 93.0396 394.1905
  A 0.34 0.34 0.0 0 0 93.4900 394.0221
  L 103.9652 371.0365"
/>
<path stroke="#f16572" vector-effect="non-scaling-stroke" d="
  M 92.23 396.65
  L 96.19 403.80
  Q 96.21 403.84 96.25 403.81
  L 96.52 403.66
  Q 96.65 403.59 96.58 403.47
  L 93.12 397.05
  Q 92.87 396.60 92.82 396.08
  Q 92.78 395.60 92.97 395.20
  Q 93.35 394.44 92.55 394.72
  C 91.58 395.06 91.16 395.43 90.12 395.26
  Q 77.38 393.12 64.56 390.78
  A 0.25 0.24 9.3 0 0 64.27 390.98
  L 64.22 391.24
  A 0.34 0.34 0.0 0 0 64.49 391.63
  L 91.64 396.23
  Q 92.04 396.30 92.23 396.65"
/>
<path stroke="#70b7e1" vector-effect="non-scaling-stroke" d="
  M 341.9706 419.3968
  A 3.26 0.30 7.7 0 0 338.7802 418.6627
  A 3.26 0.30 7.7 0 0 335.5094 418.5232
  A 3.26 0.30 7.7 0 0 338.6998 419.2573
  A 3.26 0.30 7.7 0 0 341.9706 419.3968"
/>
</g>
<path fill="#abc4e2" d="
  M 439.03 103.22
  Q 438.23 101.09 437.22 98.26
  Q 432.76 85.67 422.72 76.94
  Q 422.35 76.62 422.40 76.13
  L 422.43 75.80
  C 423.04 69.03 429.30 63.03 435.17 60.62
  C 451.27 54.03 469.69 68.52 465.66 85.95
  C 463.49 95.33 456.24 102.01 446.63 103.58
  C 443.98 104.02 441.76 103.50 439.03 103.22
  Z
  M 444.21 86.84
  C 444.06 83.40 445.34 81.97 447.75 79.02
  C 454.38 70.88 445.79 65.16 437.94 68.85
  Q 437.30 69.15 437.59 69.80
  L 438.19 71.10
  Q 438.49 71.76 439.10 71.38
  C 443.40 68.74 448.27 71.75 445.31 76.86
  C 443.32 80.29 440.54 81.97 441.02 86.82
  A 0.77 0.76 -2.1 0 0 441.76 87.50
  L 443.55 87.52
  Q 444.24 87.53 444.21 86.84
  Z
  M 445.10 93.07
  A 2.49 2.49 0.0 0 0 442.61 90.58
  A 2.49 2.49 0.0 0 0 440.12 93.07
  A 2.49 2.49 0.0 0 0 442.61 95.56
  A 2.49 2.49 0.0 0 0 445.10 93.07
  Z"
/>
<path fill="#35aae0" d="
  M 422.43 75.80
  L 422.40 76.13
  Q 422.35 76.62 422.72 76.94
  Q 432.76 85.67 437.22 98.26
  Q 438.23 101.09 439.03 103.22
  Q 439.49 106.85 439.74 109.88
  Q 441.38 129.14 430.21 144.37
  Q 420.67 140.45 410.42 140.79
  L 410.03 124.19
  C 417.43 116.05 425.59 99.69 416.28 89.80
  A 1.75 1.68 -72.4 0 1 415.86 88.95
  Q 414.60 81.72 407.54 79.39
  C 398.41 76.37 388.82 75.63 380.16 80.55
  Q 379.71 80.80 379.28 80.52
  C 375.44 78.07 370.42 76.42 366.49 79.22
  C 362.82 81.84 362.36 86.39 365.29 89.84
  Q 365.62 90.23 365.18 90.49
  C 357.70 95.03 361.94 105.02 370.54 104.57
  C 370.78 112.52 370.71 119.62 374.16 127.06
  Q 379.31 138.13 391.80 137.81
  L 391.70 141.62
  Q 391.69 142.13 391.24 142.35
  L 390.27 142.81
  Q 375.33 144.14 370.12 158.00
  Q 369.56 157.91 369.26 157.74
  C 351.06 147.34 341.52 128.05 344.58 107.14
  Q 344.60 106.99 344.55 106.88
  Q 344.45 106.64 344.27 106.78
  Q 344.71 106.39 344.79 105.99
  C 351.05 73.20 385.64 56.07 414.98 71.80
  Q 417.41 73.11 421.83 76.06
  Q 422.04 76.20 422.24 76.05
  Q 422.35 75.96 422.43 75.80
  Z"
/>
<path fill="#ffffff" d="
  M 447.75 79.02
  C 445.34 81.97 444.06 83.40 444.21 86.84
  Q 444.24 87.53 443.55 87.52
  L 441.76 87.50
  A 0.77 0.76 -2.1 0 1 441.02 86.82
  C 440.54 81.97 443.32 80.29 445.31 76.86
  C 448.27 71.75 443.40 68.74 439.10 71.38
  Q 438.49 71.76 438.19 71.10
  L 437.59 69.80
  Q 437.30 69.15 437.94 68.85
  C 445.79 65.16 454.38 70.88 447.75 79.02
  Z"
/>
<path fill="#cee8ff" d="
  M 225.44 90.01
  Q 225.32 90.50 225.53 90.89
  Q 216.79 104.01 223.27 116.54
  C 230.67 130.85 249.35 133.40 260.63 122.33
  Q 261.40 122.29 261.55 122.04
  L 294.49 154.32
  Q 286.73 156.70 278.76 157.71
  Q 263.67 159.61 248.49 160.37
  Q 238.94 160.84 229.17 160.96
  Q 225.98 155.42 218.93 153.76
  Q 213.50 151.10 207.75 151.61
  Q 204.26 151.92 200.13 152.88
  Q 191.72 152.71 185.28 157.34
  Q 179.92 161.18 176.41 166.09
  Q 168.92 167.85 162.60 171.11
  A 0.59 0.59 0.0 0 1 161.74 170.59
  Q 161.76 156.94 161.73 143.13
  C 161.71 136.07 158.04 133.74 151.15 133.73
  Q 116.44 133.69 81.73 133.71
  C 77.61 133.71 76.84 138.40 75.56 141.18
  Q 74.64 143.15 74.31 144.49
  C 73.18 149.04 73.39 153.97 73.46 159.84
  C 73.54 167.13 76.97 169.30 84.12 169.31
  Q 111.95 169.34 139.81 169.30
  C 143.66 169.30 149.53 173.59 152.84 175.55
  A 0.53 0.52 43.4 0 1 152.87 176.44
  C 131.58 190.70 117.18 212.29 107.53 236.24
  C 102.60 248.48 99.13 261.15 93.13 272.94
  A 0.52 0.52 0.0 0 1 92.40 273.16
  C 82.18 267.11 73.47 281.80 83.05 288.17
  A 0.48 0.47 -55.5 0 1 83.17 288.85
  Q 73.11 302.46 59.00 312.01
  Q 58.96 311.96 58.92 311.92
  Q 58.24 308.37 57.64 304.81
  C 57.09 301.53 57.01 297.14 56.44 293.28
  C 55.52 287.03 55.69 280.30 55.21 273.95
  C 55.03 271.61 55.35 268.80 55.05 266.17
  C 75.78 269.61 91.65 248.27 81.76 229.49
  C 76.79 220.07 67.90 216.57 57.19 216.23
  C 59.60 194.51 64.40 171.72 72.11 151.11
  Q 73.05 148.62 73.16 146.26
  C 73.44 140.62 73.22 136.52 79.13 134.04
  Q 79.61 133.85 79.83 133.38
  C 94.49 102.95 120.41 77.05 154.51 71.28
  Q 171.14 68.47 185.63 70.17
  C 198.32 71.66 211.49 79.23 221.95 86.92
  C 223.16 87.80 224.23 89.00 225.44 90.01
  Z
  M 175.42 115.42
  A 0.39 0.39 0.0 0 0 175.75 116.01
  L 191.79 116.10
  A 0.39 0.39 0.0 0 0 192.11 115.48
  L 183.57 103.51
  A 0.39 0.39 0.0 0 0 182.92 103.53
  L 175.42 115.42
  Z"
/>
<path fill="#01466f" d="
  M 410.03 124.19
  L 407.93 118.77
  A 1.04 1.04 0.0 0 1 408.63 117.39
  C 419.84 114.41 412.89 93.70 404.77 107.44
  Q 404.47 107.95 404.02 107.56
  Q 399.23 103.36 400.64 96.76
  Q 400.95 95.31 401.16 93.78
  Q 401.23 93.25 400.74 93.45
  C 396.76 95.02 394.65 94.23 391.09 93.95
  Q 390.59 93.92 390.15 94.16
  C 384.16 97.52 378.02 97.01 371.49 95.68
  A 0.79 0.79 0.0 0 0 370.54 96.45
  L 370.54 104.57
  C 361.94 105.02 357.70 95.03 365.18 90.49
  Q 365.62 90.23 365.29 89.84
  C 362.36 86.39 362.82 81.84 366.49 79.22
  C 370.42 76.42 375.44 78.07 379.28 80.52
  Q 379.71 80.80 380.16 80.55
  C 388.82 75.63 398.41 76.37 407.54 79.39
  Q 414.60 81.72 415.86 88.95
  A 1.75 1.68 -72.4 0 0 416.28 89.80
  C 425.59 99.69 417.43 116.05 410.03 124.19
  Z"
/>
<path fill="#abc4e2" d="
  M 261.55 122.04
  Q 261.40 122.29 260.63 122.33
  C 261.35 120.24 258.65 118.81 257.29 117.87
  Q 256.84 114.38 254.40 111.60
  A 2.14 2.13 54.0 0 0 251.71 111.17
  C 249.34 112.58 247.87 110.75 246.83 108.69
  Q 244.54 104.17 242.15 99.66
  Q 241.90 99.19 241.99 98.67
  Q 242.33 96.57 244.21 95.54
  A 1.87 1.87 0.0 0 0 244.97 93.03
  L 242.91 89.10
  A 2.57 2.56 67.0 0 0 239.84 87.85
  Q 234.89 89.49 232.89 94.80
  Q 231.07 93.81 228.37 91.38
  Q 227.06 90.20 225.53 90.89
  Q 225.32 90.50 225.44 90.01
  L 226.26 90.00
  Q 226.77 89.99 227.13 89.62
  C 235.24 81.13 247.88 79.80 257.40 86.52
  C 267.79 93.85 270.91 108.80 262.95 119.44
  Q 261.95 120.79 261.55 122.04
  Z"
/>
<circle fill="#ffffff" cx="442.61" cy="93.07" r="2.49"/>
<path fill="#8cb7e2" d="
  M 232.89 94.80
  Q 232.67 97.47 233.31 98.70
  Q 238.22 108.25 243.25 117.72
  C 246.01 122.91 254.09 121.95 257.29 117.87
  C 258.65 118.81 261.35 120.24 260.63 122.33
  C 249.35 133.40 230.67 130.85 223.27 116.54
  Q 216.79 104.01 225.53 90.89
  Q 227.06 90.20 228.37 91.38
  Q 231.07 93.81 232.89 94.80
  Z"
/>
<path fill="#8cb7e2" d="
  M 175.42 115.42
  L 182.92 103.53
  A 0.39 0.39 0.0 0 1 183.57 103.51
  L 192.11 115.48
  A 0.39 0.39 0.0 0 1 191.79 116.10
  L 175.75 116.01
  A 0.39 0.39 0.0 0 1 175.42 115.42
  Z"
/>
<path fill="#abc4e2" d="
  M 344.27 106.78
  Q 344.45 106.64 344.55 106.88
  Q 344.60 106.99 344.58 107.14
  C 341.52 128.05 351.06 147.34 369.26 157.74
  Q 369.56 157.91 370.12 158.00
  Q 370.22 158.46 370.78 158.71
  Q 393.69 169.27 415.64 157.37
  C 417.37 156.43 419.16 155.03 420.97 153.88
  Q 421.07 166.45 420.98 178.70
  C 420.89 190.52 410.09 188.00 402.34 188.00
  Q 401.69 188.00 401.18 188.42
  Q 393.20 195.06 385.17 201.92
  Q 383.78 203.11 383.45 204.20
  Q 382.96 204.03 382.56 204.23
  Q 382.87 203.30 382.42 203.11
  C 380.23 202.22 376.12 199.74 373.94 199.94
  Q 373.75 199.38 373.87 199.05
  L 373.94 188.75
  Q 373.95 188.07 373.27 188.07
  Q 361.64 188.01 350.50 188.03
  Q 350.01 188.03 348.92 188.60
  L 347.44 188.16
  Q 344.05 186.26 335.25 182.06
  Q 321.83 175.67 306.86 165.20
  Q 305.77 159.68 306.20 152.27
  A 1.26 1.26 0.0 0 1 306.97 151.19
  C 318.49 146.49 329.80 137.51 332.72 124.58
  C 333.56 120.86 333.03 116.61 328.99 115.41
  C 323.39 113.75 317.35 118.87 314.28 123.29
  C 308.27 131.94 306.51 140.26 305.43 150.72
  A 0.85 0.83 -7.2 0 1 304.87 151.43
  Q 301.03 152.80 297.15 154.06
  Q 297.10 154.07 297.08 154.03
  Q 297.04 153.91 296.99 153.79
  Q 297.07 136.50 296.99 119.20
  C 296.95 111.65 297.92 106.76 306.50 106.75
  Q 325.41 106.72 344.27 106.78
  Z"
/>
<path fill="#35aae0" d="
  M 306.86 165.20
  C 307.61 172.70 310.66 180.49 313.70 187.36
  Q 313.80 187.59 313.57 187.69
  L 313.33 187.80
  A 0.11 0.11 0.0 0 1 313.19 187.74
  C 310.24 180.90 307.52 173.33 306.50 165.93
  Q 306.21 163.89 305.66 161.85
  L 305.43 152.65
  A 0.55 0.55 0.0 0 0 304.69 152.14
  Q 301.40 153.36 297.97 154.24
  Q 296.76 154.55 296.81 154.08
  Q 296.72 153.89 296.99 153.79
  Q 297.04 153.91 297.08 154.03
  Q 297.10 154.07 297.15 154.06
  Q 301.03 152.80 304.87 151.43
  A 0.85 0.83 -7.2 0 0 305.43 150.72
  C 306.51 140.26 308.27 131.94 314.28 123.29
  C 317.35 118.87 323.39 113.75 328.99 115.41
  C 333.03 116.61 333.56 120.86 332.72 124.58
  C 329.80 137.51 318.49 146.49 306.97 151.19
  A 1.26 1.26 0.0 0 0 306.20 152.27
  Q 305.77 159.68 306.86 165.20
  Z
  M 318.11 119.87
  C 310.34 127.43 306.70 139.70 306.27 150.25
  Q 306.25 150.78 306.75 150.59
  Q 321.15 145.16 328.96 132.49
  C 331.28 128.72 334.36 121.80 331.50 117.75
  C 328.22 113.12 321.17 116.90 318.11 119.87
  Z"
/>
<path fill="#abc4e2" d="
  M 306.27 150.25
  C 306.70 139.70 310.34 127.43 318.11 119.87
  C 321.17 116.90 328.22 113.12 331.50 117.75
  C 334.36 121.80 331.28 128.72 328.96 132.49
  Q 321.15 145.16 306.75 150.59
  Q 306.25 150.78 306.27 150.25
  Z"
/>
<path fill="#ffffff" d="
  M 391.53 142.75
  Q 390.68 142.40 390.27 142.81
  L 391.24 142.35
  Q 391.69 142.13 391.70 141.62
  L 391.80 137.81
  C 396.24 136.41 405.64 131.89 407.04 127.03
  A 0.09 0.09 0.0 0 1 407.21 127.05
  C 407.28 133.47 404.06 136.67 398.71 140.17
  Q 395.85 142.05 393.30 141.78
  Q 392.81 141.72 392.43 142.03
  L 391.53 142.75
  Z"
/>
<path fill="#8cb7e2" d="
  M 176.41 166.09
  Q 175.84 167.33 175.28 167.83
  Q 175.24 167.14 174.80 167.27
  Q 168.44 169.18 162.73 171.91
  A 1.73 1.72 -12.9 0 0 161.75 173.46
  L 161.74 180.00
  A 0.40 0.40 0.0 0 1 161.14 180.34
  L 155.26 176.89
  A 1.26 1.23 -38.7 0 0 154.22 176.79
  Q 153.39 177.09 152.48 177.71
  C 129.21 193.55 114.74 217.85 105.54 243.81
  C 101.98 253.84 99.08 263.40 93.93 273.43
  Q 93.67 273.93 94.00 274.39
  C 94.57 275.19 95.18 275.88 95.54 276.60
  C 99.12 283.94 92.46 291.03 84.87 288.95
  A 0.81 0.79 -63.8 0 0 84.02 289.25
  Q 73.88 302.89 59.98 312.40
  Q 59.39 312.80 58.96 312.46
  Q 58.87 312.19 59.00 312.01
  Q 73.11 302.46 83.17 288.85
  A 0.48 0.47 -55.5 0 0 83.05 288.17
  C 73.47 281.80 82.18 267.11 92.40 273.16
  A 0.52 0.52 0.0 0 0 93.13 272.94
  C 99.13 261.15 102.60 248.48 107.53 236.24
  C 117.18 212.29 131.58 190.70 152.87 176.44
  A 0.53 0.52 43.4 0 0 152.84 175.55
  C 149.53 173.59 143.66 169.30 139.81 169.30
  Q 111.95 169.34 84.12 169.31
  C 76.97 169.30 73.54 167.13 73.46 159.84
  C 73.39 153.97 73.18 149.04 74.31 144.49
  Q 74.64 143.15 75.56 141.18
  C 76.84 138.40 77.61 133.71 81.73 133.71
  Q 116.44 133.69 151.15 133.73
  C 158.04 133.74 161.71 136.07 161.73 143.13
  Q 161.76 156.94 161.74 170.59
  A 0.59 0.59 0.0 0 0 162.60 171.11
  Q 168.92 167.85 176.41 166.09
  Z
  M 154.08 142.31
  A 0.52 0.52 0.0 0 0 153.56 141.79
  L 79.04 141.79
  A 0.52 0.52 0.0 0 0 78.52 142.31
  L 78.52 142.33
  A 0.52 0.52 0.0 0 0 79.04 142.85
  L 153.56 142.85
  A 0.52 0.52 0.0 0 0 154.08 142.33
  L 154.08 142.31
  Z
  M 154.12 151.42
  A 0.49 0.49 0.0 0 0 153.63 150.93
  L 78.97 150.93
  A 0.49 0.49 0.0 0 0 78.48 151.42
  L 78.48 151.48
  A 0.49 0.49 0.0 0 0 78.97 151.97
  L 153.63 151.97
  A 0.49 0.49 0.0 0 0 154.12 151.48
  L 154.12 151.42
  Z
  M 154.13 160.52
  A 0.50 0.50 0.0 0 0 153.63 160.02
  L 78.99 160.02
  A 0.50 0.50 0.0 0 0 78.49 160.52
  L 78.49 160.56
  A 0.50 0.50 0.0 0 0 78.99 161.06
  L 153.63 161.06
  A 0.50 0.50 0.0 0 0 154.13 160.56
  L 154.13 160.52
  Z"
/>
<path fill="#e25f6d" d="
  M 410.42 140.79
  Q 420.67 140.45 430.21 144.37
  L 420.97 153.88
  C 419.16 155.03 417.37 156.43 415.64 157.37
  Q 393.69 169.27 370.78 158.71
  Q 370.22 158.46 370.12 158.00
  Q 375.33 144.14 390.27 142.81
  Q 390.68 142.40 391.53 142.75
  C 388.80 147.11 392.40 153.31 394.89 157.07
  A 0.82 0.82 0.0 0 0 396.13 157.22
  Q 402.55 151.32 408.82 145.55
  Q 411.32 143.24 410.42 140.79
  Z"
/>
<rect fill="#ffffff" x="78.52" y="141.79" width="75.56" height="1.06" rx="0.52"/>
<rect fill="#ffffff" x="78.48" y="150.93" width="75.64" height="1.04" rx="0.49"/>
<path fill="#35aae0" d="
  M 218.93 153.76
  C 216.67 153.88 214.39 153.32 212.37 153.45
  Q 194.56 154.67 188.42 170.84
  C 187.42 173.45 187.06 176.60 186.57 179.53
  Q 184.99 180.85 183.58 180.39
  C 182.88 167.55 187.08 157.65 200.13 152.88
  Q 204.26 151.92 207.75 151.61
  Q 213.50 151.10 218.93 153.76
  Z"
/>
<path fill="#abc4e2" d="
  M 305.66 161.85
  L 305.42 162.50
  Q 305.19 163.10 304.68 162.70
  L 296.97 156.50
  Q 297.36 155.37 296.73 154.76
  Q 296.44 154.48 296.10 154.71
  Q 295.95 154.80 295.84 154.97
  Q 295.57 155.39 295.08 155.50
  Q 281.21 158.54 272.00 159.46
  Q 255.67 161.09 229.70 162.01
  L 229.17 160.96
  Q 238.94 160.84 248.49 160.37
  Q 263.67 159.61 278.76 157.71
  Q 286.73 156.70 294.49 154.32
  Q 294.70 153.78 296.81 154.08
  Q 296.76 154.55 297.97 154.24
  Q 301.40 153.36 304.69 152.14
  A 0.55 0.55 0.0 0 1 305.43 152.65
  L 305.66 161.85
  Z"
/>
<path fill="#01466f" d="
  M 200.13 152.88
  C 187.08 157.65 182.88 167.55 183.58 180.39
  C 174.83 185.06 174.64 198.23 183.22 202.62
  Q 188.76 205.45 193.84 201.27
  Q 198.65 204.31 203.98 204.91
  Q 204.51 204.97 204.77 204.50
  L 205.04 204.02
  Q 205.32 203.51 205.90 203.41
  Q 207.67 203.12 209.35 203.62
  A 0.96 0.94 8.2 0 1 210.04 204.53
  L 210.04 206.92
  Q 210.04 207.37 209.63 207.54
  Q 207.00 208.64 204.81 207.19
  Q 204.42 206.93 203.95 206.84
  L 199.32 205.91
  Q 197.47 205.54 199.01 206.63
  L 201.14 208.15
  Q 201.61 208.48 201.77 209.03
  Q 202.51 211.44 202.06 213.67
  L 177.82 216.77
  A 0.82 0.81 74.1 0 1 176.97 216.29
  C 170.43 201.12 167.53 182.74 175.28 167.83
  Q 175.84 167.33 176.41 166.09
  Q 179.92 161.18 185.28 157.34
  Q 191.72 152.71 200.13 152.88
  Z"
/>
<path fill="#01466f" d="
  M 218.93 153.76
  Q 225.98 155.42 229.17 160.96
  L 229.70 162.01
  C 230.92 165.56 230.74 168.95 232.28 172.38
  C 237.19 183.31 236.60 198.02 234.88 209.64
  Q 234.81 210.15 234.29 210.20
  L 219.18 211.55
  Q 218.67 211.55 218.39 211.11
  A 0.63 0.63 0.0 0 1 218.68 210.19
  C 232.08 204.55 231.95 187.46 228.18 175.91
  C 226.66 171.27 223.84 166.02 219.08 164.02
  A 0.56 0.56 0.0 0 0 218.37 164.26
  C 213.55 172.94 203.52 177.24 194.24 179.23
  Q 193.74 179.33 193.61 179.83
  L 192.84 182.62
  L 186.57 179.53
  C 187.06 176.60 187.42 173.45 188.42 170.84
  Q 194.56 154.67 212.37 153.45
  C 214.39 153.32 216.67 153.88 218.93 153.76
  Z"
/>
<path fill="#cee8ff" d="
  M 296.97 156.50
  Q 296.92 167.92 297.01 178.93
  C 297.10 189.49 304.94 188.11 312.73 188.28
  Q 313.27 188.30 313.49 188.79
  C 322.44 209.33 333.95 228.67 345.37 247.90
  A 0.31 0.30 58.9 0 0 345.79 248.01
  L 346.01 247.88
  Q 346.06 247.84 346.03 247.79
  C 334.56 228.90 323.41 209.42 314.40 189.21
  A 0.60 0.60 0.0 0 1 314.94 188.36
  L 347.44 188.16
  L 348.92 188.60
  Q 349.14 188.98 349.44 189.10
  Q 361.13 193.63 372.49 198.96
  Q 373.07 199.23 373.87 199.05
  Q 373.75 199.38 373.94 199.94
  C 373.69 202.10 373.29 205.66 375.03 207.17
  C 377.65 209.46 380.83 205.84 382.56 204.23
  Q 382.96 204.03 383.45 204.20
  C 396.12 209.67 412.07 219.46 419.24 231.54
  Q 419.50 231.93 418.98 232.13
  C 392.75 242.27 402.55 280.18 430.00 275.80
  Q 430.39 275.99 430.46 276.22
  C 430.12 280.20 430.24 284.31 429.51 288.23
  Q 429.22 289.75 428.94 291.99
  Q 427.58 302.91 423.14 314.44
  Q 422.91 314.93 422.32 314.43
  C 409.96 303.93 398.38 305.09 382.83 305.23
  L 393.60 251.28
  A 1.95 1.95 0.0 0 0 391.69 248.95
  L 292.20 248.95
  Q 295.14 238.81 297.40 235.66
  Q 299.77 232.37 308.77 225.78
  Q 309.53 225.22 309.72 224.57
  A 0.48 0.47 -85.4 0 0 309.21 223.97
  L 308.22 224.08
  A 0.33 0.33 0.0 0 1 307.96 223.50
  Q 308.86 222.73 309.86 222.12
  Q 310.74 221.58 309.91 220.75
  Q 309.51 220.34 308.98 220.52
  L 306.99 221.19
  Q 306.30 221.42 306.75 220.85
  Q 307.40 220.03 308.37 219.57
  Q 309.69 218.95 308.85 218.15
  A 1.10 1.10 0.0 0 0 307.69 217.93
  L 305.24 218.90
  Q 304.30 219.26 305.05 218.60
  L 306.62 217.20
  Q 307.09 216.78 306.58 216.42
  Q 305.63 215.75 304.47 216.29
  C 302.04 217.42 297.01 221.50 292.78 222.45
  A 0.40 0.40 0.0 0 1 292.35 221.87
  Q 293.39 220.01 294.12 218.03
  Q 295.20 215.15 292.78 217.05
  C 289.30 219.80 287.74 224.87 287.38 229.43
  Q 287.34 229.93 287.03 230.32
  L 265.74 257.41
  Q 261.81 247.08 256.71 237.06
  C 253.65 231.06 248.89 222.05 243.50 221.32
  Q 234.92 220.17 225.29 218.89
  Q 223.88 216.90 219.97 215.24
  Q 220.27 214.83 219.71 214.37
  C 218.86 213.66 218.62 212.43 219.18 211.55
  L 234.29 210.20
  Q 234.81 210.15 234.88 209.64
  C 236.60 198.02 237.19 183.31 232.28 172.38
  C 230.74 168.95 230.92 165.56 229.70 162.01
  Q 255.67 161.09 272.00 159.46
  Q 281.21 158.54 295.08 155.50
  Q 295.57 155.39 295.84 154.97
  Q 295.95 154.80 296.10 154.71
  Q 296.44 154.48 296.73 154.76
  Q 297.36 155.37 296.97 156.50
  Z
  M 262.57 202.26
  A 0.38 0.38 0.0 0 0 262.89 202.84
  L 275.95 203.01
  A 0.38 0.38 0.0 0 0 276.26 202.41
  L 269.19 192.67
  A 0.38 0.38 0.0 0 0 268.56 192.70
  L 262.57 202.26
  Z
  M 379.87 229.19
  A 9.41 9.41 0.0 0 0 370.46 219.78
  A 9.41 9.41 0.0 0 0 361.05 229.19
  A 9.41 9.41 0.0 0 0 370.46 238.60
  A 9.41 9.41 0.0 0 0 379.87 229.19
  Z"
/>
<path fill="#8cb7e2" d="
  M 296.97 156.50
  L 304.68 162.70
  Q 305.19 163.10 305.42 162.50
  L 305.66 161.85
  Q 306.21 163.89 306.50 165.93
  C 307.52 173.33 310.24 180.90 313.19 187.74
  A 0.11 0.11 0.0 0 0 313.33 187.80
  L 313.57 187.69
  Q 313.80 187.59 313.70 187.36
  C 310.66 180.49 307.61 172.70 306.86 165.20
  Q 321.83 175.67 335.25 182.06
  Q 344.05 186.26 347.44 188.16
  L 314.94 188.36
  A 0.60 0.60 0.0 0 0 314.40 189.21
  C 323.41 209.42 334.56 228.90 346.03 247.79
  Q 346.06 247.84 346.01 247.88
  L 345.79 248.01
  A 0.31 0.30 58.9 0 1 345.37 247.90
  C 333.95 228.67 322.44 209.33 313.49 188.79
  Q 313.27 188.30 312.73 188.28
  C 304.94 188.11 297.10 189.49 297.01 178.93
  Q 296.92 167.92 296.97 156.50
  Z"
/>
<rect fill="#ffffff" x="78.49" y="160.02" width="75.64" height="1.04" rx="0.50"/>
<path fill="#ffffff" d="
  M 219.18 211.55
  C 218.62 212.43 218.86 213.66 219.71 214.37
  Q 220.27 214.83 219.97 215.24
  Q 220.37 222.99 218.46 230.29
  A 0.95 0.95 0.0 0 1 216.86 230.72
  L 202.34 215.85
  Q 201.99 215.37 202.06 213.67
  Q 202.51 211.44 201.77 209.03
  Q 201.61 208.48 201.14 208.15
  L 199.01 206.63
  Q 197.47 205.54 199.32 205.91
  L 203.95 206.84
  Q 204.42 206.93 204.81 207.19
  Q 207.00 208.64 209.63 207.54
  Q 210.04 207.37 210.04 206.92
  L 210.04 204.53
  A 0.96 0.94 8.2 0 0 209.35 203.62
  Q 207.67 203.12 205.90 203.41
  Q 205.32 203.51 205.04 204.02
  L 204.77 204.50
  Q 204.51 204.97 203.98 204.91
  Q 198.65 204.31 193.84 201.27
  C 198.66 194.57 197.35 188.53 192.84 182.62
  L 193.61 179.83
  Q 193.74 179.33 194.24 179.23
  C 203.52 177.24 213.55 172.94 218.37 164.26
  A 0.56 0.56 0.0 0 1 219.08 164.02
  C 223.84 166.02 226.66 171.27 228.18 175.91
  C 231.95 187.46 232.08 204.55 218.68 210.19
  A 0.63 0.63 0.0 0 0 218.39 211.11
  Q 218.67 211.55 219.18 211.55
  Z"
/>
<path fill="#cee8ff" d="
  M 175.28 167.83
  C 167.53 182.74 170.43 201.12 176.97 216.29
  A 0.82 0.81 74.1 0 0 177.82 216.77
  L 202.06 213.67
  Q 201.99 215.37 202.34 215.85
  L 199.51 218.47
  L 145.99 225.40
  C 138.23 226.05 131.90 227.79 129.38 235.22
  Q 128.27 238.49 129.14 245.84
  Q 132.63 275.35 136.16 305.07
  Q 134.83 305.21 131.25 305.24
  Q 124.23 305.29 121.53 312.62
  Q 121.17 310.51 121.80 308.25
  C 123.85 300.88 127.00 288.70 124.30 281.50
  C 121.47 273.96 113.47 278.49 110.30 283.09
  C 106.27 288.93 106.87 295.15 107.41 303.52
  C 107.63 306.87 109.08 313.40 107.58 316.39
  A 2.12 2.12 0.0 0 1 104.74 317.34
  C 99.64 314.80 96.69 309.68 93.39 305.37
  C 91.87 303.38 89.56 301.86 86.99 302.92
  C 76.87 307.09 95.30 332.66 98.60 337.90
  C 100.47 340.86 104.60 347.56 103.44 351.10
  A 1.19 1.19 0.0 0 1 101.62 351.70
  L 88.54 342.46
  Q 87.88 340.98 86.99 338.72
  Q 85.79 335.64 82.75 334.97
  A 1.43 1.40 -52.1 0 0 81.79 335.10
  Q 79.67 336.22 78.44 337.96
  Q 76.21 341.14 72.60 346.94
  Q 71.47 345.90 70.36 345.51
  Q 69.87 345.35 69.55 344.95
  C 66.99 341.82 65.65 337.40 64.45 333.60
  C 62.78 328.29 60.14 321.33 59.40 314.63
  C 59.33 314.05 59.03 313.63 58.52 313.44
  Q 58.23 312.93 58.53 312.53
  Q 58.71 312.30 58.96 312.46
  Q 59.39 312.80 59.98 312.40
  Q 73.88 302.89 84.02 289.25
  A 0.81 0.79 -63.8 0 1 84.87 288.95
  C 92.46 291.03 99.12 283.94 95.54 276.60
  C 95.18 275.88 94.57 275.19 94.00 274.39
  Q 93.67 273.93 93.93 273.43
  C 99.08 263.40 101.98 253.84 105.54 243.81
  C 114.74 217.85 129.21 193.55 152.48 177.71
  Q 153.39 177.09 154.22 176.79
  A 1.26 1.23 -38.7 0 1 155.26 176.89
  L 161.14 180.34
  A 0.40 0.40 0.0 0 0 161.74 180.00
  L 161.75 173.46
  A 1.73 1.72 -12.9 0 1 162.73 171.91
  Q 168.44 169.18 174.80 167.27
  Q 175.24 167.14 175.28 167.83
  Z"
/>
<path fill="#1f71ba" d="
  M 186.57 179.53
  L 192.84 182.62
  C 197.35 188.53 198.66 194.57 193.84 201.27
  Q 188.76 205.45 183.22 202.62
  C 174.64 198.23 174.83 185.06 183.58 180.39
  Q 184.99 180.85 186.57 179.53
  Z
  M 186.7785 199.0214
  A 6.95 5.89 79.4 0 0 191.2895 191.1065
  A 6.95 5.89 79.4 0 0 184.2215 185.3586
  A 6.95 5.89 79.4 0 0 179.7105 193.2735
  A 6.95 5.89 79.4 0 0 186.7785 199.0214
  Z"
/>
<ellipse fill="#35aae0" cx="0.00" cy="0.00" transform="translate(185.50,192.19) rotate(79.4)" rx="6.95" ry="5.89"/>
<path fill="#8cb7e2" d="
  M 262.57 202.26
  L 268.56 192.70
  A 0.38 0.38 0.0 0 1 269.19 192.67
  L 276.26 202.41
  A 0.38 0.38 0.0 0 1 275.95 203.01
  L 262.89 202.84
  A 0.38 0.38 0.0 0 1 262.57 202.26
  Z
  M 263.82 201.80
  A 0.32 0.32 0.0 0 0 264.09 202.29
  L 274.22 202.10
  A 0.32 0.32 0.0 0 0 274.47 201.59
  L 269.27 194.09
  A 0.32 0.32 0.0 0 0 268.73 194.10
  L 263.82 201.80
  Z"
/>
<path fill="#cee8ff" d="
  M 263.82 201.80
  L 268.73 194.10
  A 0.32 0.32 0.0 0 1 269.27 194.09
  L 274.47 201.59
  A 0.32 0.32 0.0 0 1 274.22 202.10
  L 264.09 202.29
  A 0.32 0.32 0.0 0 1 263.82 201.80
  Z"
/>
<path fill="#8cb7e2" d="
  M 373.94 199.94
  C 376.12 199.74 380.23 202.22 382.42 203.11
  Q 382.87 203.30 382.56 204.23
  C 380.83 205.84 377.65 209.46 375.03 207.17
  C 373.29 205.66 373.69 202.10 373.94 199.94
  Z"
/>
<path fill="#feabb5" d="
  M 219.97 215.24
  Q 223.88 216.90 225.29 218.89
  Q 226.02 222.99 227.94 226.82
  C 230.11 231.15 226.25 233.40 222.37 233.05
  Q 220.38 232.87 218.43 232.25
  Q 217.95 232.09 217.53 232.39
  C 216.67 233.00 215.80 233.94 214.96 234.35
  Q 207.55 237.98 203.91 230.32
  Q 201.16 224.52 198.29 220.25
  Q 199.17 219.43 199.51 218.47
  L 202.34 215.85
  L 216.86 230.72
  A 0.95 0.95 0.0 0 0 218.46 230.29
  Q 220.37 222.99 219.97 215.24
  Z"
/>
<path fill="#8cb7e2" d="
  M 57.19 216.23
  C 67.90 216.57 76.79 220.07 81.76 229.49
  C 91.65 248.27 75.78 269.61 55.05 266.17
  Q 37.95 261.82 34.71 244.52
  Q 34.06 241.06 35.13 236.79
  Q 39.54 219.16 57.19 216.23
  Z
  M 56.99 217.48
  C 53.93 217.62 49.31 219.28 46.57 221.11
  C 28.45 233.20 33.38 259.21 53.99 264.99
  Q 55.08 265.30 55.17 264.54
  Q 55.22 264.66 55.27 264.80
  Q 55.35 265.05 55.60 265.08
  C 79.53 268.60 93.59 240.65 76.13 223.62
  Q 68.50 216.18 56.99 217.48
  Z"
/>
<path fill="#ffffff" d="
  M 292.20 248.95
  L 280.76 248.96
  A 3.22 3.20 5.5 0 0 277.62 251.54
  L 271.94 279.91
  Q 258.57 285.28 252.56 274.01
  L 265.74 257.41
  L 287.03 230.32
  Q 287.34 229.93 287.38 229.43
  C 287.74 224.87 289.30 219.80 292.78 217.05
  Q 295.20 215.15 294.12 218.03
  Q 293.39 220.01 292.35 221.87
  A 0.40 0.40 0.0 0 0 292.78 222.45
  C 297.01 221.50 302.04 217.42 304.47 216.29
  Q 305.63 215.75 306.58 216.42
  Q 307.09 216.78 306.62 217.20
  L 305.05 218.60
  Q 304.30 219.26 305.24 218.90
  L 307.69 217.93
  A 1.10 1.10 0.0 0 1 308.85 218.15
  Q 309.69 218.95 308.37 219.57
  Q 307.40 220.03 306.75 220.85
  Q 306.30 221.42 306.99 221.19
  L 308.98 220.52
  Q 309.51 220.34 309.91 220.75
  Q 310.74 221.58 309.86 222.12
  Q 308.86 222.73 307.96 223.50
  A 0.33 0.33 0.0 0 0 308.22 224.08
  L 309.21 223.97
  A 0.48 0.47 -85.4 0 1 309.72 224.57
  Q 309.53 225.22 308.77 225.78
  Q 299.77 232.37 297.40 235.66
  Q 295.14 238.81 292.20 248.95
  Z"
/>
<path fill="#cee8ff" d="
  M 55.17 264.54
  L 55.27 260.65
  Q 55.53 260.45 55.94 260.43
  C 66.59 262.21 77.02 255.46 78.70 244.75
  C 80.79 231.35 70.28 221.00 56.96 222.24
  Q 56.29 222.36 56.21 221.70
  Q 56.97 220.06 56.99 217.48
  Q 68.50 216.18 76.13 223.62
  C 93.59 240.65 79.53 268.60 55.60 265.08
  Q 55.35 265.05 55.27 264.80
  Q 55.22 264.66 55.17 264.54
  Z"
/>
<path fill="#1f71ba" d="
  M 199.51 218.47
  Q 199.17 219.43 198.29 220.25
  Q 186.28 224.20 174.42 228.58
  Q 171.36 229.71 169.86 232.36
  C 163.08 244.30 157.43 257.65 151.81 270.62
  L 145.99 225.40
  L 199.51 218.47
  Z"
/>
<path fill="#ff6a76" d="
  M 225.29 218.89
  Q 234.92 220.17 243.50 221.32
  C 248.89 222.05 253.65 231.06 256.71 237.06
  Q 261.81 247.08 265.74 257.41
  L 252.56 274.01
  L 251.20 272.38
  C 251.83 272.02 252.38 271.48 252.57 270.74
  Q 257.98 249.26 245.24 232.01
  Q 243.38 229.49 244.18 232.52
  C 246.90 242.85 249.14 255.76 247.32 266.82
  Q 245.72 270.92 243.41 274.58
  Q 242.30 276.35 242.13 278.24
  Q 240.95 291.48 239.70 305.18
  L 183.28 305.15
  L 182.04 304.38
  Q 182.96 290.93 184.00 277.70
  C 184.34 273.37 183.00 270.13 181.66 266.21
  Q 181.42 265.53 181.06 266.16
  Q 173.18 279.72 162.74 291.80
  Q 155.44 286.88 145.45 286.30
  L 151.81 270.62
  C 157.43 257.65 163.08 244.30 169.86 232.36
  Q 171.36 229.71 174.42 228.58
  Q 186.28 224.20 198.29 220.25
  Q 201.16 224.52 203.91 230.32
  Q 207.55 237.98 214.96 234.35
  C 215.80 233.94 216.67 233.00 217.53 232.39
  Q 217.95 232.09 218.43 232.25
  Q 220.38 232.87 222.37 233.05
  C 226.25 233.40 230.11 231.15 227.94 226.82
  Q 226.02 222.99 225.29 218.89
  Z
  M 180.02 232.70
  Q 178.66 231.19 179.27 233.13
  C 182.42 243.03 183.58 252.24 182.19 263.03
  Q 182.09 263.82 182.58 263.20
  C 189.97 253.85 187.58 241.13 180.02 232.70
  Z
  M 241.28 262.83
  L 204.94 266.28
  Q 201.86 266.57 204.67 267.87
  C 215.49 272.89 232.55 273.03 241.65 263.59
  A 0.45 0.45 0.0 0 0 241.28 262.83
  Z"
/>
<path fill="#8cb7e2" d="
  M 379.87 229.19
  A 9.41 9.41 0.0 0 1 370.46 238.60
  A 9.41 9.41 0.0 0 1 361.05 229.19
  A 9.41 9.41 0.0 0 1 370.46 219.78
  A 9.41 9.41 0.0 0 1 379.87 229.19
  Z
  M 378.90 229.28
  A 8.52 8.52 0.0 0 0 370.38 220.76
  A 8.52 8.52 0.0 0 0 361.86 229.28
  A 8.52 8.52 0.0 0 0 370.38 237.80
  A 8.52 8.52 0.0 0 0 378.90 229.28
  Z"
/>
<circle fill="#cee8ff" cx="370.38" cy="229.28" r="8.52"/>
<path fill="#abc4e2" d="
  M 56.21 221.70
  Q 56.29 222.36 56.96 222.24
  Q 56.39 223.34 56.30 224.50
  Q 54.95 241.85 54.94 259.25
  Q 54.94 260.43 55.94 260.43
  Q 55.53 260.45 55.27 260.65
  C 53.75 259.51 51.76 259.06 50.41 258.29
  C 35.61 249.80 37.72 228.08 53.97 222.87
  Q 55.70 222.32 56.21 221.70
  Z"
/>
<path fill="#8cb7e2" d="
  M 55.94 260.43
  Q 54.94 260.43 54.94 259.25
  Q 54.95 241.85 56.30 224.50
  Q 56.39 223.34 56.96 222.24
  C 70.28 221.00 80.79 231.35 78.70 244.75
  C 77.02 255.46 66.59 262.21 55.94 260.43
  Z"
/>
<path fill="#115c96" d="
  M 145.99 225.40
  L 151.81 270.62
  L 145.45 286.30
  Q 140.90 297.84 150.52 304.90
  L 136.16 305.07
  Q 132.63 275.35 129.14 245.84
  Q 128.27 238.49 129.38 235.22
  C 131.90 227.79 138.23 226.05 145.99 225.40
  Z"
/>
<path fill="#e25f6d" d="
  M 251.20 272.38
  L 247.32 266.82
  C 249.14 255.76 246.90 242.85 244.18 232.52
  Q 243.38 229.49 245.24 232.01
  Q 257.98 249.26 252.57 270.74
  C 252.38 271.48 251.83 272.02 251.20 272.38
  Z"
/>
<path fill="#abc4e2" d="
  M 430.46 276.22
  Q 430.39 275.99 430.00 275.80
  Q 430.98 274.73 430.98 274.25
  Q 431.00 270.83 430.39 269.01
  Q 440.90 265.03 441.62 255.10
  C 442.41 244.26 434.19 236.91 423.43 237.89
  L 420.54 232.14
  Q 423.75 230.69 427.74 231.22
  C 452.67 234.54 456.43 267.98 431.93 275.15
  C 431.24 275.35 430.93 275.72 430.46 276.22
  Z"
/>
<path fill="#8cb7e2" d="
  M 419.24 231.54
  Q 419.97 232.01 420.54 232.14
  L 423.43 237.89
  C 402.56 242.30 407.77 272.85 430.39 269.01
  Q 431.00 270.83 430.98 274.25
  Q 430.98 274.73 430.00 275.80
  C 402.55 280.18 392.75 242.27 418.98 232.13
  Q 419.50 231.93 419.24 231.54
  Z"
/>
<path fill="#e25f6d" d="
  M 180.02 232.70
  C 187.58 241.13 189.97 253.85 182.58 263.20
  Q 182.09 263.82 182.19 263.03
  C 183.58 252.24 182.42 243.03 179.27 233.13
  Q 178.66 231.19 180.02 232.70
  Z"
/>
<path fill="#cee8ff" d="
  M 430.39 269.01
  C 407.77 272.85 402.56 242.30 423.43 237.89
  C 434.19 236.91 442.41 244.26 441.62 255.10
  Q 440.90 265.03 430.39 269.01
  Z
  M 424.03 238.60
  C 402.00 242.69 410.16 274.47 431.03 268.03
  C 444.11 262.87 444.89 245.69 431.98 239.70
  Q 427.97 237.84 424.03 238.60
  Z"
/>
<path fill="#abc4e2" d="
  M 431.03 268.03
  Q 430.14 257.40 428.70 251.24
  Q 427.48 246.02 424.03 238.60
  Q 427.97 237.84 431.98 239.70
  C 444.89 245.69 444.11 262.87 431.03 268.03
  Z"
/>
<path fill="#8cb7e2" d="
  M 424.03 238.60
  Q 427.48 246.02 428.70 251.24
  Q 430.14 257.40 431.03 268.03
  C 410.16 274.47 402.00 242.69 424.03 238.60
  Z"
/>
<path fill="#1f71ba" d="
  M 382.83 305.23
  L 378.07 329.13
  Q 377.97 329.65 377.48 329.83
  Q 376.50 330.18 375.27 329.78
  Q 376.82 330.14 376.44 328.77
  A 1.18 1.17 11.9 0 0 376.04 328.16
  L 342.87 301.02
  C 354.19 290.40 336.56 276.36 328.67 289.32
  L 285.50 254.25
  A 0.77 0.76 -65.6 0 0 284.26 254.72
  L 271.53 329.77
  L 262.13 329.77
  L 265.29 314.03
  L 266.91 305.21
  L 271.94 279.91
  L 277.62 251.54
  A 3.22 3.20 5.5 0 1 280.76 248.96
  L 292.20 248.95
  L 391.69 248.95
  A 1.95 1.95 0.0 0 1 393.60 251.28
  L 382.83 305.23
  Z"
/>
<path fill="#115c96" d="
  M 328.67 289.32
  Q 326.08 295.48 330.20 299.80
  Q 335.69 305.56 342.87 301.02
  L 376.04 328.16
  A 1.18 1.17 11.9 0 1 376.44 328.77
  Q 376.82 330.14 375.27 329.78
  L 271.53 329.77
  L 284.26 254.72
  A 0.77 0.76 -65.6 0 1 285.50 254.25
  L 328.67 289.32
  Z"
/>
<path fill="#e25f6d" d="
  M 204.94 266.28
  L 241.28 262.83
  A 0.45 0.45 0.0 0 1 241.65 263.59
  C 232.55 273.03 215.49 272.89 204.67 267.87
  Q 201.86 266.57 204.94 266.28
  Z"
/>
<path fill="#1f71ba" d="
  M 182.04 304.38
  L 162.74 291.80
  Q 173.18 279.72 181.06 266.16
  Q 181.42 265.53 181.66 266.21
  C 183.00 270.13 184.34 273.37 184.00 277.70
  Q 182.96 290.93 182.04 304.38
  Z"
/>
<path fill="#cee8ff" d="
  M 247.32 266.82
  L 251.20 272.38
  L 252.56 274.01
  Q 258.57 285.28 271.94 279.91
  L 266.91 305.21
  L 239.70 305.18
  Q 240.95 291.48 242.13 278.24
  Q 242.30 276.35 243.41 274.58
  Q 245.72 270.92 247.32 266.82
  Z"
/>
<path fill="#e25f6d" d="
  M 121.53 312.62
  Q 121.64 313.78 122.75 313.85
  C 127.08 314.13 143.49 299.83 146.07 309.01
  Q 147.64 314.57 143.91 319.93
  Q 139.38 326.46 134.76 333.02
  C 131.94 337.08 126.45 345.56 127.49 350.50
  C 128.62 355.85 134.83 353.50 137.21 351.20
  Q 142.23 346.37 147.32 344.06
  Q 153.51 342.01 156.69 346.07
  C 159.33 353.26 156.30 363.32 153.73 370.10
  Q 149.06 383.52 140.01 393.78
  C 133.70 399.85 127.28 404.17 118.36 405.14
  A 0.93 0.92 -4.0 0 0 117.53 406.09
  L 117.70 411.23
  Q 117.54 411.29 117.21 411.29
  L 116.60 406.20
  A 0.92 0.90 88.4 0 0 115.76 405.39
  Q 110.38 405.01 105.91 401.14
  Q 109.86 394.17 111.84 386.21
  C 113.27 380.46 115.02 375.30 114.49 369.24
  C 114.16 365.38 111.38 358.55 107.24 357.17
  C 102.09 355.44 98.14 364.26 97.09 368.21
  C 96.52 370.37 95.61 372.46 94.02 373.58
  C 90.00 376.42 88.00 369.97 87.62 366.88
  C 87.03 362.19 87.27 356.90 87.88 351.25
  Q 88.34 346.99 88.54 342.46
  L 101.62 351.70
  A 1.19 1.19 0.0 0 0 103.44 351.10
  C 104.60 347.56 100.47 340.86 98.60 337.90
  C 95.30 332.66 76.87 307.09 86.99 302.92
  C 89.56 301.86 91.87 303.38 93.39 305.37
  C 96.69 309.68 99.64 314.80 104.74 317.34
  A 2.12 2.12 0.0 0 0 107.58 316.39
  C 109.08 313.40 107.63 306.87 107.41 303.52
  C 106.87 295.15 106.27 288.93 110.30 283.09
  C 113.47 278.49 121.47 273.96 124.30 281.50
  C 127.00 288.70 123.85 300.88 121.80 308.25
  Q 121.17 310.51 121.53 312.62
  Z"
/>
<path fill="#8ed7f8" d="
  M 342.87 301.02
  Q 335.69 305.56 330.20 299.80
  Q 326.08 295.48 328.67 289.32
  C 336.56 276.36 354.19 290.40 342.87 301.02
  Z"
/>
<path fill="#ffffff" d="
  M 145.45 286.30
  Q 155.44 286.88 162.74 291.80
  L 182.04 304.38
  L 183.28 305.15
  L 191.52 310.50
  A 1.59 1.58 -29.7 0 0 192.44 310.75
  C 197.31 310.51 205.59 309.25 209.88 311.45
  Q 214.06 313.59 216.48 317.80
  L 216.52 318.71
  Q 216.54 319.25 216.00 319.27
  C 213.82 319.36 209.74 316.15 207.91 314.85
  Q 207.68 314.68 207.56 314.95
  L 207.44 315.25
  Q 207.42 315.31 207.47 315.35
  C 209.48 316.78 213.80 319.24 214.80 321.42
  A 0.87 0.87 0.0 0 1 213.75 322.61
  Q 209.39 321.25 205.63 318.61
  Q 205.57 318.57 205.53 318.63
  L 205.39 318.85
  Q 205.32 318.96 205.43 319.04
  L 211.63 323.78
  A 0.74 0.74 0.0 0 1 211.26 325.10
  C 208.96 325.34 205.65 323.41 203.66 322.26
  A 0.29 0.28 -57.8 0 0 203.29 322.35
  L 203.15 322.55
  Q 203.12 322.60 203.16 322.63
  Q 204.62 323.80 206.23 324.76
  Q 207.90 325.75 207.56 327.28
  Q 201.10 325.04 194.35 324.20
  C 191.51 323.85 187.26 321.19 184.40 320.13
  C 172.91 315.87 161.06 311.21 150.52 304.90
  Q 140.90 297.84 145.45 286.30
  Z"
/>
<path fill="#35aae0" d="
  M 150.52 304.90
  C 161.06 311.21 172.91 315.87 184.40 320.13
  C 187.26 321.19 191.51 323.85 194.35 324.20
  Q 201.10 325.04 207.56 327.28
  Q 213.32 327.65 218.00 326.53
  C 220.78 325.86 221.51 324.37 220.15 321.80
  Q 218.48 318.66 216.48 317.80
  Q 214.06 313.59 209.88 311.45
  C 205.59 309.25 197.31 310.51 192.44 310.75
  A 1.59 1.58 -29.7 0 1 191.52 310.50
  L 183.28 305.15
  L 239.70 305.18
  L 266.91 305.21
  L 265.29 314.03
  Q 248.55 314.03 232.00 313.84
  C 227.53 313.79 226.98 318.41 231.54 319.88
  Q 246.83 324.83 262.13 329.77
  L 271.53 329.77
  L 375.27 329.78
  Q 376.50 330.18 377.48 329.83
  Q 377.97 329.65 378.07 329.13
  L 382.83 305.23
  C 398.38 305.09 409.96 303.93 422.32 314.43
  Q 422.91 314.93 423.14 314.44
  Q 423.27 315.43 424.07 316.19
  Q 430.98 322.78 438.04 329.23
  C 444.80 335.40 439.71 346.12 431.00 346.03
  Q 418.14 345.90 405.15 346.10
  L 156.69 346.07
  Q 153.51 342.01 147.32 344.06
  C 142.53 340.71 139.11 338.82 134.76 333.02
  Q 139.38 326.46 143.91 319.93
  Q 147.64 314.57 146.07 309.01
  C 143.49 299.83 127.08 314.13 122.75 313.85
  Q 121.64 313.78 121.53 312.62
  Q 124.23 305.29 131.25 305.24
  Q 134.83 305.21 136.16 305.07
  L 150.52 304.90
  Z"
/>
<path fill="#abc4e2" d="
  M 58.92 311.92
  Q 58.96 311.96 59.00 312.01
  Q 58.87 312.19 58.96 312.46
  Q 58.71 312.30 58.53 312.53
  Q 58.23 312.93 58.52 313.44
  C 58.16 313.45 57.90 313.49 57.60 313.73
  C 55.59 315.33 53.23 316.21 51.45 317.78
  Q 38.23 329.46 34.78 346.99
  Q 34.00 350.97 35.06 360.73
  Q 36.33 372.36 43.37 381.70
  Q 46.62 386.01 50.19 390.03
  Q 50.28 390.14 50.18 390.23
  L 50.18 390.24
  Q 50.08 390.33 49.98 390.23
  C 48.60 388.90 46.99 387.78 45.81 386.40
  C 40.23 379.89 35.46 371.16 34.27 362.57
  C 34.06 361.03 33.56 359.60 33.46 358.13
  C 32.44 342.65 38.97 327.38 50.57 317.26
  C 52.91 315.21 56.17 313.95 58.92 311.92
  Z"
/>
<path fill="#01466f" d="
  M 265.29 314.03
  L 262.13 329.77
  Q 246.83 324.83 231.54 319.88
  C 226.98 318.41 227.53 313.79 232.00 313.84
  Q 248.55 314.03 265.29 314.03
  Z"
/>
<path fill="#01466f" d="
  M 216.48 317.80
  Q 218.48 318.66 220.15 321.80
  C 221.51 324.37 220.78 325.86 218.00 326.53
  Q 213.32 327.65 207.56 327.28
  Q 207.90 325.75 206.23 324.76
  Q 204.62 323.80 203.16 322.63
  Q 203.12 322.60 203.15 322.55
  L 203.29 322.35
  A 0.29 0.28 -57.8 0 1 203.66 322.26
  C 205.65 323.41 208.96 325.34 211.26 325.10
  A 0.74 0.74 0.0 0 0 211.63 323.78
  L 205.43 319.04
  Q 205.32 318.96 205.39 318.85
  L 205.53 318.63
  Q 205.57 318.57 205.63 318.61
  Q 209.39 321.25 213.75 322.61
  A 0.87 0.87 0.0 0 0 214.80 321.42
  C 213.80 319.24 209.48 316.78 207.47 315.35
  Q 207.42 315.31 207.44 315.25
  L 207.56 314.95
  Q 207.68 314.68 207.91 314.85
  C 209.74 316.15 213.82 319.36 216.00 319.27
  Q 216.54 319.25 216.52 318.71
  L 216.48 317.80
  Z"
/>
<path fill="#ff6a76" d="
  M 72.60 346.94
  Q 76.21 341.14 78.44 337.96
  Q 79.67 336.22 81.79 335.10
  A 1.43 1.40 -52.1 0 1 82.75 334.97
  Q 85.79 335.64 86.99 338.72
  Q 87.88 340.98 88.54 342.46
  Q 88.34 346.99 87.88 351.25
  C 87.27 356.90 87.03 362.19 87.62 366.88
  C 88.00 369.97 90.00 376.42 94.02 373.58
  C 95.61 372.46 96.52 370.37 97.09 368.21
  C 98.14 364.26 102.09 355.44 107.24 357.17
  C 111.38 358.55 114.16 365.38 114.49 369.24
  C 115.02 375.30 113.27 380.46 111.84 386.21
  Q 109.86 394.17 105.91 401.14
  L 99.21 406.22
  A 1.14 1.14 0.0 0 0 98.87 407.65
  L 100.29 410.55
  Q 100.02 410.95 99.96 411.77
  L 97.72 407.12
  Q 97.65 406.98 97.50 407.03
  Q 92.13 409.02 88.77 408.55
  Q 68.34 405.71 52.69 392.39
  Q 52.64 392.35 52.69 392.30
  Q 52.78 392.23 52.84 392.10
  Q 52.89 392.00 52.82 391.90
  C 48.54 385.91 52.97 383.45 59.00 384.13
  C 63.17 384.61 67.84 385.49 71.88 385.16
  A 1.74 1.74 0.0 0 0 72.96 382.18
  Q 69.98 379.24 66.31 377.39
  Q 57.95 373.16 49.68 368.78
  C 46.20 366.93 40.80 363.82 40.53 359.53
  C 40.30 355.79 43.14 355.20 46.13 356.03
  C 50.74 357.30 54.44 359.85 59.46 359.69
  A 1.96 1.96 0.0 0 0 61.29 357.21
  Q 60.80 355.42 59.51 353.74
  C 54.36 347.06 43.88 334.87 51.72 326.21
  Q 53.13 324.65 55.30 324.85
  C 62.19 325.47 66.91 342.14 68.31 347.72
  A 2.57 1.93 -9.7 0 0 71.00 349.10
  Q 71.88 348.98 72.60 346.94
  Z
  M 81.65 346.21
  A 0.17 0.17 0.0 0 0 81.44 346.34
  L 76.51 367.31
  A 0.17 0.17 0.0 0 1 76.19 367.35
  L 56.79 335.33
  A 0.17 0.17 0.0 0 0 56.55 335.27
  L 56.04 335.58
  A 0.17 0.17 0.0 0 0 55.99 335.81
  L 75.55 367.88
  A 0.17 0.17 0.0 0 1 75.38 368.13
  L 50.32 363.69
  A 0.17 0.17 0.0 0 0 50.12 363.83
  L 50.02 364.40
  A 0.17 0.17 0.0 0 0 50.16 364.60
  L 76.10 369.17
  A 0.17 0.17 0.0 0 1 76.22 369.25
  L 91.07 394.47
  A 0.17 0.17 0.0 0 0 91.31 394.54
  L 91.58 394.37
  A 0.17 0.17 0.0 0 0 91.65 394.14
  L 77.01 368.43
  A 0.17 0.17 0.0 0 1 77.00 368.30
  L 82.20 346.52
  A 0.17 0.17 0.0 0 0 82.07 346.31
  L 81.65 346.21
  Z
  M 103.9652 371.0365
  A 0.34 0.34 0.0 0 0 103.7968 370.5861
  L 103.7604 370.5695
  A 0.34 0.34 0.0 0 0 103.3100 370.7379
  L 92.8348 393.7235
  A 0.34 0.34 0.0 0 0 93.0032 394.1739
  L 93.0396 394.1905
  A 0.34 0.34 0.0 0 0 93.4900 394.0221
  L 103.9652 371.0365
  Z
  M 92.23 396.65
  L 96.19 403.80
  Q 96.21 403.84 96.25 403.81
  L 96.52 403.66
  Q 96.65 403.59 96.58 403.47
  L 93.12 397.05
  Q 92.87 396.60 92.82 396.08
  Q 92.78 395.60 92.97 395.20
  Q 93.35 394.44 92.55 394.72
  C 91.58 395.06 91.16 395.43 90.12 395.26
  Q 77.38 393.12 64.56 390.78
  A 0.25 0.24 9.3 0 0 64.27 390.98
  L 64.22 391.24
  A 0.34 0.34 0.0 0 0 64.49 391.63
  L 91.64 396.23
  Q 92.04 396.30 92.23 396.65
  Z"
/>
<path fill="#cee8ff" d="
  M 134.76 333.02
  C 139.11 338.82 142.53 340.71 147.32 344.06
  Q 142.23 346.37 137.21 351.20
  C 134.83 353.50 128.62 355.85 127.49 350.50
  C 126.45 345.56 131.94 337.08 134.76 333.02
  Z"
/>
<path fill="#e25f6d" d="
  M 81.65 346.21
  L 82.07 346.31
  A 0.17 0.17 0.0 0 1 82.20 346.52
  L 77.00 368.30
  A 0.17 0.17 0.0 0 0 77.01 368.43
  L 91.65 394.14
  A 0.17 0.17 0.0 0 1 91.58 394.37
  L 91.31 394.54
  A 0.17 0.17 0.0 0 1 91.07 394.47
  L 76.22 369.25
  A 0.17 0.17 0.0 0 0 76.10 369.17
  L 50.16 364.60
  A 0.17 0.17 0.0 0 1 50.02 364.40
  L 50.12 363.83
  A 0.17 0.17 0.0 0 1 50.32 363.69
  L 75.38 368.13
  A 0.17 0.17 0.0 0 0 75.55 367.88
  L 55.99 335.81
  A 0.17 0.17 0.0 0 1 56.04 335.58
  L 56.55 335.27
  A 0.17 0.17 0.0 0 1 56.79 335.33
  L 76.19 367.35
  A 0.17 0.17 0.0 0 0 76.51 367.31
  L 81.44 346.34
  A 0.17 0.17 0.0 0 1 81.65 346.21
  Z"
/>
<path fill="#6ac7e8" d="
  M 405.15 346.10
  L 398.62 354.17
  L 154.10 381.97
  L 153.73 370.10
  C 156.30 363.32 159.33 353.26 156.69 346.07
  L 405.15 346.10
  Z"
/>
<path fill="#8ed7f8" d="
  M 398.62 354.17
  C 397.47 355.94 395.62 357.54 396.26 359.64
  Q 396.20 359.67 396.13 359.70
  Q 395.51 358.66 394.35 359.87
  Q 376.68 378.30 354.50 391.02
  Q 351.08 392.98 349.56 393.60
  C 349.09 382.45 341.25 377.64 331.08 381.32
  C 303.93 362.63 270.78 387.94 280.49 419.16
  Q 280.63 419.61 280.97 419.92
  L 281.70 420.61
  Q 281.59 420.95 281.27 421.06
  Q 280.17 420.91 277.63 421.63
  Q 272.19 423.18 256.76 426.41
  Q 207.10 436.82 155.70 438.42
  Q 154.01 438.48 154.01 436.78
  L 153.99 400.65
  A 0.48 0.48 0.0 0 0 153.41 400.18
  L 132.54 404.66
  Q 132.37 404.69 132.38 404.50
  Q 132.38 404.48 132.38 404.46
  Q 132.39 404.44 132.39 404.44
  Q 142.84 401.66 153.40 399.34
  Q 153.97 399.22 153.97 398.63
  L 153.96 395.72
  L 154.10 381.97
  L 398.62 354.17
  Z"
/>
<path fill="#abc4e2" d="
  M 396.13 359.70
  Q 396.20 359.67 396.26 359.64
  Q 399.74 378.72 395.36 395.85
  C 390.72 413.99 374.82 421.33 357.26 421.01
  Q 348.89 420.85 342.95 420.08
  A 0.68 0.68 0.0 0 0 342.24 420.47
  C 335.04 436.38 317.87 445.00 300.98 439.15
  Q 287.53 434.48 281.72 421.53
  Q 281.60 421.27 281.27 421.06
  Q 281.59 420.95 281.70 420.61
  L 288.63 419.05
  C 288.18 421.64 289.27 422.98 291.94 422.99
  Q 312.36 423.03 331.95 422.98
  A 2.62 2.62 0.0 0 0 334.56 420.35
  L 334.49 404.50
  Q 339.39 404.73 344.44 402.67
  Q 345.37 410.80 342.97 418.51
  A 0.68 0.67 -78.3 0 0 343.54 419.38
  Q 347.39 419.79 351.50 420.17
  C 368.70 421.74 386.23 417.08 393.14 399.49
  C 395.71 392.95 396.60 386.73 397.06 379.43
  C 397.47 372.95 396.64 366.23 396.13 359.70
  Z
  M 341.9706 419.3968
  A 3.26 0.30 7.7 0 0 338.7802 418.6627
  A 3.26 0.30 7.7 0 0 335.5094 418.5232
  A 3.26 0.30 7.7 0 0 338.6998 419.2573
  A 3.26 0.30 7.7 0 0 341.9706 419.3968
  Z"
/>
<path fill="#abc4e2" d="
  M 416.02 370.42
  A 5.20 5.20 0.0 0 1 410.82 375.62
  A 5.20 5.20 0.0 0 1 405.62 370.42
  A 5.20 5.20 0.0 0 1 410.82 365.22
  A 5.20 5.20 0.0 0 1 416.02 370.42
  Z
  M 415.30 370.33
  A 4.48 4.48 0.0 0 0 410.82 365.85
  A 4.48 4.48 0.0 0 0 406.34 370.33
  A 4.48 4.48 0.0 0 0 410.82 374.81
  A 4.48 4.48 0.0 0 0 415.30 370.33
  Z"
/>
<path fill="#cee8ff" d="
  M 153.73 370.10
  L 154.10 381.97
  L 153.96 395.72
  L 140.01 393.78
  Q 149.06 383.52 153.73 370.10
  Z"
/>
<rect fill="#e25f6d" x="-0.36" y="-12.97" transform="translate(98.40,382.38) rotate(24.5)" width="0.72" height="25.94" rx="0.34"/>
<path fill="#35aae0" d="
  M 331.08 381.32
  Q 323.36 386.42 325.13 395.85
  L 290.42 395.79
  A 1.67 1.67 0.0 0 0 288.75 397.45
  L 288.63 419.05
  L 281.70 420.61
  L 280.97 419.92
  Q 280.63 419.61 280.49 419.16
  C 270.78 387.94 303.93 362.63 331.08 381.32
  Z"
/>
<path fill="#feabb5" d="
  M 349.56 393.60
  Q 348.30 398.04 347.01 399.52
  Q 345.48 401.28 344.44 402.67
  Q 339.39 404.73 334.49 404.50
  L 329.05 401.52
  L 327.53 400.48
  Q 326.75 397.82 325.13 395.85
  Q 323.36 386.42 331.08 381.32
  C 341.25 377.64 349.09 382.45 349.56 393.60
  Z"
/>
<path fill="#e25f6d" d="
  M 91.64 396.23
  L 64.49 391.63
  A 0.34 0.34 0.0 0 1 64.22 391.24
  L 64.27 390.98
  A 0.25 0.24 9.3 0 1 64.56 390.78
  Q 77.38 393.12 90.12 395.26
  C 91.16 395.43 91.58 395.06 92.55 394.72
  Q 93.35 394.44 92.97 395.20
  Q 92.78 395.60 92.82 396.08
  Q 92.87 396.60 93.12 397.05
  L 96.58 403.47
  Q 96.65 403.59 96.52 403.66
  L 96.25 403.81
  Q 96.21 403.84 96.19 403.80
  L 92.23 396.65
  Q 92.04 396.30 91.64 396.23
  Z"
/>
<path fill="#35aae0" d="
  M 327.53 400.48
  L 329.05 401.52
  L 313.41 411.26
  Q 312.98 411.53 312.50 411.36
  Q 310.47 410.64 308.66 409.61
  Q 299.34 404.29 289.64 398.96
  A 0.52 0.51 -62.2 0 1 289.43 398.27
  L 289.58 397.97
  A 0.79 0.79 0.0 0 1 290.67 397.63
  L 312.54 409.86
  Q 312.94 410.09 313.32 409.84
  L 327.53 400.48
  Z"
/>
<path fill="#1f71ba" d="
  M 100.29 410.55
  L 100.78 411.54
  Q 101.01 412.03 101.56 412.03
  L 116.46 412.04
  A 0.73 0.71 21.3 0 0 116.98 411.82
  Q 117.32 411.47 117.21 411.29
  Q 117.54 411.29 117.70 411.23
  Q 117.66 412.00 118.25 411.99
  Q 128.85 411.87 140.11 412.15
  A 2.69 2.69 0.0 0 1 142.73 414.88
  L 142.68 418.11
  A 2.86 2.84 88.2 0 1 140.07 420.90
  Q 137.39 421.12 137.78 421.30
  L 92.92 421.21
  L 90.44 420.89
  Q 89.90 420.82 89.53 420.44
  C 87.71 418.58 87.36 414.70 89.43 412.87
  Q 90.37 412.04 92.76 412.06
  Q 96.31 412.08 99.96 411.77
  Q 100.02 410.95 100.29 410.55
  Z"
/>
<ellipse fill="#35aae0" cx="0.00" cy="0.00" transform="translate(338.74,418.96) rotate(7.7)" rx="3.26" ry="0.30"/>
<path fill="#115c96" d="
  M 137.78 421.30
  L 134.84 437.86
  A 0.58 0.57 4.7 0 1 134.27 438.34
  L 97.49 438.38
  Q 96.43 438.38 96.22 437.34
  L 92.92 421.21
  L 137.78 421.30
  Z"
/>
</svg>
