<?xml version="1.0" encoding="UTF-8" standalone="no"?>
<!DOCTYPE svg PUBLIC "-//W3C//DTD SVG 1.1//EN" "http://www.w3.org/Graphics/SVG/1.1/DTD/svg11.dtd">
<svg xmlns="http://www.w3.org/2000/svg" version="1.1" viewBox="0.00 0.00 500.00 500.00">
<g stroke-width="2.00" fill="none" stroke-linecap="butt">
<path stroke="#0184ec" vector-effect="non-scaling-stroke" d="
  M 271.79 97.44
  Q 261.33 94.00 250.77 90.71
  C 248.68 90.06 244.88 87.51 241.69 87.63
  Q 240.41 87.67 241.52 88.31
  Q 244.32 89.91 247.72 91.26
  Q 257.74 95.25 267.59 99.62
  Q 270.14 100.75 268.53 102.38"
/>
<path stroke="#6a8aa7" vector-effect="non-scaling-stroke" d="
  M 221.37 171.94
  Q 220.83 176.94 220.00 183.14
  C 217.95 198.47 226.38 203.59 240.52 203.26"
/>
<path stroke="#ddc4bb" vector-effect="non-scaling-stroke" d="
  M 240.52 203.26
  Q 238.90 204.51 237.79 204.64
  A 0.72 0.72 0.0 0 0 237.20 205.58
  C 238.83 210.55 242.64 215.04 247.81 216.19
  C 254.14 217.61 259.76 213.50 261.13 207.09
  Q 261.18 206.87 261.40 206.81
  Q 261.52 206.78 261.67 206.77"
/>
<path stroke="#ddc4bb" vector-effect="non-scaling-stroke" d="
  M 262.21 206.78
  Q 262.44 207.18 262.36 207.48
  Q 260.13 216.22 251.86 217.53
  C 244.18 218.75 238.36 212.51 236.03 206.17
  A 0.51 0.50 66.2 0 0 235.33 205.89
  Q 231.46 207.91 227.42 209.92
  Q 226.21 210.52 226.64 211.97"
/>
<path stroke="#5ebff6" vector-effect="non-scaling-stroke" d="
  M 226.64 211.97
  L 226.14 211.24
  Q 225.84 210.82 225.38 211.06
  C 220.56 213.58 211.63 218.00 209.58 223.31
  Q 203.62 238.76 201.38 255.23"
/>
<path stroke="#ddc4bb" vector-effect="non-scaling-stroke" d="
  M 201.38 255.23
  L 199.88 264.19"
/>
<path stroke="#5ea7e9" vector-effect="non-scaling-stroke" d="
  M 199.88 264.19
  Q 190.14 247.30 180.73 230.35
  C 179.17 227.54 177.40 225.05 175.05 223.40
  Q 165.55 216.72 152.51 210.41
  Q 152.37 210.34 152.27 210.46
  Q 152.16 210.59 152.04 210.60"
/>
<path stroke="#ddf1f9" vector-effect="non-scaling-stroke" d="
  M 152.04 210.60
  L 142.06 204.38"
/>
<path stroke="#ddc4bb" vector-effect="non-scaling-stroke" d="
  M 142.06 204.38
  Q 142.37 202.48 141.55 199.96"
/>
<path stroke="#6a8aa7" vector-effect="non-scaling-stroke" d="
  M 141.55 199.96
  C 144.67 197.30 150.02 193.34 150.39 189.30
  Q 150.73 185.66 151.58 183.00"
/>
<path stroke="#d7aca6" vector-effect="non-scaling-stroke" d="
  M 151.58 183.00
  Q 160.33 180.88 159.04 170.82
  C 158.71 168.20 157.48 168.21 155.63 167.07"
/>
<path stroke="#6a8aa7" vector-effect="non-scaling-stroke" d="
  M 155.63 167.07
  Q 157.88 164.86 158.82 161.50
  C 160.01 157.28 158.89 155.89 155.93 153.21
  C 153.85 151.32 153.12 148.72 151.80 147.00
  Q 147.91 141.94 141.49 141.94
  A 1.59 1.50 -26.3 0 1 140.61 141.67
  C 136.82 139.05 132.15 133.44 128.45 132.48
  C 117.27 129.57 114.99 138.00 111.61 145.88
  C 110.63 148.15 108.29 148.36 107.40 150.53
  C 105.74 154.58 107.29 156.82 109.84 160.39
  Q 111.87 163.22 111.93 167.92"
/>
<path stroke="#d7aca6" vector-effect="non-scaling-stroke" d="
  M 111.93 167.92
  C 103.62 165.14 105.83 182.88 114.03 182.75"
/>
<path stroke="#6a8aa7" vector-effect="non-scaling-stroke" d="
  M 114.03 182.75
  Q 115.09 188.04 115.85 190.15
  C 117.53 194.86 122.39 195.67 124.79 200.27"
/>
<path stroke="#ddc4bb" vector-effect="non-scaling-stroke" d="
  M 124.79 200.27
  Q 124.11 201.96 124.35 204.17"
/>
<path stroke="#ddf1f9" vector-effect="non-scaling-stroke" d="
  M 124.35 204.17
  C 122.17 205.92 117.43 207.92 116.20 210.15"
/>
<path stroke="#5ea7e9" vector-effect="non-scaling-stroke" d="
  M 116.20 210.15
  L 116.00 209.92
  Q 115.73 209.63 115.38 209.81
  Q 106.42 214.36 96.59 220.59
  Q 91.24 223.97 88.56 229.49"
/>
<path stroke="#6c8ad4" vector-effect="non-scaling-stroke" d="
  M 88.56 229.49
  L 81.69 208.87
  A 3.32 3.32 0.0 0 1 81.69 206.77
  C 82.90 203.11 84.36 200.03 86.59 196.37
  C 88.28 193.61 98.92 176.39 91.24 176.07
  C 82.76 175.71 79.47 193.66 79.36 199.31
  Q 79.32 201.66 78.56 199.43
  C 76.47 193.21 74.26 187.43 74.06 180.09
  C 73.75 169.30 76.24 160.21 73.36 149.39"
/>
<path stroke="#5ebff6" vector-effect="non-scaling-stroke" d="
  M 290.43 223.48
  Q 289.96 223.70 290.20 224.34
  C 295.86 239.12 300.66 256.77 299.31 272.68"
/>
<path stroke="#80a1be" vector-effect="non-scaling-stroke" d="
  M 299.31 272.68
  C 298.47 281.60 295.51 286.08 286.46 287.79"
/>
<path stroke="#5ebff6" vector-effect="non-scaling-stroke" d="
  M 286.46 287.79
  Q 285.31 287.74 284.64 288.13
  A 0.84 0.84 0.0 0 0 284.23 288.87
  L 284.92 308.73"
/>
<path stroke="#0d67a9" vector-effect="non-scaling-stroke" d="
  M 284.92 308.73
  Q 275.71 309.02 266.83 308.39
  Q 265.84 308.32 264.67 308.44
  C 259.43 308.95 252.81 309.27 247.60 308.60
  C 246.10 308.40 244.13 308.74 243.21 308.74
  Q 229.19 308.75 214.94 308.88"
/>
<path stroke="#5ebff6" vector-effect="non-scaling-stroke" d="
  M 214.94 308.88
  L 215.59 293.32"
/>
<path stroke="#0184ec" vector-effect="non-scaling-stroke" d="
  M 215.59 293.32
  Q 216.09 290.81 215.41 288.31
  A 0.72 0.72 0.0 0 0 214.77 287.78
  Q 207.79 287.22 201.30 284.53
  A 0.94 0.93 -79.6 0 1 200.72 283.68
  L 200.24 267.16"
/>
<path stroke="#80a1be" vector-effect="non-scaling-stroke" d="
  M 200.24 267.16
  C 204.33 266.20 208.03 265.16 212.25 265.82
  C 217.77 266.68 222.72 268.18 228.61 268.61
  Q 229.09 268.64 229.39 268.28
  Q 231.83 265.33 229.68 262.09
  C 223.48 252.77 211.19 249.10 201.38 255.23"
/>
<path stroke="#80a1be" vector-effect="non-scaling-stroke" d="
  M 272.45 210.01
  C 267.81 220.12 258.14 227.60 246.45 225.32
  Q 233.51 222.81 226.64 211.97"
/>
<path stroke="#8c6c6f" vector-effect="non-scaling-stroke" d="
  M 259.24 202.60
  Q 258.00 201.91 258.64 198.43"
/>
<path stroke="#0c1e42" vector-effect="non-scaling-stroke" d="
  M 258.64 198.43
  Q 263.11 196.94 264.28 196.36
  C 270.02 193.54 272.64 185.57 272.75 179.18"
/>
<path stroke="#86535a" vector-effect="non-scaling-stroke" d="
  M 272.75 179.18
  Q 275.82 175.57 275.55 169.73
  A 4.28 4.28 0.0 0 0 273.45 166.23
  L 272.98 165.96
  A 1.06 1.05 -72.1 0 0 271.40 166.77
  Q 271.09 169.99 269.45 172.99"
/>
<path stroke="#8c6c6f" vector-effect="non-scaling-stroke" d="
  M 269.45 172.99
  Q 268.36 172.59 268.33 171.71
  Q 268.12 166.46 268.25 161.11
  Q 268.26 160.59 267.75 160.55
  L 265.88 160.42
  A 0.80 0.79 85.6 0 1 265.16 159.80
  L 264.11 155.43
  Q 263.51 152.95 263.25 155.49
  L 262.80 159.99
  Q 262.73 160.71 262.01 160.64
  L 254.50 159.98
  Q 253.36 159.88 253.07 158.76
  L 251.78 153.72
  Q 251.36 152.10 250.95 153.72
  Q 250.45 155.73 250.12 157.92
  C 249.62 161.24 242.75 160.52 240.79 160.10
  Q 240.28 159.99 240.20 159.47
  L 239.34 153.62
  Q 239.10 151.99 238.57 153.55
  L 236.49 159.59
  Q 236.32 160.09 235.81 160.21
  L 231.47 161.28
  Q 231.03 161.38 230.95 161.83
  Q 229.01 172.23 231.86 182.12"
/>
<path stroke="#0c1e42" vector-effect="non-scaling-stroke" d="
  M 231.86 182.12
  Q 230.59 182.28 230.68 183.25
  C 230.99 186.56 232.81 197.42 236.85 198.42
  Q 238.77 198.89 240.54 199.72
  A 0.39 0.39 0.0 0 0 241.08 199.47
  L 241.17 199.18"
/>
<path stroke="#8c6c6f" vector-effect="non-scaling-stroke" d="
  M 241.17 199.18
  Q 241.48 203.10 240.52 203.26"
/>
<path stroke="#ffd3c1" vector-effect="non-scaling-stroke" d="
  M 142.06 204.38
  C 138.59 208.95 134.49 212.91 128.51 209.17
  Q 125.55 207.32 124.35 204.17"
/>
<path stroke="#f98e6e" vector-effect="non-scaling-stroke" d="
  M 269.45 172.99
  L 268.88 179.52"
/>
<path stroke="#ffd3c1" vector-effect="non-scaling-stroke" d="
  M 268.88 179.52
  Q 268.54 180.30 267.90 180.85"
/>
<path stroke="#805957" vector-effect="non-scaling-stroke" d="
  M 267.90 180.85
  Q 265.39 189.28 258.85 194.85
  Q 258.46 195.19 258.49 195.71
  L 258.64 198.43"
/>
<path stroke="#f98e6e" vector-effect="non-scaling-stroke" d="
  M 241.17 199.18
  Q 249.15 201.27 256.85 197.41
  Q 257.51 197.08 257.50 196.35
  L 257.49 196.05
  A 0.31 0.31 0.0 0 0 257.06 195.77
  C 251.77 198.09 246.79 196.95 241.51 195.84"
/>
<path stroke="#805957" vector-effect="non-scaling-stroke" d="
  M 241.51 195.84
  Q 240.45 194.76 239.14 193.80
  C 235.25 190.93 233.01 186.90 231.86 182.12"
/>
<path stroke="#80b5ef" vector-effect="non-scaling-stroke" d="
  M 152.04 210.60
  C 148.84 228.07 145.56 245.11 146.36 263.00
  C 146.74 271.60 147.27 278.94 146.87 288.76
  C 146.45 298.89 145.04 309.35 143.90 319.60
  Q 143.02 327.53 143.49 332.00
  Q 145.89 354.76 142.92 377.59"
/>
<path stroke="#80b5ef" vector-effect="non-scaling-stroke" d="
  M 120.06 378.53
  Q 121.61 360.75 122.48 343.00
  C 123.20 328.38 122.15 318.84 119.98 303.00
  Q 117.26 283.12 120.05 263.25
  Q 121.51 252.83 120.22 240.75
  Q 118.21 222.04 116.20 210.15"
/>
<path stroke="#003b85" vector-effect="non-scaling-stroke" d="
  M 119.08 389.14
  L 93.16 385.41
  Q 92.63 385.34 92.49 385.85
  Q 92.08 387.38 92.50 388.80"
/>
<path stroke="#0c4e9d" vector-effect="non-scaling-stroke" d="
  M 92.50 388.80
  Q 92.08 398.68 93.06 407.91
  A 0.77 0.76 86.7 0 0 93.83 408.60
  L 129.51 408.36"
/>
<path stroke="#0c4e9d" vector-effect="non-scaling-stroke" d="
  M 138.26 408.29
  L 174.85 408.62"
/>
<path stroke="#5ea7e9" vector-effect="non-scaling-stroke" d="
  M 203.99 390.65
  Q 204.30 390.94 204.50 390.28
  Q 205.31 387.67 205.77 384.67"
/>
<path stroke="#0c4e9d" vector-effect="non-scaling-stroke" d="
  M 205.77 384.67
  Q 215.77 384.32 225.79 385.05
  C 229.91 385.34 233.74 384.88 237.78 384.59
  A 0.50 0.50 0.0 0 1 238.30 384.95
  Q 238.35 385.11 238.27 385.27"
/>
<path stroke="#003b85" vector-effect="non-scaling-stroke" d="
  M 238.27 385.27
  L 238.20 399.89"
/>
<path stroke="#0c4e9d" vector-effect="non-scaling-stroke" d="
  M 238.20 399.89
  L 227.10 400.25
  A 6.37 6.37 0.0 0 0 221.42 404.21
  L 221.21 404.73
  Q 219.68 408.48 223.73 408.48
  L 273.52 408.51
  Q 276.08 408.52 275.85 405.97
  L 275.64 403.66
  Q 275.39 400.92 272.65 400.71
  L 259.24 399.67"
/>
<path stroke="#003b85" vector-effect="non-scaling-stroke" d="
  M 259.24 399.67
  Q 260.16 392.71 259.34 385.73"
/>
<path stroke="#0c4e9d" vector-effect="non-scaling-stroke" d="
  M 259.34 385.73
  Q 259.40 384.69 260.38 384.70
  Q 277.09 384.81 293.64 384.56"
/>
<path stroke="#5ea7e9" vector-effect="non-scaling-stroke" d="
  M 293.64 384.56
  L 294.78 391.65"
/>
<path stroke="#0c4e9d" vector-effect="non-scaling-stroke" d="
  M 324.96 408.65
  L 353.93 408.52"
/>
<path stroke="#003b85" vector-effect="non-scaling-stroke" d="
  M 353.93 408.52
  Q 356.44 408.64 357.85 408.20"
/>
<path stroke="#0c4e9d" vector-effect="non-scaling-stroke" d="
  M 357.85 408.20
  Q 360.05 408.08 361.35 408.64"
/>
<path stroke="#0c4e9d" vector-effect="non-scaling-stroke" d="
  M 372.08 408.62
  L 376.06 408.28"
/>
<path stroke="#003b85" vector-effect="non-scaling-stroke" d="
  M 376.06 408.28
  L 379.31 408.50"
/>
<path stroke="#0c4e9d" vector-effect="non-scaling-stroke" d="
  M 379.31 408.50
  L 408.70 408.56"
/>
<path stroke="#0e4eca" vector-effect="non-scaling-stroke" d="
  M 425.84 408.48
  L 429.82 408.63"
/>
<path stroke="#0e4eca" vector-effect="non-scaling-stroke" d="
  M 456.01 416.61
  L 44.81 416.56"
/>
<path stroke="#8089b1" vector-effect="non-scaling-stroke" d="
  M 61.83 398.71
  Q 61.93 397.12 61.53 393.01
  Q 60.79 385.42 64.59 379.36
  Q 66.27 376.69 66.85 379.79
  Q 66.89 380.02 66.60 381.62
  C 66.17 383.99 65.31 389.50 66.54 391.57
  A 0.95 0.94 47.9 0 0 68.12 391.65
  Q 73.31 384.47 74.10 375.78"
/>
<path stroke="#0e4eca" vector-effect="non-scaling-stroke" d="
  M 74.10 375.78
  Q 74.15 374.65 74.29 374.58
  A 1.80 1.80 0.0 0 1 76.75 375.31
  C 78.71 379.02 79.46 381.43 80.38 386.08
  Q 82.75 398.06 91.05 407.40
  Q 91.21 407.58 91.43 407.49
  L 91.82 407.31
  A 0.26 0.26 0.0 0 0 91.93 406.92
  C 87.74 400.89 83.24 394.00 82.00 386.40
  C 81.04 380.49 79.52 373.81 73.97 370.54"
/>
<path stroke="#8089b1" vector-effect="non-scaling-stroke" d="
  M 73.97 370.54
  L 73.49 363.25"
/>
<path stroke="#0184ec" vector-effect="non-scaling-stroke" d="
  M 73.49 363.25
  Q 76.24 361.76 76.92 356.98
  A 0.39 0.38 2.5 0 0 76.52 356.55
  Q 68.95 356.88 61.52 355.42
  Q 60.51 355.22 60.57 356.26
  Q 60.83 360.16 62.08 362.03"
/>
<path stroke="#8089b1" vector-effect="non-scaling-stroke" d="
  M 62.08 362.03
  Q 62.59 363.96 62.18 364.89
  Q 59.30 371.45 56.64 378.49"
/>
<path stroke="#5ea7e9" vector-effect="non-scaling-stroke" d="
  M 85.24 238.16
  Q 85.98 237.08 85.71 236.37"
/>
<path stroke="#86535a" vector-effect="non-scaling-stroke" d="
  M 155.63 167.07
  Q 153.63 169.00 153.45 173.18
  C 153.30 176.82 152.09 179.46 151.58 183.00"
/>
<path stroke="#8c6c6f" vector-effect="non-scaling-stroke" d="
  M 141.55 199.96
  C 137.01 206.74 129.32 207.04 124.79 200.27"
/>
<path stroke="#86535a" vector-effect="non-scaling-stroke" d="
  M 114.03 182.75
  Q 112.17 175.16 111.93 167.92"
/>
<path stroke="#8089b1" vector-effect="non-scaling-stroke" d="
  M 199.88 264.19
  Q 200.97 263.19 200.24 267.16"
/>
<path stroke="#5ea7e9" vector-effect="non-scaling-stroke" d="
  M 215.59 293.32
  C 211.26 298.13 206.79 302.99 200.10 297.61
  C 192.74 291.70 187.29 284.08 182.69 276.32
  Q 182.04 275.22 182.06 276.50
  L 182.73 309.43"
/>
<path stroke="#0c4e9d" vector-effect="non-scaling-stroke" d="
  M 182.73 309.43
  Q 182.04 311.44 181.66 312.96
  Q 181.29 314.43 181.28 316.59
  Q 181.23 346.55 181.23 376.50
  Q 181.23 380.14 182.06 383.44"
/>
<path stroke="#5ea7e9" vector-effect="non-scaling-stroke" d="
  M 182.06 383.44
  Q 180.93 384.51 181.59 384.54"
/>
<path stroke="#003b85" vector-effect="non-scaling-stroke" d="
  M 174.93 385.27
  Q 158.69 388.83 141.69 389.37"
/>
<path stroke="#0e4eca" vector-effect="non-scaling-stroke" d="
  M 88.56 229.49
  L 85.71 236.37"
/>
<path stroke="#6c8ad4" vector-effect="non-scaling-stroke" d="
  M 85.71 236.37
  Q 75.05 227.46 61.98 223.60"
/>
<path stroke="#6c8ad4" vector-effect="non-scaling-stroke" d="
  M 60.33 206.05
  Q 75.28 215.63 84.68 230.27
  Q 85.76 231.95 85.13 230.05
  L 76.17 203.03
  A 4.50 4.50 0.0 0 0 74.92 201.10
  Q 69.08 195.76 60.92 193.08"
/>
<path stroke="#6c8ad4" vector-effect="non-scaling-stroke" d="
  M 63.09 184.42
  L 73.55 196.04
  Q 73.89 196.42 73.79 195.91
  Q 73.31 193.62 72.64 192.36
  Q 68.76 185.13 65.77 177.41"
/>
<path stroke="#ddc4bb" vector-effect="non-scaling-stroke" d="
  M 307.63 295.31
  Q 305.75 297.58 301.91 299.22
  C 299.37 300.30 297.21 300.34 295.05 298.71
  Q 289.69 294.68 286.15 288.98
  Q 285.72 288.31 286.46 287.79"
/>
<path stroke="#0c1e42" vector-effect="non-scaling-stroke" d="
  M 259.34 385.73
  L 259.26 385.13
  Q 259.17 384.50 258.54 384.50
  L 239.48 384.48
  Q 238.99 384.48 238.66 384.84
  L 238.27 385.27"
/>
<path stroke="#6a8aa7" vector-effect="non-scaling-stroke" d="
  M 205.77 384.67
  Q 196.40 384.80 187.06 384.74
  C 185.11 384.73 183.85 384.04 182.06 383.44"
/>
<path stroke="#d7aca6" vector-effect="non-scaling-stroke" d="
  M 303.94 265.31
  Q 303.47 266.67 302.51 267.88"
/>
<path stroke="#ddc4bb" vector-effect="non-scaling-stroke" d="
  M 302.51 267.88
  Q 301.78 271.29 299.31 272.68"
/>
<path stroke="#6a8aa7" vector-effect="non-scaling-stroke" d="
  M 214.94 308.88
  Q 198.71 308.26 182.73 309.43"
/>
<path stroke="#5ea7e9" vector-effect="non-scaling-stroke" d="
  M 322.13 296.21
  L 321.05 385.72"
/>
<path stroke="#6a8aa7" vector-effect="non-scaling-stroke" d="
  M 293.64 384.56
  Q 301.78 384.85 309.74 384.96
  Q 316.49 385.06 316.48 378.75
  Q 316.46 347.69 316.44 316.62
  C 316.44 312.05 315.70 308.78 310.50 308.79
  Q 297.55 308.82 284.92 308.73"
/>
<path stroke="#808595" vector-effect="non-scaling-stroke" d="
  M 267.90 180.85
  Q 268.47 181.32 268.91 181.69
  Q 269.57 182.23 270.07 182.08
  Q 270.96 181.82 271.27 180.18"
/>
<path stroke="#7a4042" vector-effect="non-scaling-stroke" d="
  M 241.51 195.84
  Q 241.07 197.25 241.17 199.18"
/>
<path stroke="#7a4042" vector-effect="non-scaling-stroke" d="
  M 272.75 179.18
  L 271.27 180.18"
/>
<path stroke="#f9baac" vector-effect="non-scaling-stroke" d="
  M 271.27 180.18
  Q 270.49 179.37 268.88 179.52"
/>
<path stroke="#0c1e42" vector-effect="non-scaling-stroke" d="
  M 129.06 396.21
  Q 110.43 393.92 92.50 388.80"
/>
<path stroke="#80a1be" vector-effect="non-scaling-stroke" d="
  M 73.49 363.25
  L 62.08 362.03"
/>
<path stroke="#5ebff6" vector-effect="non-scaling-stroke" d="
  M 65.20 230.13
  Q 67.79 231.33 74.01 232.51
  Q 79.37 233.52 85.24 238.16"
/>
<path stroke="#0184ec" vector-effect="non-scaling-stroke" d="
  M 85.24 238.16
  Q 79.75 251.34 75.54 265.30
  A 0.29 0.29 0.0 0 1 75.03 265.39
  Q 74.78 265.05 74.70 264.62
  Q 71.74 249.11 58.49 239.75
  A 0.73 0.72 -60.4 0 0 57.41 240.05
  L 57.29 240.30
  A 0.90 0.90 0.0 0 0 57.56 241.38
  C 69.67 250.73 75.70 263.73 71.25 279.01
  Q 63.03 307.24 61.06 335.70
  Q 61.06 335.80 60.96 335.80
  Q 60.91 335.80 60.87 335.79"
/>
<path stroke="#0d67a9" vector-effect="non-scaling-stroke" d="
  M 60.43 335.37
  Q 58.72 333.62 56.22 332.59"
/>
<path stroke="#5ebff6" vector-effect="non-scaling-stroke" d="
  M 56.22 332.59
  Q 56.38 332.63 56.51 332.47
  Q 56.72 332.23 56.49 332.01
  C 49.43 325.17 45.79 318.30 47.30 308.26
  Q 49.60 292.98 53.61 278.00"
/>
<path stroke="#0c1e42" vector-effect="non-scaling-stroke" d="
  M 361.90 400.23
  L 358.37 399.45
  Q 357.62 399.28 357.38 400.01
  Q 355.93 404.31 357.85 408.20"
/>
<path stroke="#0c1e42" vector-effect="non-scaling-stroke" d="
  M 353.93 408.52
  L 354.83 399.62
  A 0.61 0.59 -82.8 0 0 354.34 398.97
  L 325.93 393.88"
/>
<path stroke="#0c1e42" vector-effect="non-scaling-stroke" d="
  M 408.19 401.50
  Q 393.85 402.33 379.54 401.44
  Q 378.98 401.41 378.75 401.91
  C 377.79 403.95 379.12 406.33 379.31 408.50"
/>
<path stroke="#0c1e42" vector-effect="non-scaling-stroke" d="
  M 376.06 408.28
  L 376.14 402.61
  A 1.33 1.33 0.0 0 0 374.77 401.26
  L 371.94 401.34"
/>
<path stroke="#0c1e42" vector-effect="non-scaling-stroke" d="
  M 259.24 399.67
  Q 258.74 400.08 258.00 400.09
  Q 247.84 400.30 238.20 399.89"
/>
<path stroke="#8e6c9c" vector-effect="non-scaling-stroke" d="
  M 73.97 370.54
  L 74.10 375.78"
/>
<path stroke="#0c1e42" vector-effect="non-scaling-stroke" d="
  M 174.96 396.79
  L 138.43 397.48"
/>
<path stroke="#d7aca6" vector-effect="non-scaling-stroke" d="
  M 310.63 292.88
  Q 309.72 293.11 307.63 295.31"
/>
<path stroke="#f98e6e" vector-effect="non-scaling-stroke" d="
  M 307.63 295.31
  Q 304.08 281.72 302.51 267.88"
/>
<path stroke="#5ea7e9" vector-effect="non-scaling-stroke" d="
  M 422.29 241.99
  L 410.77 243.81
  A 0.54 0.54 0.0 0 0 410.31 244.37
  L 411.70 282.29"
/>
<path stroke="#145ccf" vector-effect="non-scaling-stroke" d="
  M 411.70 282.29
  L 411.62 283.16
  A 0.93 0.92 25.8 0 1 410.03 283.71
  L 401.93 275.24
  A 2.71 2.70 -46.0 0 0 397.96 275.31
  L 390.82 283.28
  A 1.83 1.83 0.0 0 1 388.17 283.36
  L 380.28 275.61
  Q 378.26 273.62 376.26 275.63
  L 368.36 283.61
  Q 367.24 284.74 366.13 283.59
  L 358.77 275.94
  Q 356.20 273.27 353.69 275.98
  L 346.87 283.35
  Q 345.52 284.81 344.10 283.42
  Q 340.20 279.59 336.38 275.87
  Q 333.50 273.06 331.12 276.14
  Q 327.24 281.14 322.56 284.44"
/>
<path stroke="#5ea7e9" vector-effect="non-scaling-stroke" d="
  M 322.56 284.44
  L 322.71 278.68
  Q 322.76 277.02 321.89 278.44
  L 312.02 294.57
  Q 311.32 295.72 311.00 294.42
  L 310.63 292.88"
/>
<path stroke="#7a709c" vector-effect="non-scaling-stroke" d="
  M 310.63 292.88
  L 303.94 265.31"
/>
<path stroke="#5ea7e9" vector-effect="non-scaling-stroke" d="
  M 303.94 265.31
  Q 303.35 263.48 304.67 261.43
  Q 314.66 245.80 324.60 230.12
  Q 327.32 225.82 330.33 223.18
  Q 334.19 219.80 338.71 216.87"
/>
<path stroke="#0e4eca" vector-effect="non-scaling-stroke" d="
  M 413.20 366.87
  Q 413.44 367.16 412.83 367.43"
/>
<path stroke="#003b85" vector-effect="non-scaling-stroke" d="
  M 407.45 387.53
  Q 389.30 391.79 371.12 392.37"
/>
<path stroke="#003b85" vector-effect="non-scaling-stroke" d="
  M 362.32 392.43
  Q 344.13 391.87 326.14 387.40"
/>
<path stroke="#145ccf" vector-effect="non-scaling-stroke" d="
  M 411.63 297.76
  Q 409.98 297.91 409.03 299.05
  Q 405.65 303.10 402.00 306.41
  A 2.51 2.50 47.4 0 1 398.48 306.26
  L 391.16 298.40
  A 2.37 2.36 45.2 0 0 387.71 298.38
  L 380.18 306.30
  A 2.30 2.29 43.7 0 1 376.92 306.37
  C 374.17 303.73 371.08 299.50 367.86 297.58
  A 0.99 0.98 -43.0 0 0 366.92 297.55
  C 364.15 298.93 360.35 303.75 358.09 306.19
  A 2.50 2.50 0.0 0 1 354.41 306.17
  Q 351.62 303.11 348.59 299.67
  C 346.97 297.83 345.12 296.57 343.00 298.74
  Q 339.28 302.57 335.90 306.39
  A 2.23 2.22 -46.6 0 1 332.65 306.49
  L 323.53 297.30
  A 0.18 0.18 0.0 0 0 323.27 297.30
  Q 323.15 297.42 322.99 297.36
  Q 322.34 297.15 322.28 296.89
  L 322.13 296.21"
/>
<path stroke="#7197d9" vector-effect="non-scaling-stroke" d="
  M 322.13 296.21
  L 322.56 284.44"
/>
<path stroke="#6a8aa7" vector-effect="non-scaling-stroke" d="
  M 56.22 332.59
  Q 55.66 332.52 55.50 332.78
  C 54.02 335.17 51.45 333.39 49.71 332.51"
/>
<path stroke="#5ebff6" vector-effect="non-scaling-stroke" d="
  M 459.68 276.95
  Q 457.10 290.79 445.66 300.67
  Q 445.18 301.09 445.46 301.34"
/>
<path stroke="#0f67d6" vector-effect="non-scaling-stroke" d="
  M 435.70 321.59
  Q 437.79 334.18 437.92 346.20"
/>
<path stroke="#0f67d6" vector-effect="non-scaling-stroke" d="
  M 427.71 360.31
  L 413.20 366.87"
/>
<path stroke="#0184ec" vector-effect="non-scaling-stroke" d="
  M 413.20 366.87
  Q 413.04 367.14 412.87 367.14
  Q 412.47 367.14 412.47 366.74
  L 412.40 345.86
  A 2.21 2.21 0.0 0 1 413.21 344.13
  C 420.58 337.96 422.33 326.07 423.10 317.15
  Q 423.63 310.91 424.43 308.73
  C 426.47 303.12 430.93 299.25 435.91 295.87
  Q 436.48 295.48 435.98 295.01
  L 435.71 294.76
  A 0.40 0.40 0.0 0 0 435.22 294.72
  C 429.06 298.78 423.80 303.98 422.36 311.52
  C 420.35 322.07 421.33 333.12 413.56 341.97
  Q 412.46 343.22 412.43 341.55
  Q 412.18 323.49 412.23 305.50
  Q 412.23 303.31 411.63 297.76"
/>
<path stroke="#1474db" vector-effect="non-scaling-stroke" d="
  M 411.63 297.76
  L 412.02 296.78"
/>
<path stroke="#8089b1" vector-effect="non-scaling-stroke" d="
  M 375.07 205.03
  C 369.39 212.22 363.80 214.61 357.18 206.29"
/>
<path stroke="#5ebff6" vector-effect="non-scaling-stroke" d="
  M 431.31 287.86
  Q 427.80 288.55 424.01 289.13
  Q 416.43 290.31 412.42 296.71
  Q 412.26 296.95 412.02 296.78"
/>
<path stroke="#7197d9" vector-effect="non-scaling-stroke" d="
  M 412.02 296.78
  L 411.70 282.29"
/>
<path stroke="#8089b1" vector-effect="non-scaling-stroke" d="
  M 444.24 229.29
  L 435.28 210.18"
/>
<path stroke="#805957" vector-effect="non-scaling-stroke" d="
  M 346.97 168.52
  Q 346.82 169.38 346.43 170.01
  Q 346.16 170.45 345.64 170.38
  L 345.00 170.28"
/>
<path stroke="#8c98ad" vector-effect="non-scaling-stroke" d="
  M 386.51 167.77
  Q 385.31 167.82 384.05 168.52"
/>
<path stroke="#ffd3c1" vector-effect="non-scaling-stroke" d="
  M 384.05 168.52
  Q 382.17 168.53 380.79 169.80
  Q 380.42 170.14 380.46 170.63
  C 381.40 181.07 367.11 181.42 367.46 171.24
  A 1.82 1.82 0.0 0 0 365.98 169.38
  L 365.10 169.22
  Q 363.46 168.92 363.18 170.56
  C 362.91 172.19 362.97 174.10 362.07 175.53
  C 358.84 180.70 350.44 179.50 350.12 172.49
  Q 350.06 171.24 350.02 169.94
  Q 350.00 169.43 349.56 169.16
  Q 348.36 168.41 346.97 168.52"
/>
<path stroke="#808595" vector-effect="non-scaling-stroke" d="
  M 346.97 168.52
  Q 345.90 167.88 344.47 167.95"
/>
<path stroke="#f9baac" vector-effect="non-scaling-stroke" d="
  M 342.92 166.93
  Q 342.94 166.84 342.96 166.75"
/>
<path stroke="#f98e6e" vector-effect="non-scaling-stroke" d="
  M 384.43 183.06
  Q 385.82 179.20 385.94 178.14
  Q 386.41 173.95 387.22 172.05
  Q 387.45 171.50 387.35 171.21
  Q 387.21 170.80 386.73 170.52"
/>
<path stroke="#86535a" vector-effect="non-scaling-stroke" d="
  M 387.07 167.89
  L 386.73 170.52"
/>
<path stroke="#8c6c6f" vector-effect="non-scaling-stroke" d="
  M 386.73 170.52
  Q 385.85 170.66 385.02 170.41
  Q 384.54 170.26 384.40 169.78
  L 384.05 168.52"
/>
<path stroke="#d7aca6" vector-effect="non-scaling-stroke" d="
  M 342.53 166.77
  Q 342.66 167.04 342.62 167.26
  Q 342.56 167.62 342.19 167.62
  L 341.76 167.62
  Q 341.24 167.62 340.95 168.06
  Q 337.97 172.46 340.18 178.13
  Q 341.94 182.66 346.12 183.15"
/>
<path stroke="#ddc4bb" vector-effect="non-scaling-stroke" d="
  M 346.12 183.15
  Q 348.98 190.76 356.21 197.52
  Q 357.77 198.98 356.71 201.00"
/>
<path stroke="#7a4042" vector-effect="non-scaling-stroke" d="
  M 344.47 167.95
  Q 344.38 169.13 345.00 170.28"
/>
<path stroke="#f98e6e" vector-effect="non-scaling-stroke" d="
  M 345.00 170.28
  Q 343.72 170.95 344.16 172.25
  C 345.29 175.63 345.39 178.39 346.19 181.52
  Q 346.59 183.08 346.12 183.15"
/>
<path stroke="#8c98ad" vector-effect="non-scaling-stroke" d="
  M 378.00 166.20
  Q 374.98 165.17 371.46 165.74"
/>
<path stroke="#8c98ad" vector-effect="non-scaling-stroke" d="
  M 357.63 165.60
  L 353.23 166.00"
/>
<path stroke="#8c98ad" vector-effect="non-scaling-stroke" d="
  M 387.71 166.43
  L 384.50 166.83"
/>
<path stroke="#8c6c6f" vector-effect="non-scaling-stroke" d="
  M 384.50 166.83
  Q 384.61 165.15 384.01 163.74
  Q 383.79 163.23 383.29 162.97
  L 381.13 161.85
  A 1.88 1.88 0.0 0 1 380.33 159.30
  L 382.21 155.71
  A 1.93 1.93 0.0 0 0 381.28 153.04
  Q 378.75 151.93 375.75 151.91
  C 367.28 151.87 358.47 151.32 350.05 152.27
  A 1.35 1.35 0.0 0 0 348.86 153.80
  Q 349.25 156.64 349.91 159.04
  C 350.43 160.95 347.89 164.63 347.17 166.55"
/>
<path stroke="#8c98ad" vector-effect="non-scaling-stroke" d="
  M 347.17 166.55
  Q 345.01 167.33 343.38 166.29"
/>
<path stroke="#ffd3c1" vector-effect="non-scaling-stroke" d="
  M 384.50 166.83
  L 380.31 168.37
  Q 379.89 168.53 379.55 168.24
  Q 378.54 167.39 378.00 166.20"
/>
<path stroke="#8c6c6f" vector-effect="non-scaling-stroke" d="
  M 378.00 166.20
  Q 379.51 166.14 378.85 164.27
  A 1.00 1.00 0.0 0 0 378.24 163.66
  Q 374.88 162.53 371.40 163.24
  Q 370.85 163.35 370.75 163.89
  Q 370.48 165.18 371.46 165.74"
/>
<path stroke="#ffd3c1" vector-effect="non-scaling-stroke" d="
  M 371.46 165.74
  L 368.37 168.51
  Q 367.94 168.89 367.41 168.67
  Q 365.07 167.67 362.75 168.69
  A 0.75 0.75 0.0 0 1 361.85 168.44
  Q 359.93 165.83 357.63 165.60"
/>
<path stroke="#8c6c6f" vector-effect="non-scaling-stroke" d="
  M 357.63 165.60
  L 359.09 165.61
  Q 359.72 165.61 359.74 164.98
  L 359.77 164.00
  Q 359.79 163.38 359.18 163.25
  Q 355.18 162.40 352.19 163.65
  Q 351.14 164.09 351.48 165.36
  Q 351.60 165.84 352.10 165.89
  L 353.23 166.00"
/>
<path stroke="#ffd3c1" vector-effect="non-scaling-stroke" d="
  M 353.23 166.00
  Q 352.33 167.28 350.99 168.10
  Q 350.56 168.36 350.12 168.13
  L 347.17 166.55"
/>
<path stroke="#f98e6e" vector-effect="non-scaling-stroke" d="
  M 451.4733 211.6720
  A 0.43 0.43 0.0 0 0 451.3210 211.0833
  L 445.6859 207.7640
  A 0.43 0.43 0.0 0 0 445.0972 207.9163
  L 445.0667 207.9680
  A 0.43 0.43 0.0 0 0 445.2190 208.5567
  L 450.8541 211.8760
  A 0.43 0.43 0.0 0 0 451.4428 211.7237
  L 451.4733 211.6720"
/>
<path stroke="#8c6c6f" vector-effect="non-scaling-stroke" d="
  M 148.86 161.00
  C 147.26 156.12 148.09 154.42 142.71 152.13
  Q 136.90 149.65 131.19 152.58
  C 126.14 155.17 119.45 151.73 116.62 157.24
  C 116.04 158.36 116.32 159.30 116.39 160.50
  C 116.56 163.40 114.26 165.06 114.27 167.97
  Q 114.30 175.45 117.52 182.31
  A 0.67 0.67 0.0 0 0 118.63 182.46
  C 121.61 179.02 127.58 180.97 131.14 181.74
  C 136.37 182.86 141.15 177.86 146.71 182.08
  Q 147.06 182.35 147.33 181.99
  C 150.87 177.34 151.26 173.05 151.68 166.75
  Q 151.89 163.53 149.45 161.80
  A 1.65 1.59 -82.5 0 1 148.86 161.00"
/>
<path stroke="#8c6c6f" vector-effect="non-scaling-stroke" d="
  M 130.50 183.73
  C 127.58 183.38 122.28 183.93 122.63 188.00
  Q 122.68 188.50 123.05 188.83
  Q 131.85 196.62 141.01 189.89
  C 142.57 188.75 142.93 186.65 141.70 185.27
  C 138.93 182.14 134.08 184.16 130.50 183.73"
/>
<path stroke="#8c6c6f" vector-effect="non-scaling-stroke" d="
  M 118.88 166.78
  L 128.57 166.01
  A 0.76 0.76 0.0 0 0 129.26 165.20
  L 129.22 164.68
  A 3.73 2.32 -4.5 0 0 125.32 162.66
  L 121.55 162.95
  A 3.73 2.32 -4.5 0 0 118.02 165.56
  L 118.06 166.08
  A 0.76 0.76 0.0 0 0 118.88 166.78"
/>
<path stroke="#8c6c6f" vector-effect="non-scaling-stroke" d="
  M 136.68 165.87
  L 147.27 166.63
  A 0.21 0.21 0.0 0 0 147.50 166.43
  L 147.60 165.03
  A 4.06 1.85 4.1 0 0 143.68 162.90
  L 140.77 162.69
  A 4.06 1.85 4.1 0 0 136.59 164.25
  L 136.49 165.64
  A 0.21 0.21 0.0 0 0 136.68 165.87"
/>
<path stroke="#8c6c6f" vector-effect="non-scaling-stroke" d="
  M 124.0700 173.9000
  A 2.39 1.54 90.0 0 0 125.6100 171.5100
  A 2.39 1.54 90.0 0 0 124.0700 169.1200
  A 2.39 1.54 90.0 0 0 122.5300 171.5100
  A 2.39 1.54 90.0 0 0 124.0700 173.9000"
/>
<path stroke="#8c6c6f" vector-effect="non-scaling-stroke" d="
  M 141.4255 173.8499
  A 2.34 1.48 90.6 0 0 142.9299 171.5255
  A 2.34 1.48 90.6 0 0 141.4745 169.1701
  A 2.34 1.48 90.6 0 0 139.9701 171.4945
  A 2.34 1.48 90.6 0 0 141.4255 173.8499"
/>
<path stroke="#8c6c6f" vector-effect="non-scaling-stroke" d="
  M 235.55 164.36
  L 245.09 163.04
  A 0.06 0.06 0.0 0 0 245.15 162.97
  L 245.14 162.94
  A 2.75 1.95 -7.9 0 0 242.15 161.39
  L 237.93 161.97
  A 2.75 1.95 -7.9 0 0 235.47 164.28
  L 235.48 164.31
  A 0.06 0.06 0.0 0 0 235.55 164.36"
/>
<path stroke="#8c6c6f" vector-effect="non-scaling-stroke" d="
  M 261.84 162.59
  C 259.32 161.79 256.62 161.17 254.31 161.49
  A 0.71 0.70 -6.4 0 0 253.70 162.25
  L 253.74 162.63
  Q 253.79 163.23 254.40 163.30
  L 262.84 164.26
  A 0.27 0.27 0.0 0 0 263.12 163.88
  L 262.97 163.57
  A 1.91 1.87 -3.6 0 0 261.84 162.59"
/>
<path stroke="#8c6c6f" vector-effect="non-scaling-stroke" d="
  M 240.4237 171.3999
  A 2.34 1.45 90.4 0 0 241.8900 169.0701
  A 2.34 1.45 90.4 0 0 240.4563 166.7201
  A 2.34 1.45 90.4 0 0 238.9900 169.0499
  A 2.34 1.45 90.4 0 0 240.4237 171.3999"
/>
<path stroke="#8c6c6f" vector-effect="non-scaling-stroke" d="
  M 258.3077 171.3698
  A 2.31 1.48 90.8 0 0 259.8199 169.0807
  A 2.31 1.48 90.8 0 0 258.3723 166.7502
  A 2.31 1.48 90.8 0 0 256.8601 169.0393
  A 2.31 1.48 90.8 0 0 258.3077 171.3698"
/>
<path stroke="#ffd3c1" vector-effect="non-scaling-stroke" d="
  M 255.58 183.00
  L 242.86 182.98
  A 0.18 0.18 0.0 0 0 242.68 183.16
  L 242.67 183.24
  A 6.39 5.86 0.1 0 0 249.05 189.11
  L 249.35 189.11
  A 6.39 5.86 0.1 0 0 255.75 183.26
  L 255.76 183.18
  A 0.18 0.18 0.0 0 0 255.58 183.00"
/>
<path stroke="#ffd3c1" vector-effect="non-scaling-stroke" d="
  M 361.7302 171.1095
  A 5.47 5.30 -11.5 0 0 355.3133 167.0064
  A 5.47 5.30 -11.5 0 0 351.0098 173.2905
  A 5.47 5.30 -11.5 0 0 357.4267 177.3936
  A 5.47 5.30 -11.5 0 0 361.7302 171.1095"
/>
<path stroke="#ffd3c1" vector-effect="non-scaling-stroke" d="
  M 379.44 172.21
  A 5.39 5.39 0.0 0 0 374.05 166.82
  A 5.39 5.39 0.0 0 0 368.66 172.21
  A 5.39 5.39 0.0 0 0 374.05 177.60
  A 5.39 5.39 0.0 0 0 379.44 172.21"
/>
<path stroke="#8c6c6f" vector-effect="non-scaling-stroke" d="
  M 356.6079 174.2600
  A 2.31 1.49 90.3 0 0 358.1100 171.9578
  A 2.31 1.49 90.3 0 0 356.6321 169.6400
  A 2.31 1.49 90.3 0 0 355.1300 171.9422
  A 2.31 1.49 90.3 0 0 356.6079 174.2600"
/>
<path stroke="#8c6c6f" vector-effect="non-scaling-stroke" d="
  M 373.9675 174.0891
  A 2.24 1.44 91.6 0 0 375.4694 171.8902
  A 2.24 1.44 91.6 0 0 374.0925 169.6109
  A 2.24 1.44 91.6 0 0 372.5906 171.8098
  A 2.24 1.44 91.6 0 0 373.9675 174.0891"
/>
<path stroke="#ffd3c1" vector-effect="non-scaling-stroke" d="
  M 372.73 184.40
  L 358.53 184.50
  A 0.16 0.16 0.0 0 0 358.37 184.66
  L 358.37 184.67
  A 7.20 6.43 -0.4 0 0 365.61 191.05
  L 365.73 191.05
  A 7.20 6.43 -0.4 0 0 372.89 184.57
  L 372.89 184.56
  A 0.16 0.16 0.0 0 0 372.73 184.40"
/>
<path stroke="#f98e6e" vector-effect="non-scaling-stroke" d="
  M 357.41 199.97
  Q 357.49 201.45 358.95 201.66
  C 363.70 202.37 369.03 202.37 373.08 199.67
  Q 373.32 199.51 373.37 199.30
  Q 373.42 199.10 373.34 198.91
  A 0.46 0.45 -20.4 0 0 372.78 198.66
  Q 365.63 201.03 358.56 198.37
  A 0.88 0.88 0.0 0 0 357.37 199.24
  L 357.41 199.97"
/>
<path stroke="#ffd3c1" vector-effect="non-scaling-stroke" d="
  M 138.97 184.71
  L 126.35 184.91
  A 0.19 0.19 0.0 0 0 126.16 185.10
  L 126.17 185.16
  A 6.34 6.03 -0.9 0 0 132.60 191.09
  L 132.92 191.09
  A 6.34 6.03 -0.9 0 0 139.16 184.96
  L 139.16 184.90
  A 0.19 0.19 0.0 0 0 138.97 184.71"
/>
<path stroke="#145ccf" vector-effect="non-scaling-stroke" d="
  M 356.52 230.94
  C 366.54 229.16 375.37 224.02 381.01 215.01
  A 0.36 0.35 26.3 0 0 380.83 214.48
  L 380.49 214.36
  A 0.57 0.57 0.0 0 0 379.83 214.57
  Q 372.19 225.62 359.31 229.20
  Q 357.03 229.84 356.26 230.16
  Q 352.75 231.60 356.52 230.94"
/>
<path stroke="#145ccf" vector-effect="non-scaling-stroke" d="
  M 95.5104 272.6629
  A 0.33 0.33 0.0 0 0 95.2827 272.2555
  L 94.5899 272.0594
  A 0.33 0.33 0.0 0 0 94.1825 272.2871
  L 84.3096 307.1771
  A 0.33 0.33 0.0 0 0 84.5373 307.5845
  L 85.2301 307.7806
  A 0.33 0.33 0.0 0 0 85.6375 307.5529
  L 95.5104 272.6629"
/>
<path stroke="#0184ec" vector-effect="non-scaling-stroke" d="
  M 84.65 351.39
  Q 85.08 334.17 85.39 317.36
  C 85.41 316.26 84.84 315.51 83.81 315.24
  A 0.55 0.55 0.0 0 0 83.14 315.68
  L 78.26 345.62"
/>
<path stroke="#0e4eca" vector-effect="non-scaling-stroke" d="
  M 39.28 343.48
  L 39.01 343.57
  Q 38.84 343.63 38.88 343.80
  Q 43.23 359.92 59.47 363.24
  Q 59.75 363.30 59.81 363.01
  L 59.87 362.65
  A 0.46 0.46 0.0 0 0 59.54 362.12
  Q 52.26 360.05 50.12 358.64
  C 44.75 355.09 41.71 349.71 39.54 343.61
  Q 39.47 343.42 39.28 343.48"
/>
<path stroke="#145ccf" vector-effect="non-scaling-stroke" d="
  M 272.55 386.13
  A 2.09 2.09 0.0 0 0 269.58 387.62
  L 269.10 390.19
  A 2.09 2.09 0.0 0 0 270.91 392.65
  L 272.83 392.87
  A 2.09 2.09 0.0 0 0 275.16 390.76
  L 275.12 388.65
  A 2.09 2.09 0.0 0 0 273.94 386.80
  L 272.55 386.13"
/>
<path stroke="#145ccf" vector-effect="non-scaling-stroke" d="
  M 217.4100 394.0161
  A 3.41 3.06 23.8 0 0 215.5248 389.8402
  A 3.41 3.06 23.8 0 0 211.1700 391.2639
  A 3.41 3.06 23.8 0 0 213.0552 395.4398
  A 3.41 3.06 23.8 0 0 217.4100 394.0161"
/>
<path stroke="#145ccf" vector-effect="non-scaling-stroke" d="
  M 291.8632 396.2924
  A 3.38 3.20 -28.4 0 0 287.3680 395.0851
  A 3.38 3.20 -28.4 0 0 285.9168 399.5076
  A 3.38 3.20 -28.4 0 0 290.4120 400.7149
  A 3.38 3.20 -28.4 0 0 291.8632 396.2924"
/>
<path stroke="#0184ec" vector-effect="non-scaling-stroke" d="
  M 272.31 222.77
  L 272.10 222.63
  Q 271.95 222.54 271.87 222.69
  C 266.37 232.15 257.12 237.19 246.53 239.21
  Q 246.34 239.25 246.38 239.44
  L 246.44 239.73
  Q 246.53 240.18 246.99 240.09
  C 257.40 238.00 267.13 232.94 272.46 223.35
  Q 272.65 222.99 272.31 222.77"
/>
<path stroke="#0184ec" vector-effect="non-scaling-stroke" d="
  M 272.13 277.75
  Q 264.99 281.02 257.29 282.41
  Q 257.04 282.46 257.10 282.70
  L 257.16 282.95
  A 0.50 0.50 0.0 0 0 257.76 283.32
  C 262.89 282.07 269.74 280.89 273.69 278.25
  Q 278.85 274.81 280.91 268.43"
/>
<path stroke="#80a1be" vector-effect="non-scaling-stroke" d="
  M 280.91 268.43
  Q 281.97 266.52 284.13 264.60
  A 1.02 1.01 61.4 0 0 284.43 263.57
  L 282.16 255.09
  A 0.96 0.96 0.0 0 0 281.17 254.37
  C 274.47 254.81 269.74 260.52 267.20 266.16
  Q 266.78 267.09 267.24 268.01
  L 272.13 277.75"
/>
<path stroke="#8089b1" vector-effect="non-scaling-stroke" d="
  M 280.91 268.43
  C 278.19 272.23 276.74 275.52 272.13 277.75"
/>
<path stroke="#0184ec" vector-effect="non-scaling-stroke" d="
  M 286.06 264.27
  L 285.89 264.61
  A 0.27 0.27 0.0 0 0 286.01 264.97
  Q 289.44 266.58 291.56 269.66
  Q 291.80 270.00 292.13 269.73
  L 292.36 269.55
  A 0.44 0.44 0.0 0 0 292.43 268.95
  Q 290.05 265.79 286.46 264.13
  Q 286.19 264.01 286.06 264.27"
/>
<path stroke="#0184ec" vector-effect="non-scaling-stroke" d="
  M 243.64 307.68
  Q 246.31 308.09 244.05 306.69
  Q 233.79 300.29 225.58 291.40
  Q 225.39 291.20 225.20 291.39
  L 224.97 291.62
  A 0.42 0.42 0.0 0 0 224.97 292.21
  Q 232.59 299.98 241.35 306.41
  Q 242.95 307.58 243.64 307.68"
/>
<path stroke="#0184ec" vector-effect="non-scaling-stroke" d="
  M 264.20 307.60
  C 256.01 304.23 249.84 301.60 241.80 295.29
  Q 241.49 295.05 241.25 295.36
  L 241.07 295.58
  Q 240.94 295.74 241.10 295.87
  C 248.11 301.51 255.10 305.53 263.71 308.24
  Q 264.06 308.34 264.18 308.00
  L 264.27 307.76
  Q 264.31 307.64 264.20 307.60"
/>
<path stroke="#145ccf" vector-effect="non-scaling-stroke" d="
  M 168.77 283.81
  C 169.86 294.36 168.86 301.61 165.25 309.51
  C 163.52 313.29 161.22 318.02 161.03 322.19
  Q 160.94 324.10 160.82 326.07
  Q 160.81 326.38 161.12 326.38
  L 161.44 326.38
  A 0.58 0.57 4.0 0 0 162.01 325.89
  C 162.50 322.67 162.78 319.61 164.01 316.58
  C 166.15 311.28 169.19 305.65 169.97 300.39
  Q 171.00 293.36 170.10 283.72
  Q 170.07 283.37 169.71 283.37
  L 169.16 283.37
  Q 168.72 283.37 168.77 283.81"
/>
<path stroke="#145ccf" vector-effect="non-scaling-stroke" d="
  M 391.04 356.43
  C 380.42 355.70 371.12 353.12 362.41 348.08
  Q 350.11 340.96 340.15 330.54
  Q 339.98 330.36 339.80 330.53
  L 339.35 330.97
  Q 339.17 331.14 339.35 331.32
  Q 350.53 342.80 364.45 350.11
  C 371.90 354.02 382.84 357.25 391.27 357.01
  Q 391.30 357.01 391.30 356.98
  L 391.31 356.73
  Q 391.32 356.45 391.04 356.43"
/>
<path stroke="#203f8c" vector-effect="non-scaling-stroke" d="
  M 258.92 347.69
  A 10.31 10.31 0.0 0 0 248.61 337.38
  A 10.31 10.31 0.0 0 0 238.30 347.69
  A 10.31 10.31 0.0 0 0 248.61 358.00
  A 10.31 10.31 0.0 0 0 258.92 347.69"
/>
</g>
<path fill="#019cf8" d="
  M 271.79 97.44
  Q 261.33 94.00 250.77 90.71
  C 248.68 90.06 244.88 87.51 241.69 87.63
  Q 240.41 87.67 241.52 88.31
  Q 244.32 89.91 247.72 91.26
  Q 257.74 95.25 267.59 99.62
  Q 270.14 100.75 268.53 102.38
  L 261.35 110.19
  A 0.78 0.78 0.0 0 1 260.24 110.22
  L 235.50 86.40
  Q 234.63 85.56 235.83 85.55
  L 274.24 85.21
  Q 275.11 85.20 274.88 86.03
  L 271.79 97.44
  Z"
/>
<path fill="#006bdf" d="
  M 271.79 97.44
  L 271.97 101.91
  Q 271.99 102.41 271.57 102.69
  Q 270.43 103.45 268.53 102.38
  Q 270.14 100.75 267.59 99.62
  Q 257.74 95.25 247.72 91.26
  Q 244.32 89.91 241.52 88.31
  Q 240.41 87.67 241.69 87.63
  C 244.88 87.51 248.68 90.06 250.77 90.71
  Q 261.33 94.00 271.79 97.44
  Z"
/>
<rect fill="#1c31b4" x="69.88" y="94.74" width="2.12" height="6.50" rx="0.80"/>
<path fill="#006bdf" d="
  M 101.05 102.08
  A 6.75 6.75 0.0 0 1 94.30 108.83
  A 6.75 6.75 0.0 0 1 87.55 102.08
  A 6.75 6.75 0.0 0 1 94.30 95.33
  A 6.75 6.75 0.0 0 1 101.05 102.08
  Z
  M 98.80 102.03
  A 4.54 4.54 0.0 0 0 94.26 97.49
  A 4.54 4.54 0.0 0 0 89.72 102.03
  A 4.54 4.54 0.0 0 0 94.26 106.57
  A 4.54 4.54 0.0 0 0 98.80 102.03
  Z"
/>
<rect fill="#1c31b4" x="-3.04" y="-1.06" transform="translate(66.41,102.08) rotate(-0.2)" width="6.08" height="2.12" rx="0.94"/>
<rect fill="#1c31b4" x="-3.07" y="-1.07" transform="translate(75.36,102.07) rotate(0.4)" width="6.14" height="2.14" rx="1.00"/>
<path fill="#019cf8" d="
  M 392.87 107.71
  A 6.75 6.75 0.0 0 1 386.12 114.46
  A 6.75 6.75 0.0 0 1 379.37 107.71
  A 6.75 6.75 0.0 0 1 386.12 100.96
  A 6.75 6.75 0.0 0 1 392.87 107.71
  Z
  M 390.67 107.68
  A 4.55 4.55 0.0 0 0 386.12 103.13
  A 4.55 4.55 0.0 0 0 381.57 107.68
  A 4.55 4.55 0.0 0 0 386.12 112.23
  A 4.55 4.55 0.0 0 0 390.67 107.68
  Z"
/>
<rect fill="#1c31b4" x="-1.01" y="-3.31" transform="translate(358.97,104.72) rotate(-0.1)" width="2.02" height="6.62" rx="0.69"/>
<path fill="#bbe2f3" d="
  M 221.37 171.94
  Q 220.83 176.94 220.00 183.14
  C 217.95 198.47 226.38 203.59 240.52 203.26
  Q 238.90 204.51 237.79 204.64
  A 0.72 0.72 0.0 0 0 237.20 205.58
  C 238.83 210.55 242.64 215.04 247.81 216.19
  C 254.14 217.61 259.76 213.50 261.13 207.09
  Q 261.18 206.87 261.40 206.81
  Q 261.52 206.78 261.67 206.77
  Q 261.99 206.94 262.21 206.78
  Q 262.44 207.18 262.36 207.48
  Q 260.13 216.22 251.86 217.53
  C 244.18 218.75 238.36 212.51 236.03 206.17
  A 0.51 0.50 66.2 0 0 235.33 205.89
  Q 231.46 207.91 227.42 209.92
  Q 226.21 210.52 226.64 211.97
  L 226.14 211.24
  Q 225.84 210.82 225.38 211.06
  C 220.56 213.58 211.63 218.00 209.58 223.31
  Q 203.62 238.76 201.38 255.23
  L 199.88 264.19
  Q 190.14 247.30 180.73 230.35
  C 179.17 227.54 177.40 225.05 175.05 223.40
  Q 165.55 216.72 152.51 210.41
  Q 152.37 210.34 152.27 210.46
  Q 152.16 210.59 152.04 210.60
  L 142.06 204.38
  Q 142.37 202.48 141.55 199.96
  C 144.67 197.30 150.02 193.34 150.39 189.30
  Q 150.73 185.66 151.58 183.00
  Q 160.33 180.88 159.04 170.82
  C 158.71 168.20 157.48 168.21 155.63 167.07
  Q 157.88 164.86 158.82 161.50
  C 160.01 157.28 158.89 155.89 155.93 153.21
  C 153.85 151.32 153.12 148.72 151.80 147.00
  Q 147.91 141.94 141.49 141.94
  A 1.59 1.50 -26.3 0 1 140.61 141.67
  C 136.82 139.05 132.15 133.44 128.45 132.48
  C 117.27 129.57 114.99 138.00 111.61 145.88
  C 110.63 148.15 108.29 148.36 107.40 150.53
  C 105.74 154.58 107.29 156.82 109.84 160.39
  Q 111.87 163.22 111.93 167.92
  C 103.62 165.14 105.83 182.88 114.03 182.75
  Q 115.09 188.04 115.85 190.15
  C 117.53 194.86 122.39 195.67 124.79 200.27
  Q 124.11 201.96 124.35 204.17
  C 122.17 205.92 117.43 207.92 116.20 210.15
  L 116.00 209.92
  Q 115.73 209.63 115.38 209.81
  Q 106.42 214.36 96.59 220.59
  Q 91.24 223.97 88.56 229.49
  L 81.69 208.87
  A 3.32 3.32 0.0 0 1 81.69 206.77
  C 82.90 203.11 84.36 200.03 86.59 196.37
  C 88.28 193.61 98.92 176.39 91.24 176.07
  C 82.76 175.71 79.47 193.66 79.36 199.31
  Q 79.32 201.66 78.56 199.43
  C 76.47 193.21 74.26 187.43 74.06 180.09
  C 73.75 169.30 76.24 160.21 73.36 149.39
  Q 75.53 145.54 77.72 141.94
  C 94.33 114.64 122.37 98.41 154.72 103.06
  C 181.33 106.88 202.89 123.90 213.45 148.52
  C 216.20 154.93 218.39 164.11 221.37 171.94
  Z"
/>
<rect fill="#1c31b4" x="-1.05" y="-3.28" transform="translate(70.94,106.17) rotate(-0.6)" width="2.10" height="6.56" rx="0.80"/>
<rect fill="#ffffff" x="-2.86" y="-0.77" transform="translate(277.64,104.76) rotate(29.4)" width="5.72" height="1.54" rx="0.67"/>
<path fill="#bbe2f3" d="
  M 206.98 105.46
  C 218.28 97.11 235.48 120.13 226.33 129.76
  C 218.06 138.47 202.13 121.20 202.82 112.66
  Q 203.18 108.26 206.98 105.46
  Z"
/>
<rect fill="#bbe2f3" x="-3.01" y="-0.78" transform="translate(285.10,109.43) rotate(35.7)" width="6.02" height="1.56" rx="0.74"/>
<rect fill="#1c31b4" x="-3.11" y="-1.09" transform="translate(354.48,108.80) rotate(-0.5)" width="6.22" height="2.18" rx="1.04"/>
<rect fill="#1c31b4" x="-3.10" y="-1.08" transform="translate(363.40,108.81) rotate(0.1)" width="6.20" height="2.16" rx="1.03"/>
<rect fill="#1c31b4" x="-1.01" y="-3.25" transform="translate(358.97,112.89) rotate(-0.3)" width="2.02" height="6.50" rx="0.58"/>
<path fill="#006bdf" d="
  M 334.29 119.11
  A 6.75 6.75 0.0 0 1 327.54 125.86
  A 6.75 6.75 0.0 0 1 320.79 119.11
  A 6.75 6.75 0.0 0 1 327.54 112.36
  A 6.75 6.75 0.0 0 1 334.29 119.11
  Z
  M 332.07 119.09
  A 4.54 4.54 0.0 0 0 327.53 114.55
  A 4.54 4.54 0.0 0 0 322.99 119.09
  A 4.54 4.54 0.0 0 0 327.53 123.63
  A 4.54 4.54 0.0 0 0 332.07 119.09
  Z"
/>
<ellipse fill="#bbe2f3" cx="0.00" cy="0.00" transform="translate(291.99,115.07) rotate(42.9)" rx="3.16" ry="0.83"/>
<rect fill="#bbe2f3" x="-0.71" y="-2.89" transform="translate(298.17,121.48) rotate(-40.9)" width="1.42" height="5.78" rx="0.69"/>
<path fill="#019cf8" d="
  M 74.09 127.68
  A 6.76 6.76 0.0 0 1 67.33 134.44
  A 6.76 6.76 0.0 0 1 60.57 127.68
  A 6.76 6.76 0.0 0 1 67.33 120.92
  A 6.76 6.76 0.0 0 1 74.09 127.68
  Z
  M 71.85 127.63
  A 4.55 4.55 0.0 0 0 67.30 123.08
  A 4.55 4.55 0.0 0 0 62.75 127.63
  A 4.55 4.55 0.0 0 0 67.30 132.18
  A 4.55 4.55 0.0 0 0 71.85 127.63
  Z"
/>
<ellipse fill="#bbe2f3" cx="0.00" cy="0.00" transform="translate(303.54,128.58) rotate(56.0)" rx="3.10" ry="0.86"/>
<rect fill="#006bdf" x="-1.12" y="-3.37" transform="translate(394.39,132.80) rotate(-0.1)" width="2.24" height="6.74" rx="1.07"/>
<rect fill="#006bdf" x="-1.12" y="-3.35" transform="translate(46.65,133.65) rotate(-0.5)" width="2.24" height="6.70" rx="1.07"/>
<path fill="#ffa683" d="
  M 444.24 229.29
  L 435.28 210.18
  L 443.39 207.82
  A 1.09 1.09 0.0 0 0 444.14 206.54
  C 440.87 191.73 438.85 176.81 436.65 161.83
  Q 436.57 161.33 436.09 161.15
  Q 433.19 160.08 432.41 158.85
  Q 429.35 154.05 425.47 148.61
  A 1.81 1.81 0.0 0 1 426.02 146.00
  Q 426.42 145.77 427.42 146.83
  Q 428.95 148.45 430.43 149.57
  Q 431.97 150.74 431.53 148.86
  C 430.42 144.15 428.37 140.14 427.61 135.23
  A 0.93 0.93 0.0 0 1 428.83 134.21
  Q 429.69 134.52 430.32 135.74
  Q 431.60 138.25 432.51 140.91
  Q 432.60 141.15 432.83 141.07
  L 433.08 140.98
  Q 433.13 140.96 433.11 140.91
  Q 431.48 136.74 431.07 131.85
  A 0.84 0.84 0.0 0 1 431.83 130.94
  Q 432.71 130.87 433.24 131.97
  Q 435.28 136.28 436.40 140.95
  Q 436.46 141.20 436.70 141.13
  L 436.94 141.07
  Q 437.07 141.04 437.03 140.92
  Q 435.86 136.89 435.50 132.76
  Q 435.40 131.68 436.04 131.25
  A 0.78 0.77 -30.0 0 1 437.16 131.55
  Q 439.09 135.33 439.47 139.14
  Q 439.47 139.17 439.51 139.17
  L 439.76 139.15
  Q 440.01 139.13 440.00 138.87
  Q 439.89 136.58 439.97 136.10
  Q 440.72 131.59 442.30 135.88
  C 442.99 137.73 443.06 140.18 443.74 142.33
  C 445.32 147.31 445.18 152.72 445.00 157.90
  Q 444.91 160.52 445.80 162.97
  C 451.09 177.53 456.61 193.25 459.92 207.60
  C 460.40 209.67 460.57 212.14 459.43 214.20
  C 455.67 220.96 450.65 224.70 444.24 229.29
  Z
  M 451.4733 211.6720
  A 0.43 0.43 0.0 0 0 451.3210 211.0833
  L 445.6859 207.7640
  A 0.43 0.43 0.0 0 0 445.0972 207.9163
  L 445.0667 207.9680
  A 0.43 0.43 0.0 0 0 445.2190 208.5567
  L 450.8541 211.8760
  A 0.43 0.43 0.0 0 0 451.4428 211.7237
  L 451.4733 211.6720
  Z"
/>
<path fill="#18315a" d="
  M 155.63 167.07
  Q 153.63 169.00 153.45 173.18
  C 153.30 176.82 152.09 179.46 151.58 183.00
  Q 150.73 185.66 150.39 189.30
  C 150.02 193.34 144.67 197.30 141.55 199.96
  C 137.01 206.74 129.32 207.04 124.79 200.27
  C 122.39 195.67 117.53 194.86 115.85 190.15
  Q 115.09 188.04 114.03 182.75
  Q 112.17 175.16 111.93 167.92
  Q 111.87 163.22 109.84 160.39
  C 107.29 156.82 105.74 154.58 107.40 150.53
  C 108.29 148.36 110.63 148.15 111.61 145.88
  C 114.99 138.00 117.27 129.57 128.45 132.48
  C 132.15 133.44 136.82 139.05 140.61 141.67
  A 1.59 1.50 -26.3 0 0 141.49 141.94
  Q 147.91 141.94 151.80 147.00
  C 153.12 148.72 153.85 151.32 155.93 153.21
  C 158.89 155.89 160.01 157.28 158.82 161.50
  Q 157.88 164.86 155.63 167.07
  Z
  M 148.86 161.00
  C 147.26 156.12 148.09 154.42 142.71 152.13
  Q 136.90 149.65 131.19 152.58
  C 126.14 155.17 119.45 151.73 116.62 157.24
  C 116.04 158.36 116.32 159.30 116.39 160.50
  C 116.56 163.40 114.26 165.06 114.27 167.97
  Q 114.30 175.45 117.52 182.31
  A 0.67 0.67 0.0 0 0 118.63 182.46
  C 121.61 179.02 127.58 180.97 131.14 181.74
  C 136.37 182.86 141.15 177.86 146.71 182.08
  Q 147.06 182.35 147.33 181.99
  C 150.87 177.34 151.26 173.05 151.68 166.75
  Q 151.89 163.53 149.45 161.80
  A 1.65 1.59 -82.5 0 1 148.86 161.00
  Z
  M 130.50 183.73
  C 127.58 183.38 122.28 183.93 122.63 188.00
  Q 122.68 188.50 123.05 188.83
  Q 131.85 196.62 141.01 189.89
  C 142.57 188.75 142.93 186.65 141.70 185.27
  C 138.93 182.14 134.08 184.16 130.50 183.73
  Z"
/>
<ellipse fill="#bbe2f3" cx="0.00" cy="0.00" transform="translate(307.90,136.23) rotate(64.4)" rx="3.12" ry="0.86"/>
<path fill="#18315a" d="
  M 259.24 202.60
  Q 258.00 201.91 258.64 198.43
  Q 263.11 196.94 264.28 196.36
  C 270.02 193.54 272.64 185.57 272.75 179.18
  Q 275.82 175.57 275.55 169.73
  A 4.28 4.28 0.0 0 0 273.45 166.23
  L 272.98 165.96
  A 1.06 1.05 -72.1 0 0 271.40 166.77
  Q 271.09 169.99 269.45 172.99
  Q 268.36 172.59 268.33 171.71
  Q 268.12 166.46 268.25 161.11
  Q 268.26 160.59 267.75 160.55
  L 265.88 160.42
  A 0.80 0.79 85.6 0 1 265.16 159.80
  L 264.11 155.43
  Q 263.51 152.95 263.25 155.49
  L 262.80 159.99
  Q 262.73 160.71 262.01 160.64
  L 254.50 159.98
  Q 253.36 159.88 253.07 158.76
  L 251.78 153.72
  Q 251.36 152.10 250.95 153.72
  Q 250.45 155.73 250.12 157.92
  C 249.62 161.24 242.75 160.52 240.79 160.10
  Q 240.28 159.99 240.20 159.47
  L 239.34 153.62
  Q 239.10 151.99 238.57 153.55
  L 236.49 159.59
  Q 236.32 160.09 235.81 160.21
  L 231.47 161.28
  Q 231.03 161.38 230.95 161.83
  Q 229.01 172.23 231.86 182.12
  Q 230.59 182.28 230.68 183.25
  C 230.99 186.56 232.81 197.42 236.85 198.42
  Q 238.77 198.89 240.54 199.72
  A 0.39 0.39 0.0 0 0 241.08 199.47
  L 241.17 199.18
  Q 241.48 203.10 240.52 203.26
  C 226.38 203.59 217.95 198.47 220.00 183.14
  Q 220.83 176.94 221.37 171.94
  C 222.93 163.09 224.55 155.91 228.65 148.42
  C 232.58 141.27 237.11 137.33 245.22 135.50
  Q 254.59 133.39 263.61 137.10
  C 271.27 140.25 276.08 155.62 277.24 162.94
  Q 277.90 167.09 277.60 174.08
  C 277.30 181.18 277.55 189.01 275.61 195.55
  C 273.05 204.16 266.20 201.94 259.24 202.60
  Z"
/>
<rect fill="#006bdf" x="-3.03" y="-1.03" transform="translate(398.95,136.96) rotate(0.6)" width="6.06" height="2.06" rx="0.54"/>
<rect fill="#006bdf" x="386.92" y="135.95" width="6.12" height="2.04" rx="0.57"/>
<rect fill="#006bdf" x="-3.09" y="-1.11" transform="translate(42.12,137.83) rotate(-0.2)" width="6.18" height="2.22" rx="0.95"/>
<rect fill="#006bdf" x="-3.11" y="-1.12" transform="translate(51.10,137.84) rotate(0.1)" width="6.22" height="2.24" rx="0.97"/>
<rect fill="#006bdf" x="393.28" y="137.67" width="2.22" height="6.70" rx="1.07"/>
<rect fill="#006bdf" x="45.50" y="138.48" width="2.28" height="6.74" rx="1.09"/>
<path fill="#18315a" d="
  M 387.71 166.43
  L 384.50 166.83
  Q 384.61 165.15 384.01 163.74
  Q 383.79 163.23 383.29 162.97
  L 381.13 161.85
  A 1.88 1.88 0.0 0 1 380.33 159.30
  L 382.21 155.71
  A 1.93 1.93 0.0 0 0 381.28 153.04
  Q 378.75 151.93 375.75 151.91
  C 367.28 151.87 358.47 151.32 350.05 152.27
  A 1.35 1.35 0.0 0 0 348.86 153.80
  Q 349.25 156.64 349.91 159.04
  C 350.43 160.95 347.89 164.63 347.17 166.55
  Q 345.01 167.33 343.38 166.29
  C 343.29 158.84 345.02 150.80 350.65 145.76
  C 359.97 137.40 376.60 138.60 383.84 149.21
  Q 388.76 156.41 387.71 166.43
  Z"
/>
<ellipse fill="#bbe2f3" cx="0.00" cy="0.00" transform="translate(311.23,144.45) rotate(70.6)" rx="3.05" ry="0.83"/>
<path fill="#1c31b4" d="
  M 73.36 149.39
  C 76.24 160.21 73.75 169.30 74.06 180.09
  C 74.26 187.43 76.47 193.21 78.56 199.43
  Q 79.32 201.66 79.36 199.31
  C 79.47 193.66 82.76 175.71 91.24 176.07
  C 98.92 176.39 88.28 193.61 86.59 196.37
  C 84.36 200.03 82.90 203.11 81.69 206.77
  A 3.32 3.32 0.0 0 0 81.69 208.87
  L 88.56 229.49
  L 85.71 236.37
  Q 75.05 227.46 61.98 223.60
  C 57.59 221.51 36.44 212.39 40.31 205.26
  C 44.10 198.30 55.67 203.29 60.33 206.05
  Q 75.28 215.63 84.68 230.27
  Q 85.76 231.95 85.13 230.05
  L 76.17 203.03
  A 4.50 4.50 0.0 0 0 74.92 201.10
  Q 69.08 195.76 60.92 193.08
  C 55.99 191.03 48.60 187.95 45.62 183.21
  A 1.36 1.32 33.9 0 1 45.43 182.31
  C 46.75 173.91 59.94 182.40 63.09 184.42
  L 73.55 196.04
  Q 73.89 196.42 73.79 195.91
  Q 73.31 193.62 72.64 192.36
  Q 68.76 185.13 65.77 177.41
  Q 64.68 176.46 64.63 174.34
  C 64.47 168.21 59.15 149.07 68.13 146.40
  Q 71.23 145.48 73.36 149.39
  Z"
/>
<rect fill="#bbe2f3" x="-0.85" y="-2.99" transform="translate(313.58,152.98) rotate(-13.5)" width="1.70" height="5.98" rx="0.81"/>
<path fill="#ffa683" d="
  M 149.45 161.80
  Q 151.89 163.53 151.68 166.75
  C 151.26 173.05 150.87 177.34 147.33 181.99
  Q 147.06 182.35 146.71 182.08
  C 141.15 177.86 136.37 182.86 131.14 181.74
  C 127.58 180.97 121.61 179.02 118.63 182.46
  A 0.67 0.67 0.0 0 1 117.52 182.31
  Q 114.30 175.45 114.27 167.97
  C 114.26 165.06 116.56 163.40 116.39 160.50
  C 116.32 159.30 116.04 158.36 116.62 157.24
  C 119.45 151.73 126.14 155.17 131.19 152.58
  Q 136.90 149.65 142.71 152.13
  C 148.09 154.42 147.26 156.12 148.86 161.00
  A 1.65 1.59 -82.5 0 0 149.45 161.80
  Z
  M 118.88 166.78
  L 128.57 166.01
  A 0.76 0.76 0.0 0 0 129.26 165.20
  L 129.22 164.68
  A 3.73 2.32 -4.5 0 0 125.32 162.66
  L 121.55 162.95
  A 3.73 2.32 -4.5 0 0 118.02 165.56
  L 118.06 166.08
  A 0.76 0.76 0.0 0 0 118.88 166.78
  Z
  M 136.68 165.87
  L 147.27 166.63
  A 0.21 0.21 0.0 0 0 147.50 166.43
  L 147.60 165.03
  A 4.06 1.85 4.1 0 0 143.68 162.90
  L 140.77 162.69
  A 4.06 1.85 4.1 0 0 136.59 164.25
  L 136.49 165.64
  A 0.21 0.21 0.0 0 0 136.68 165.87
  Z
  M 124.0700 173.9000
  A 2.39 1.54 90.0 0 0 125.6100 171.5100
  A 2.39 1.54 90.0 0 0 124.0700 169.1200
  A 2.39 1.54 90.0 0 0 122.5300 171.5100
  A 2.39 1.54 90.0 0 0 124.0700 173.9000
  Z
  M 141.4255 173.8499
  A 2.34 1.48 90.6 0 0 142.9299 171.5255
  A 2.34 1.48 90.6 0 0 141.4745 169.1701
  A 2.34 1.48 90.6 0 0 139.9701 171.4945
  A 2.34 1.48 90.6 0 0 141.4255 173.8499
  Z"
/>
<path fill="#ffa683" d="
  M 384.50 166.83
  L 380.31 168.37
  Q 379.89 168.53 379.55 168.24
  Q 378.54 167.39 378.00 166.20
  Q 379.51 166.14 378.85 164.27
  A 1.00 1.00 0.0 0 0 378.24 163.66
  Q 374.88 162.53 371.40 163.24
  Q 370.85 163.35 370.75 163.89
  Q 370.48 165.18 371.46 165.74
  L 368.37 168.51
  Q 367.94 168.89 367.41 168.67
  Q 365.07 167.67 362.75 168.69
  A 0.75 0.75 0.0 0 1 361.85 168.44
  Q 359.93 165.83 357.63 165.60
  L 359.09 165.61
  Q 359.72 165.61 359.74 164.98
  L 359.77 164.00
  Q 359.79 163.38 359.18 163.25
  Q 355.18 162.40 352.19 163.65
  Q 351.14 164.09 351.48 165.36
  Q 351.60 165.84 352.10 165.89
  L 353.23 166.00
  Q 352.33 167.28 350.99 168.10
  Q 350.56 168.36 350.12 168.13
  L 347.17 166.55
  C 347.89 164.63 350.43 160.95 349.91 159.04
  Q 349.25 156.64 348.86 153.80
  A 1.35 1.35 0.0 0 1 350.05 152.27
  C 358.47 151.32 367.28 151.87 375.75 151.91
  Q 378.75 151.93 381.28 153.04
  A 1.93 1.93 0.0 0 1 382.21 155.71
  L 380.33 159.30
  A 1.88 1.88 0.0 0 0 381.13 161.85
  L 383.29 162.97
  Q 383.79 163.23 384.01 163.74
  Q 384.61 165.15 384.50 166.83
  Z"
/>
<path fill="#ffa683" d="
  M 269.45 172.99
  L 268.88 179.52
  Q 268.54 180.30 267.90 180.85
  Q 265.39 189.28 258.85 194.85
  Q 258.46 195.19 258.49 195.71
  L 258.64 198.43
  Q 258.00 201.91 259.24 202.60
  L 261.14 204.23
  A 1.04 0.99 -73.4 0 1 261.48 204.90
  L 261.67 206.77
  Q 261.52 206.78 261.40 206.81
  Q 261.18 206.87 261.13 207.09
  C 259.76 213.50 254.14 217.61 247.81 216.19
  C 242.64 215.04 238.83 210.55 237.20 205.58
  A 0.72 0.72 0.0 0 1 237.79 204.64
  Q 238.90 204.51 240.52 203.26
  Q 241.48 203.10 241.17 199.18
  Q 249.15 201.27 256.85 197.41
  Q 257.51 197.08 257.50 196.35
  L 257.49 196.05
  A 0.31 0.31 0.0 0 0 257.06 195.77
  C 251.77 198.09 246.79 196.95 241.51 195.84
  Q 240.45 194.76 239.14 193.80
  C 235.25 190.93 233.01 186.90 231.86 182.12
  Q 229.01 172.23 230.95 161.83
  Q 231.03 161.38 231.47 161.28
  L 235.81 160.21
  Q 236.32 160.09 236.49 159.59
  L 238.57 153.55
  Q 239.10 151.99 239.34 153.62
  L 240.20 159.47
  Q 240.28 159.99 240.79 160.10
  C 242.75 160.52 249.62 161.24 250.12 157.92
  Q 250.45 155.73 250.95 153.72
  Q 251.36 152.10 251.78 153.72
  L 253.07 158.76
  Q 253.36 159.88 254.50 159.98
  L 262.01 160.64
  Q 262.73 160.71 262.80 159.99
  L 263.25 155.49
  Q 263.51 152.95 264.11 155.43
  L 265.16 159.80
  A 0.80 0.79 85.6 0 0 265.88 160.42
  L 267.75 160.55
  Q 268.26 160.59 268.25 161.11
  Q 268.12 166.46 268.33 171.71
  Q 268.36 172.59 269.45 172.99
  Z
  M 235.55 164.36
  L 245.09 163.04
  A 0.06 0.06 0.0 0 0 245.15 162.97
  L 245.14 162.94
  A 2.75 1.95 -7.9 0 0 242.15 161.39
  L 237.93 161.97
  A 2.75 1.95 -7.9 0 0 235.47 164.28
  L 235.48 164.31
  A 0.06 0.06 0.0 0 0 235.55 164.36
  Z
  M 261.84 162.59
  C 259.32 161.79 256.62 161.17 254.31 161.49
  A 0.71 0.70 -6.4 0 0 253.70 162.25
  L 253.74 162.63
  Q 253.79 163.23 254.40 163.30
  L 262.84 164.26
  A 0.27 0.27 0.0 0 0 263.12 163.88
  L 262.97 163.57
  A 1.91 1.87 -3.6 0 0 261.84 162.59
  Z
  M 240.4237 171.3999
  A 2.34 1.45 90.4 0 0 241.8900 169.0701
  A 2.34 1.45 90.4 0 0 240.4563 166.7201
  A 2.34 1.45 90.4 0 0 238.9900 169.0499
  A 2.34 1.45 90.4 0 0 240.4237 171.3999
  Z
  M 258.3077 171.3698
  A 2.31 1.48 90.8 0 0 259.8199 169.0807
  A 2.31 1.48 90.8 0 0 258.3723 166.7502
  A 2.31 1.48 90.8 0 0 256.8601 169.0393
  A 2.31 1.48 90.8 0 0 258.3077 171.3698
  Z
  M 255.58 183.00
  L 242.86 182.98
  A 0.18 0.18 0.0 0 0 242.68 183.16
  L 242.67 183.24
  A 6.39 5.86 0.1 0 0 249.05 189.11
  L 249.35 189.11
  A 6.39 5.86 0.1 0 0 255.75 183.26
  L 255.76 183.18
  A 0.18 0.18 0.0 0 0 255.58 183.00
  Z"
/>
<ellipse fill="#bbe2f3" cx="0.00" cy="0.00" transform="translate(315.04,161.70) rotate(85.3)" rx="3.16" ry="0.99"/>
<path fill="#18315a" d="
  M 235.55 164.36
  A 0.06 0.06 0.0 0 1 235.48 164.31
  L 235.47 164.28
  A 2.75 1.95 -7.9 0 1 237.93 161.97
  L 242.15 161.39
  A 2.75 1.95 -7.9 0 1 245.14 162.94
  L 245.15 162.97
  A 0.06 0.06 0.0 0 1 245.09 163.04
  L 235.55 164.36
  Z"
/>
<path fill="#18315a" d="
  M 254.31 161.49
  C 256.62 161.17 259.32 161.79 261.84 162.59
  A 1.91 1.87 -3.6 0 1 262.97 163.57
  L 263.12 163.88
  A 0.27 0.27 0.0 0 1 262.84 164.26
  L 254.40 163.30
  Q 253.79 163.23 253.74 162.63
  L 253.70 162.25
  A 0.71 0.70 -6.4 0 1 254.31 161.49
  Z"
/>
<path fill="#18315a" d="
  M 118.88 166.78
  A 0.76 0.76 0.0 0 1 118.06 166.08
  L 118.02 165.56
  A 3.73 2.32 -4.5 0 1 121.55 162.95
  L 125.32 162.66
  A 3.73 2.32 -4.5 0 1 129.22 164.68
  L 129.26 165.20
  A 0.76 0.76 0.0 0 1 128.57 166.01
  L 118.88 166.78
  Z"
/>
<path fill="#18315a" d="
  M 136.68 165.87
  A 0.21 0.21 0.0 0 1 136.49 165.64
  L 136.59 164.25
  A 4.06 1.85 4.1 0 1 140.77 162.69
  L 143.68 162.90
  A 4.06 1.85 4.1 0 1 147.60 165.03
  L 147.50 166.43
  A 0.21 0.21 0.0 0 1 147.27 166.63
  L 136.68 165.87
  Z"
/>
<path fill="#18315a" d="
  M 357.63 165.60
  L 353.23 166.00
  L 352.10 165.89
  Q 351.60 165.84 351.48 165.36
  Q 351.14 164.09 352.19 163.65
  Q 355.18 162.40 359.18 163.25
  Q 359.79 163.38 359.77 164.00
  L 359.74 164.98
  Q 359.72 165.61 359.09 165.61
  L 357.63 165.60
  Z"
/>
<path fill="#18315a" d="
  M 378.00 166.20
  Q 374.98 165.17 371.46 165.74
  Q 370.48 165.18 370.75 163.89
  Q 370.85 163.35 371.40 163.24
  Q 374.88 162.53 378.24 163.66
  A 1.00 1.00 0.0 0 1 378.85 164.27
  Q 379.51 166.14 378.00 166.20
  Z"
/>
<path fill="#ffffff" d="
  M 357.63 165.60
  Q 359.93 165.83 361.85 168.44
  A 0.75 0.75 0.0 0 0 362.75 168.69
  Q 365.07 167.67 367.41 168.67
  Q 367.94 168.89 368.37 168.51
  L 371.46 165.74
  Q 374.98 165.17 378.00 166.20
  Q 378.54 167.39 379.55 168.24
  Q 379.89 168.53 380.31 168.37
  L 384.50 166.83
  L 387.71 166.43
  Q 387.13 167.41 386.51 167.77
  Q 385.31 167.82 384.05 168.52
  Q 382.17 168.53 380.79 169.80
  Q 380.42 170.14 380.46 170.63
  C 381.40 181.07 367.11 181.42 367.46 171.24
  A 1.82 1.82 0.0 0 0 365.98 169.38
  L 365.10 169.22
  Q 363.46 168.92 363.18 170.56
  C 362.91 172.19 362.97 174.10 362.07 175.53
  C 358.84 180.70 350.44 179.50 350.12 172.49
  Q 350.06 171.24 350.02 169.94
  Q 350.00 169.43 349.56 169.16
  Q 348.36 168.41 346.97 168.52
  Q 345.90 167.88 344.47 167.95
  Q 344.37 167.03 342.92 166.93
  Q 342.94 166.84 342.96 166.75
  L 343.38 166.29
  Q 345.01 167.33 347.17 166.55
  L 350.12 168.13
  Q 350.56 168.36 350.99 168.10
  Q 352.33 167.28 353.23 166.00
  L 357.63 165.60
  Z
  M 361.7302 171.1095
  A 5.47 5.30 -11.5 0 0 355.3133 167.0064
  A 5.47 5.30 -11.5 0 0 351.0098 173.2905
  A 5.47 5.30 -11.5 0 0 357.4267 177.3936
  A 5.47 5.30 -11.5 0 0 361.7302 171.1095
  Z
  M 379.44 172.21
  A 5.39 5.39 0.0 0 0 374.05 166.82
  A 5.39 5.39 0.0 0 0 368.66 172.21
  A 5.39 5.39 0.0 0 0 374.05 177.60
  A 5.39 5.39 0.0 0 0 379.44 172.21
  Z"
/>
<path fill="#f37559" d="
  M 272.75 179.18
  L 271.27 180.18
  Q 270.49 179.37 268.88 179.52
  L 269.45 172.99
  Q 271.09 169.99 271.40 166.77
  A 1.06 1.05 -72.1 0 1 272.98 165.96
  L 273.45 166.23
  A 4.28 4.28 0.0 0 1 275.55 169.73
  Q 275.82 175.57 272.75 179.18
  Z"
/>
<path fill="#bbe2f3" d="
  M 342.53 166.77
  Q 342.66 167.04 342.62 167.26
  Q 342.56 167.62 342.19 167.62
  L 341.76 167.62
  Q 341.24 167.62 340.95 168.06
  Q 337.97 172.46 340.18 178.13
  Q 341.94 182.66 346.12 183.15
  Q 348.98 190.76 356.21 197.52
  Q 357.77 198.98 356.71 201.00
  C 353.95 201.92 351.37 202.80 348.54 203.13
  Q 335.27 204.64 321.52 201.06
  C 312.84 198.80 302.46 192.15 301.97 182.52
  C 301.57 174.64 307.75 170.61 314.77 168.03
  Q 317.39 167.07 328.00 166.48
  Q 337.05 165.98 342.53 166.77
  Z"
/>
<ellipse fill="#18315a" cx="0.00" cy="0.00" transform="translate(240.44,169.06) rotate(90.4)" rx="2.34" ry="1.45"/>
<ellipse fill="#18315a" cx="0.00" cy="0.00" transform="translate(258.34,169.06) rotate(90.8)" rx="2.31" ry="1.48"/>
<path fill="#f37559" d="
  M 342.53 166.77
  Q 342.53 166.92 342.96 166.75
  Q 342.94 166.84 342.92 166.93
  Q 342.05 167.99 344.47 167.95
  Q 344.38 169.13 345.00 170.28
  Q 343.72 170.95 344.16 172.25
  C 345.29 175.63 345.39 178.39 346.19 181.52
  Q 346.59 183.08 346.12 183.15
  Q 341.94 182.66 340.18 178.13
  Q 337.97 172.46 340.95 168.06
  Q 341.24 167.62 341.76 167.62
  L 342.19 167.62
  Q 342.56 167.62 342.62 167.26
  Q 342.66 167.04 342.53 166.77
  Z"
/>
<path fill="#f37559" d="
  M 155.63 167.07
  C 157.48 168.21 158.71 168.20 159.04 170.82
  Q 160.33 180.88 151.58 183.00
  C 152.09 179.46 153.30 176.82 153.45 173.18
  Q 153.63 169.00 155.63 167.07
  Z"
/>
<path fill="#ffa683" d="
  M 361.7302 171.1095
  A 5.47 5.30 -11.5 0 1 357.4267 177.3936
  A 5.47 5.30 -11.5 0 1 351.0098 173.2905
  A 5.47 5.30 -11.5 0 1 355.3133 167.0064
  A 5.47 5.30 -11.5 0 1 361.7302 171.1095
  Z
  M 356.6079 174.2600
  A 2.31 1.49 90.3 0 0 358.1100 171.9578
  A 2.31 1.49 90.3 0 0 356.6321 169.6400
  A 2.31 1.49 90.3 0 0 355.1300 171.9422
  A 2.31 1.49 90.3 0 0 356.6079 174.2600
  Z"
/>
<path fill="#ffa683" d="
  M 379.44 172.21
  A 5.39 5.39 0.0 0 1 374.05 177.60
  A 5.39 5.39 0.0 0 1 368.66 172.21
  A 5.39 5.39 0.0 0 1 374.05 166.82
  A 5.39 5.39 0.0 0 1 379.44 172.21
  Z
  M 373.9675 174.0891
  A 2.24 1.44 91.6 0 0 375.4694 171.8902
  A 2.24 1.44 91.6 0 0 374.0925 169.6109
  A 2.24 1.44 91.6 0 0 372.5906 171.8098
  A 2.24 1.44 91.6 0 0 373.9675 174.0891
  Z"
/>
<path fill="#f37559" d="
  M 111.93 167.92
  Q 112.17 175.16 114.03 182.75
  C 105.83 182.88 103.62 165.14 111.93 167.92
  Z"
/>
<path fill="#18315a" d="
  M 386.51 167.77
  Q 387.16 168.22 387.07 167.89
  L 386.73 170.52
  Q 385.85 170.66 385.02 170.41
  Q 384.54 170.26 384.40 169.78
  L 384.05 168.52
  Q 385.31 167.82 386.51 167.77
  Z"
/>
<path fill="#f37559" d="
  M 384.43 183.06
  Q 385.82 179.20 385.94 178.14
  Q 386.41 173.95 387.22 172.05
  Q 387.45 171.50 387.35 171.21
  Q 387.21 170.80 386.73 170.52
  L 387.07 167.89
  C 395.93 166.73 392.41 184.31 384.43 183.06
  Z"
/>
<path fill="#000b2a" d="
  M 344.47 167.95
  Q 345.90 167.88 346.97 168.52
  Q 346.82 169.38 346.43 170.01
  Q 346.16 170.45 345.64 170.38
  L 345.00 170.28
  Q 344.38 169.13 344.47 167.95
  Z"
/>
<path fill="#ffa683" d="
  M 346.97 168.52
  Q 348.36 168.41 349.56 169.16
  Q 350.00 169.43 350.02 169.94
  Q 350.06 171.24 350.12 172.49
  C 350.44 179.50 358.84 180.70 362.07 175.53
  C 362.97 174.10 362.91 172.19 363.18 170.56
  Q 363.46 168.92 365.10 169.22
  L 365.98 169.38
  A 1.82 1.82 0.0 0 1 367.46 171.24
  C 367.11 181.42 381.40 181.07 380.46 170.63
  Q 380.42 170.14 380.79 169.80
  Q 382.17 168.53 384.05 168.52
  L 384.40 169.78
  Q 384.54 170.26 385.02 170.41
  Q 385.85 170.66 386.73 170.52
  Q 387.21 170.80 387.35 171.21
  Q 387.45 171.50 387.22 172.05
  Q 386.41 173.95 385.94 178.14
  Q 385.82 179.20 384.43 183.06
  Q 381.94 191.61 375.38 197.11
  Q 374.99 197.43 375.00 197.94
  L 375.07 205.03
  C 369.39 212.22 363.80 214.61 357.18 206.29
  L 356.71 201.00
  Q 357.77 198.98 356.21 197.52
  Q 348.98 190.76 346.12 183.15
  Q 346.59 183.08 346.19 181.52
  C 345.39 178.39 345.29 175.63 344.16 172.25
  Q 343.72 170.95 345.00 170.28
  L 345.64 170.38
  Q 346.16 170.45 346.43 170.01
  Q 346.82 169.38 346.97 168.52
  Z
  M 372.73 184.40
  L 358.53 184.50
  A 0.16 0.16 0.0 0 0 358.37 184.66
  L 358.37 184.67
  A 7.20 6.43 -0.4 0 0 365.61 191.05
  L 365.73 191.05
  A 7.20 6.43 -0.4 0 0 372.89 184.57
  L 372.89 184.56
  A 0.16 0.16 0.0 0 0 372.73 184.40
  Z
  M 357.41 199.97
  Q 357.49 201.45 358.95 201.66
  C 363.70 202.37 369.03 202.37 373.08 199.67
  Q 373.32 199.51 373.37 199.30
  Q 373.42 199.10 373.34 198.91
  A 0.46 0.45 -20.4 0 0 372.78 198.66
  Q 365.63 201.03 358.56 198.37
  A 0.88 0.88 0.0 0 0 357.37 199.24
  L 357.41 199.97
  Z"
/>
<ellipse fill="#18315a" cx="0.00" cy="0.00" transform="translate(124.07,171.51) rotate(90.0)" rx="2.39" ry="1.54"/>
<ellipse fill="#18315a" cx="0.00" cy="0.00" transform="translate(141.45,171.51) rotate(90.6)" rx="2.34" ry="1.48"/>
<ellipse fill="#18315a" cx="0.00" cy="0.00" transform="translate(356.62,171.95) rotate(90.3)" rx="2.31" ry="1.49"/>
<ellipse fill="#18315a" cx="0.00" cy="0.00" transform="translate(374.03,171.85) rotate(91.6)" rx="2.24" ry="1.44"/>
<path fill="#bbe2f3" d="
  M 65.77 177.41
  Q 68.76 185.13 72.64 192.36
  Q 73.31 193.62 73.79 195.91
  Q 73.89 196.42 73.55 196.04
  L 63.09 184.42
  Q 62.61 180.75 63.91 177.89
  Q 64.09 177.49 64.53 177.47
  L 65.77 177.41
  Z"
/>
<path fill="#000b2a" d="
  M 272.75 179.18
  C 272.64 185.57 270.02 193.54 264.28 196.36
  Q 263.11 196.94 258.64 198.43
  L 258.49 195.71
  Q 258.46 195.19 258.85 194.85
  Q 265.39 189.28 267.90 180.85
  Q 268.47 181.32 268.91 181.69
  Q 269.57 182.23 270.07 182.08
  Q 270.96 181.82 271.27 180.18
  L 272.75 179.18
  Z"
/>
<path fill="#ffffff" d="
  M 268.88 179.52
  Q 270.49 179.37 271.27 180.18
  Q 270.96 181.82 270.07 182.08
  Q 269.57 182.23 268.91 181.69
  Q 268.47 181.32 267.90 180.85
  Q 268.54 180.30 268.88 179.52
  Z"
/>
<path fill="#000b2a" d="
  M 231.86 182.12
  C 233.01 186.90 235.25 190.93 239.14 193.80
  Q 240.45 194.76 241.51 195.84
  Q 241.07 197.25 241.17 199.18
  L 241.08 199.47
  A 0.39 0.39 0.0 0 1 240.54 199.72
  Q 238.77 198.89 236.85 198.42
  C 232.81 197.42 230.99 186.56 230.68 183.25
  Q 230.59 182.28 231.86 182.12
  Z"
/>
<path fill="#ffffff" d="
  M 255.58 183.00
  A 0.18 0.18 0.0 0 1 255.76 183.18
  L 255.75 183.26
  A 6.39 5.86 0.1 0 1 249.35 189.11
  L 249.05 189.11
  A 6.39 5.86 0.1 0 1 242.67 183.24
  L 242.68 183.16
  A 0.18 0.18 0.0 0 1 242.86 182.98
  L 255.58 183.00
  Z"
/>
<path fill="#ffa683" d="
  M 130.50 183.73
  C 134.08 184.16 138.93 182.14 141.70 185.27
  C 142.93 186.65 142.57 188.75 141.01 189.89
  Q 131.85 196.62 123.05 188.83
  Q 122.68 188.50 122.63 188.00
  C 122.28 183.93 127.58 183.38 130.50 183.73
  Z
  M 138.97 184.71
  L 126.35 184.91
  A 0.19 0.19 0.0 0 0 126.16 185.10
  L 126.17 185.16
  A 6.34 6.03 -0.9 0 0 132.60 191.09
  L 132.92 191.09
  A 6.34 6.03 -0.9 0 0 139.16 184.96
  L 139.16 184.90
  A 0.19 0.19 0.0 0 0 138.97 184.71
  Z"
/>
<path fill="#ffffff" d="
  M 372.73 184.40
  A 0.16 0.16 0.0 0 1 372.89 184.56
  L 372.89 184.57
  A 7.20 6.43 -0.4 0 1 365.73 191.05
  L 365.61 191.05
  A 7.20 6.43 -0.4 0 1 358.37 184.67
  L 358.37 184.66
  A 0.16 0.16 0.0 0 1 358.53 184.50
  L 372.73 184.40
  Z"
/>
<path fill="#ffffff" d="
  M 138.97 184.71
  A 0.19 0.19 0.0 0 1 139.16 184.90
  L 139.16 184.96
  A 6.34 6.03 -0.9 0 1 132.92 191.09
  L 132.60 191.09
  A 6.34 6.03 -0.9 0 1 126.17 185.16
  L 126.16 185.10
  A 0.19 0.19 0.0 0 1 126.35 184.91
  L 138.97 184.71
  Z"
/>
<path fill="#bbe2f3" d="
  M 391.72 189.87
  C 399.07 188.51 409.82 193.55 412.95 200.48
  C 415.11 205.26 413.86 210.76 408.69 212.68
  C 402.93 214.81 392.83 210.92 388.41 207.59
  C 382.14 202.86 382.93 191.50 391.72 189.87
  Z"
/>
<path fill="#019cf8" d="
  M 65.20 230.13
  Q 67.79 231.33 74.01 232.51
  Q 79.37 233.52 85.24 238.16
  Q 79.75 251.34 75.54 265.30
  A 0.29 0.29 0.0 0 1 75.03 265.39
  Q 74.78 265.05 74.70 264.62
  Q 71.74 249.11 58.49 239.75
  A 0.73 0.72 -60.4 0 0 57.41 240.05
  L 57.29 240.30
  A 0.90 0.90 0.0 0 0 57.56 241.38
  C 69.67 250.73 75.70 263.73 71.25 279.01
  Q 63.03 307.24 61.06 335.70
  Q 61.06 335.80 60.96 335.80
  Q 60.91 335.80 60.87 335.79
  Q 60.19 335.68 60.43 335.37
  Q 58.72 333.62 56.22 332.59
  Q 56.38 332.63 56.51 332.47
  Q 56.72 332.23 56.49 332.01
  C 49.43 325.17 45.79 318.30 47.30 308.26
  Q 49.60 292.98 53.61 278.00
  Q 57.39 267.53 52.06 258.42
  C 47.89 251.29 42.24 245.76 37.08 239.42
  C 27.05 227.10 24.36 207.06 27.22 192.23
  Q 27.52 190.67 28.24 192.08
  C 34.86 204.92 44.36 217.56 55.71 225.79
  Q 59.28 228.39 65.20 230.13
  Z"
/>
<path fill="#bbe2f3" d="
  M 60.33 206.05
  Q 58.99 199.33 60.92 193.08
  Q 69.08 195.76 74.92 201.10
  A 4.50 4.50 0.0 0 1 76.17 203.03
  L 85.13 230.05
  Q 85.76 231.95 84.68 230.27
  Q 75.28 215.63 60.33 206.05
  Z"
/>
<path fill="#f37559" d="
  M 241.51 195.84
  C 246.79 196.95 251.77 198.09 257.06 195.77
  A 0.31 0.31 0.0 0 1 257.49 196.05
  L 257.50 196.35
  Q 257.51 197.08 256.85 197.41
  Q 249.15 201.27 241.17 199.18
  Q 241.07 197.25 241.51 195.84
  Z"
/>
<path fill="#f37559" d="
  M 357.41 199.97
  L 357.37 199.24
  A 0.88 0.88 0.0 0 1 358.56 198.37
  Q 365.63 201.03 372.78 198.66
  A 0.46 0.45 -20.4 0 1 373.34 198.91
  Q 373.42 199.10 373.37 199.30
  Q 373.32 199.51 373.08 199.67
  C 369.03 202.37 363.70 202.37 358.95 201.66
  Q 357.49 201.45 357.41 199.97
  Z"
/>
<path fill="#ffa683" d="
  M 141.55 199.96
  Q 142.37 202.48 142.06 204.38
  C 138.59 208.95 134.49 212.91 128.51 209.17
  Q 125.55 207.32 124.35 204.17
  Q 124.11 201.96 124.79 200.27
  C 129.32 207.04 137.01 206.74 141.55 199.96
  Z"
/>
<path fill="#ffffff" d="
  M 124.35 204.17
  Q 125.55 207.32 128.51 209.17
  C 134.49 212.91 138.59 208.95 142.06 204.38
  L 152.04 210.60
  C 148.84 228.07 145.56 245.11 146.36 263.00
  C 146.74 271.60 147.27 278.94 146.87 288.76
  C 146.45 298.89 145.04 309.35 143.90 319.60
  Q 143.02 327.53 143.49 332.00
  Q 145.89 354.76 142.92 377.59
  C 140.75 376.28 134.50 376.61 131.75 376.46
  Q 128.64 376.29 120.06 378.53
  Q 121.61 360.75 122.48 343.00
  C 123.20 328.38 122.15 318.84 119.98 303.00
  Q 117.26 283.12 120.05 263.25
  Q 121.51 252.83 120.22 240.75
  Q 118.21 222.04 116.20 210.15
  C 117.43 207.92 122.17 205.92 124.35 204.17
  Z"
/>
<path fill="#006bdf" d="
  M 375.07 205.03
  Q 382.53 210.80 391.03 214.94
  C 393.84 216.31 398.42 216.23 402.44 216.11
  C 412.89 215.81 423.86 212.87 433.57 209.06
  Q 434.35 208.75 434.69 208.97
  Q 435.13 209.26 435.28 210.18
  L 444.24 229.29
  Q 444.95 230.05 444.98 230.96
  Q 445.00 231.47 444.56 231.71
  Q 434.22 237.51 423.02 241.36
  Q 422.49 241.54 422.29 241.99
  L 410.77 243.81
  A 0.54 0.54 0.0 0 0 410.31 244.37
  L 411.70 282.29
  L 411.62 283.16
  A 0.93 0.92 25.8 0 1 410.03 283.71
  L 401.93 275.24
  A 2.71 2.70 -46.0 0 0 397.96 275.31
  L 390.82 283.28
  A 1.83 1.83 0.0 0 1 388.17 283.36
  L 380.28 275.61
  Q 378.26 273.62 376.26 275.63
  L 368.36 283.61
  Q 367.24 284.74 366.13 283.59
  L 358.77 275.94
  Q 356.20 273.27 353.69 275.98
  L 346.87 283.35
  Q 345.52 284.81 344.10 283.42
  Q 340.20 279.59 336.38 275.87
  Q 333.50 273.06 331.12 276.14
  Q 327.24 281.14 322.56 284.44
  L 322.71 278.68
  Q 322.76 277.02 321.89 278.44
  L 312.02 294.57
  Q 311.32 295.72 311.00 294.42
  L 310.63 292.88
  L 303.94 265.31
  Q 303.35 263.48 304.67 261.43
  Q 314.66 245.80 324.60 230.12
  Q 327.32 225.82 330.33 223.18
  Q 334.19 219.80 338.71 216.87
  L 357.18 206.29
  C 363.80 214.61 369.39 212.22 375.07 205.03
  Z
  M 356.52 230.94
  C 366.54 229.16 375.37 224.02 381.01 215.01
  A 0.36 0.35 26.3 0 0 380.83 214.48
  L 380.49 214.36
  A 0.57 0.57 0.0 0 0 379.83 214.57
  Q 372.19 225.62 359.31 229.20
  Q 357.03 229.84 356.26 230.16
  Q 352.75 231.60 356.52 230.94
  Z"
/>
<path fill="#ffa683" d="
  M 272.45 210.01
  C 267.81 220.12 258.14 227.60 246.45 225.32
  Q 233.51 222.81 226.64 211.97
  Q 226.21 210.52 227.42 209.92
  Q 231.46 207.91 235.33 205.89
  A 0.51 0.50 66.2 0 1 236.03 206.17
  C 238.36 212.51 244.18 218.75 251.86 217.53
  Q 260.13 216.22 262.36 207.48
  Q 262.44 207.18 262.21 206.78
  Q 262.43 206.01 262.79 205.58
  Q 263.13 205.17 263.60 205.41
  L 272.45 210.01
  Z"
/>
<rect fill="#f37559" x="-3.70" y="-0.46" transform="translate(448.27,209.82) rotate(30.5)" width="7.40" height="0.92" rx="0.43"/>
<path fill="#006bdf" d="
  M 116.20 210.15
  Q 118.21 222.04 120.22 240.75
  Q 121.51 252.83 120.05 263.25
  Q 117.26 283.12 119.98 303.00
  C 122.15 318.84 123.20 328.38 122.48 343.00
  Q 121.61 360.75 120.06 378.53
  L 119.08 389.14
  L 93.16 385.41
  Q 92.63 385.34 92.49 385.85
  Q 92.08 387.38 92.50 388.80
  Q 92.08 398.68 93.06 407.91
  A 0.77 0.76 86.7 0 0 93.83 408.60
  L 129.51 408.36
  Q 133.93 408.81 137.00 408.95
  Q 137.52 408.98 138.26 408.29
  L 174.85 408.62
  L 200.80 408.68
  Q 201.84 408.68 202.05 407.66
  Q 203.63 399.79 204.41 391.74
  Q 204.45 391.35 203.99 390.65
  Q 204.30 390.94 204.50 390.28
  Q 205.31 387.67 205.77 384.67
  Q 215.77 384.32 225.79 385.05
  C 229.91 385.34 233.74 384.88 237.78 384.59
  A 0.50 0.50 0.0 0 1 238.30 384.95
  Q 238.35 385.11 238.27 385.27
  L 238.20 399.89
  L 227.10 400.25
  A 6.37 6.37 0.0 0 0 221.42 404.21
  L 221.21 404.73
  Q 219.68 408.48 223.73 408.48
  L 273.52 408.51
  Q 276.08 408.52 275.85 405.97
  L 275.64 403.66
  Q 275.39 400.92 272.65 400.71
  L 259.24 399.67
  Q 260.16 392.71 259.34 385.73
  Q 259.40 384.69 260.38 384.70
  Q 277.09 384.81 293.64 384.56
  L 294.78 391.65
  L 297.28 407.83
  A 1.14 1.14 0.0 0 0 298.42 408.80
  L 324.96 408.65
  L 353.93 408.52
  Q 356.44 408.64 357.85 408.20
  Q 360.05 408.08 361.35 408.64
  L 372.08 408.62
  L 376.06 408.28
  L 379.31 408.50
  L 408.70 408.56
  L 425.84 408.48
  L 429.82 408.63
  Q 439.15 408.63 448.13 408.63
  C 452.41 408.64 456.53 412.10 456.01 416.61
  L 44.81 416.56
  Q 45.43 408.40 54.03 408.47
  Q 65.15 408.56 75.15 408.70
  Q 77.91 408.73 75.37 407.66
  Q 68.05 404.58 61.83 398.71
  Q 61.93 397.12 61.53 393.01
  Q 60.79 385.42 64.59 379.36
  Q 66.27 376.69 66.85 379.79
  Q 66.89 380.02 66.60 381.62
  C 66.17 383.99 65.31 389.50 66.54 391.57
  A 0.95 0.94 47.9 0 0 68.12 391.65
  Q 73.31 384.47 74.10 375.78
  Q 74.15 374.65 74.29 374.58
  A 1.80 1.80 0.0 0 1 76.75 375.31
  C 78.71 379.02 79.46 381.43 80.38 386.08
  Q 82.75 398.06 91.05 407.40
  Q 91.21 407.58 91.43 407.49
  L 91.82 407.31
  A 0.26 0.26 0.0 0 0 91.93 406.92
  C 87.74 400.89 83.24 394.00 82.00 386.40
  C 81.04 380.49 79.52 373.81 73.97 370.54
  L 73.49 363.25
  Q 76.24 361.76 76.92 356.98
  A 0.39 0.38 2.5 0 0 76.52 356.55
  Q 68.95 356.88 61.52 355.42
  Q 60.51 355.22 60.57 356.26
  Q 60.83 360.16 62.08 362.03
  Q 62.59 363.96 62.18 364.89
  Q 59.30 371.45 56.64 378.49
  Q 54.14 373.77 51.03 373.34
  C 41.64 372.06 31.58 366.64 30.35 356.58
  Q 30.11 354.60 30.97 349.98
  C 33.34 337.13 24.51 322.91 16.42 313.91
  Q 15.34 312.71 16.91 313.05
  C 26.85 315.17 35.88 320.11 42.12 328.19
  C 48.36 336.27 49.17 346.39 60.32 350.02
  A 0.45 0.44 9.1 0 0 60.91 349.60
  L 60.87 335.79
  Q 60.91 335.80 60.96 335.80
  Q 61.06 335.80 61.06 335.70
  Q 63.03 307.24 71.25 279.01
  C 75.70 263.73 69.67 250.73 57.56 241.38
  A 0.90 0.90 0.0 0 1 57.29 240.30
  L 57.41 240.05
  A 0.73 0.72 -60.4 0 1 58.49 239.75
  Q 71.74 249.11 74.70 264.62
  Q 74.78 265.05 75.03 265.39
  A 0.29 0.29 0.0 0 0 75.54 265.30
  Q 79.75 251.34 85.24 238.16
  Q 85.98 237.08 85.71 236.37
  L 88.56 229.49
  Q 91.24 223.97 96.59 220.59
  Q 106.42 214.36 115.38 209.81
  Q 115.73 209.63 116.00 209.92
  L 116.20 210.15
  Z
  M 95.5104 272.6629
  A 0.33 0.33 0.0 0 0 95.2827 272.2555
  L 94.5899 272.0594
  A 0.33 0.33 0.0 0 0 94.1825 272.2871
  L 84.3096 307.1771
  A 0.33 0.33 0.0 0 0 84.5373 307.5845
  L 85.2301 307.7806
  A 0.33 0.33 0.0 0 0 85.6375 307.5529
  L 95.5104 272.6629
  Z
  M 78.26 345.62
  L 77.19 351.44
  Q 77.07 352.08 77.71 352.21
  L 84.26 353.46
  Q 84.82 353.57 84.86 353.00
  Q 84.93 352.10 84.65 351.39
  Q 85.08 334.17 85.39 317.36
  C 85.41 316.26 84.84 315.51 83.81 315.24
  A 0.55 0.55 0.0 0 0 83.14 315.68
  L 78.26 345.62
  Z
  M 39.28 343.48
  L 39.01 343.57
  Q 38.84 343.63 38.88 343.80
  Q 43.23 359.92 59.47 363.24
  Q 59.75 363.30 59.81 363.01
  L 59.87 362.65
  A 0.46 0.46 0.0 0 0 59.54 362.12
  Q 52.26 360.05 50.12 358.64
  C 44.75 355.09 41.71 349.71 39.54 343.61
  Q 39.47 343.42 39.28 343.48
  Z
  M 272.55 386.13
  A 2.09 2.09 0.0 0 0 269.58 387.62
  L 269.10 390.19
  A 2.09 2.09 0.0 0 0 270.91 392.65
  L 272.83 392.87
  A 2.09 2.09 0.0 0 0 275.16 390.76
  L 275.12 388.65
  A 2.09 2.09 0.0 0 0 273.94 386.80
  L 272.55 386.13
  Z
  M 217.4100 394.0161
  A 3.41 3.06 23.8 0 0 215.5248 389.8402
  A 3.41 3.06 23.8 0 0 211.1700 391.2639
  A 3.41 3.06 23.8 0 0 213.0552 395.4398
  A 3.41 3.06 23.8 0 0 217.4100 394.0161
  Z
  M 291.8632 396.2924
  A 3.38 3.20 -28.4 0 0 287.3680 395.0851
  A 3.38 3.20 -28.4 0 0 285.9168 399.5076
  A 3.38 3.20 -28.4 0 0 290.4120 400.7149
  A 3.38 3.20 -28.4 0 0 291.8632 396.2924
  Z"
/>
<path fill="#019cf8" d="
  M 272.45 210.01
  Q 280.40 213.64 287.15 219.18
  C 288.70 220.46 289.44 221.79 290.43 223.48
  Q 289.96 223.70 290.20 224.34
  C 295.86 239.12 300.66 256.77 299.31 272.68
  C 298.47 281.60 295.51 286.08 286.46 287.79
  Q 285.31 287.74 284.64 288.13
  A 0.84 0.84 0.0 0 0 284.23 288.87
  L 284.92 308.73
  Q 275.71 309.02 266.83 308.39
  Q 265.84 308.32 264.67 308.44
  C 259.43 308.95 252.81 309.27 247.60 308.60
  C 246.10 308.40 244.13 308.74 243.21 308.74
  Q 229.19 308.75 214.94 308.88
  L 215.59 293.32
  Q 216.09 290.81 215.41 288.31
  A 0.72 0.72 0.0 0 0 214.77 287.78
  Q 207.79 287.22 201.30 284.53
  A 0.94 0.93 -79.6 0 1 200.72 283.68
  L 200.24 267.16
  C 204.33 266.20 208.03 265.16 212.25 265.82
  C 217.77 266.68 222.72 268.18 228.61 268.61
  Q 229.09 268.64 229.39 268.28
  Q 231.83 265.33 229.68 262.09
  C 223.48 252.77 211.19 249.10 201.38 255.23
  Q 203.62 238.76 209.58 223.31
  C 211.63 218.00 220.56 213.58 225.38 211.06
  Q 225.84 210.82 226.14 211.24
  L 226.64 211.97
  Q 233.51 222.81 246.45 225.32
  C 258.14 227.60 267.81 220.12 272.45 210.01
  Z
  M 272.31 222.77
  L 272.10 222.63
  Q 271.95 222.54 271.87 222.69
  C 266.37 232.15 257.12 237.19 246.53 239.21
  Q 246.34 239.25 246.38 239.44
  L 246.44 239.73
  Q 246.53 240.18 246.99 240.09
  C 257.40 238.00 267.13 232.94 272.46 223.35
  Q 272.65 222.99 272.31 222.77
  Z
  M 272.13 277.75
  Q 264.99 281.02 257.29 282.41
  Q 257.04 282.46 257.10 282.70
  L 257.16 282.95
  A 0.50 0.50 0.0 0 0 257.76 283.32
  C 262.89 282.07 269.74 280.89 273.69 278.25
  Q 278.85 274.81 280.91 268.43
  Q 281.97 266.52 284.13 264.60
  A 1.02 1.01 61.4 0 0 284.43 263.57
  L 282.16 255.09
  A 0.96 0.96 0.0 0 0 281.17 254.37
  C 274.47 254.81 269.74 260.52 267.20 266.16
  Q 266.78 267.09 267.24 268.01
  L 272.13 277.75
  Z
  M 286.06 264.27
  L 285.89 264.61
  A 0.27 0.27 0.0 0 0 286.01 264.97
  Q 289.44 266.58 291.56 269.66
  Q 291.80 270.00 292.13 269.73
  L 292.36 269.55
  A 0.44 0.44 0.0 0 0 292.43 268.95
  Q 290.05 265.79 286.46 264.13
  Q 286.19 264.01 286.06 264.27
  Z
  M 243.64 307.68
  Q 246.31 308.09 244.05 306.69
  Q 233.79 300.29 225.58 291.40
  Q 225.39 291.20 225.20 291.39
  L 224.97 291.62
  A 0.42 0.42 0.0 0 0 224.97 292.21
  Q 232.59 299.98 241.35 306.41
  Q 242.95 307.58 243.64 307.68
  Z
  M 264.20 307.60
  C 256.01 304.23 249.84 301.60 241.80 295.29
  Q 241.49 295.05 241.25 295.36
  L 241.07 295.58
  Q 240.94 295.74 241.10 295.87
  C 248.11 301.51 255.10 305.53 263.71 308.24
  Q 264.06 308.34 264.18 308.00
  L 264.27 307.76
  Q 264.31 307.64 264.20 307.60
  Z"
/>
<path fill="#006bdf" d="
  M 199.88 264.19
  Q 200.97 263.19 200.24 267.16
  L 200.72 283.68
  A 0.94 0.93 -79.6 0 0 201.30 284.53
  Q 207.79 287.22 214.77 287.78
  A 0.72 0.72 0.0 0 1 215.41 288.31
  Q 216.09 290.81 215.59 293.32
  C 211.26 298.13 206.79 302.99 200.10 297.61
  C 192.74 291.70 187.29 284.08 182.69 276.32
  Q 182.04 275.22 182.06 276.50
  L 182.73 309.43
  Q 182.04 311.44 181.66 312.96
  Q 181.29 314.43 181.28 316.59
  Q 181.23 346.55 181.23 376.50
  Q 181.23 380.14 182.06 383.44
  Q 180.93 384.51 181.59 384.54
  L 174.93 385.27
  Q 158.69 388.83 141.69 389.37
  Q 143.48 383.34 142.92 377.59
  Q 145.89 354.76 143.49 332.00
  Q 143.02 327.53 143.90 319.60
  C 145.04 309.35 146.45 298.89 146.87 288.76
  C 147.27 278.94 146.74 271.60 146.36 263.00
  C 145.56 245.11 148.84 228.07 152.04 210.60
  Q 152.16 210.59 152.27 210.46
  Q 152.37 210.34 152.51 210.41
  Q 165.55 216.72 175.05 223.40
  C 177.40 225.05 179.17 227.54 180.73 230.35
  Q 190.14 247.30 199.88 264.19
  Z
  M 168.77 283.81
  C 169.86 294.36 168.86 301.61 165.25 309.51
  C 163.52 313.29 161.22 318.02 161.03 322.19
  Q 160.94 324.10 160.82 326.07
  Q 160.81 326.38 161.12 326.38
  L 161.44 326.38
  A 0.58 0.57 4.0 0 0 162.01 325.89
  C 162.50 322.67 162.78 319.61 164.01 316.58
  C 166.15 311.28 169.19 305.65 169.97 300.39
  Q 171.00 293.36 170.10 283.72
  Q 170.07 283.37 169.71 283.37
  L 169.16 283.37
  Q 168.72 283.37 168.77 283.81
  Z"
/>
<path fill="#274cbe" d="
  M 381.01 215.01
  C 375.37 224.02 366.54 229.16 356.52 230.94
  Q 352.75 231.60 356.26 230.16
  Q 357.03 229.84 359.31 229.20
  Q 372.19 225.62 379.83 214.57
  A 0.57 0.57 0.0 0 1 380.49 214.36
  L 380.83 214.48
  A 0.36 0.35 26.3 0 1 381.01 215.01
  Z"
/>
<path fill="#bbe2f3" d="
  M 338.71 216.87
  Q 334.19 219.80 330.33 223.18
  Q 327.32 225.82 324.60 230.12
  Q 314.66 245.80 304.67 261.43
  Q 303.35 263.48 303.94 265.31
  Q 303.47 266.67 302.51 267.88
  Q 301.78 271.29 299.31 272.68
  C 300.66 256.77 295.86 239.12 290.20 224.34
  Q 289.96 223.70 290.43 223.48
  Q 290.88 223.75 291.19 223.28
  Q 291.46 222.88 291.93 222.77
  Q 312.01 218.19 332.50 216.30
  Q 334.96 216.07 338.71 216.87
  Z"
/>
<path fill="#006bdf" d="
  M 272.46 223.35
  C 267.13 232.94 257.40 238.00 246.99 240.09
  Q 246.53 240.18 246.44 239.73
  L 246.38 239.44
  Q 246.34 239.25 246.53 239.21
  C 257.12 237.19 266.37 232.15 271.87 222.69
  Q 271.95 222.54 272.10 222.63
  L 272.31 222.77
  Q 272.65 222.99 272.46 223.35
  Z"
/>
<path fill="#bbe2f3" d="
  M 61.98 223.60
  Q 75.05 227.46 85.71 236.37
  Q 85.98 237.08 85.24 238.16
  Q 79.37 233.52 74.01 232.51
  Q 67.79 231.33 65.20 230.13
  Q 64.94 228.13 62.52 228.01
  A 0.22 0.22 0.0 0 1 62.37 227.63
  L 62.74 227.25
  Q 62.99 227.00 62.66 226.88
  Q 61.76 226.55 62.20 225.49
  A 0.45 0.44 8.9 0 0 61.75 224.88
  Q 61.60 224.89 61.45 224.91
  A 0.33 0.32 88.2 0 0 61.15 225.24
  L 61.14 226.99
  Q 61.13 227.81 60.88 227.02
  Q 60.52 225.90 60.63 224.75
  Q 60.71 223.92 61.28 224.52
  L 61.49 224.74
  Q 61.78 225.03 62.03 224.71
  Q 62.12 224.58 62.29 224.60
  A 0.30 0.29 -11.4 0 0 62.58 224.17
  Q 62.38 223.78 61.98 223.60
  Z"
/>
<path fill="#bbe2f3" d="
  M 422.29 241.99
  Q 429.91 252.37 431.89 264.75
  C 432.89 271.02 434.11 282.05 431.31 287.86
  Q 427.80 288.55 424.01 289.13
  Q 416.43 290.31 412.42 296.71
  Q 412.26 296.95 412.02 296.78
  L 411.70 282.29
  L 410.31 244.37
  A 0.54 0.54 0.0 0 1 410.77 243.81
  L 422.29 241.99
  Z"
/>
<path fill="#ffa683" d="
  M 200.24 267.16
  Q 200.97 263.19 199.88 264.19
  L 201.38 255.23
  C 211.19 249.10 223.48 252.77 229.68 262.09
  Q 231.83 265.33 229.39 268.28
  Q 229.09 268.64 228.61 268.61
  C 222.72 268.18 217.77 266.68 212.25 265.82
  C 208.03 265.16 204.33 266.20 200.24 267.16
  Z"
/>
<path fill="#ffa683" d="
  M 280.91 268.43
  C 278.19 272.23 276.74 275.52 272.13 277.75
  L 267.24 268.01
  Q 266.78 267.09 267.20 266.16
  C 269.74 260.52 274.47 254.81 281.17 254.37
  A 0.96 0.96 0.0 0 1 282.16 255.09
  L 284.43 263.57
  A 1.02 1.01 61.4 0 1 284.13 264.60
  Q 281.97 266.52 280.91 268.43
  Z"
/>
<path fill="#019cf8" d="
  M 459.68 276.95
  Q 457.10 290.79 445.66 300.67
  Q 445.18 301.09 445.46 301.34
  Q 440.98 304.26 437.90 308.91
  Q 433.95 314.88 435.70 321.59
  Q 437.79 334.18 437.92 346.20
  C 436.89 353.29 433.11 356.42 427.71 360.31
  L 413.20 366.87
  Q 413.04 367.14 412.87 367.14
  Q 412.47 367.14 412.47 366.74
  L 412.40 345.86
  A 2.21 2.21 0.0 0 1 413.21 344.13
  C 420.58 337.96 422.33 326.07 423.10 317.15
  Q 423.63 310.91 424.43 308.73
  C 426.47 303.12 430.93 299.25 435.91 295.87
  Q 436.48 295.48 435.98 295.01
  L 435.71 294.76
  A 0.40 0.40 0.0 0 0 435.22 294.72
  C 429.06 298.78 423.80 303.98 422.36 311.52
  C 420.35 322.07 421.33 333.12 413.56 341.97
  Q 412.46 343.22 412.43 341.55
  Q 412.18 323.49 412.23 305.50
  Q 412.23 303.31 411.63 297.76
  L 412.02 296.78
  Q 412.26 296.95 412.42 296.71
  Q 416.43 290.31 424.01 289.13
  Q 427.80 288.55 431.31 287.86
  Q 440.56 285.43 447.73 278.47
  Q 454.69 271.71 459.61 264.27
  Q 460.51 262.92 460.62 264.54
  Q 461.03 270.36 459.68 276.95
  Z"
/>
<path fill="#006bdf" d="
  M 286.46 264.13
  Q 290.05 265.79 292.43 268.95
  A 0.44 0.44 0.0 0 1 292.36 269.55
  L 292.13 269.73
  Q 291.80 270.00 291.56 269.66
  Q 289.44 266.58 286.01 264.97
  A 0.27 0.27 0.0 0 1 285.89 264.61
  L 286.06 264.27
  Q 286.19 264.01 286.46 264.13
  Z"
/>
<path fill="#f37559" d="
  M 303.94 265.31
  L 310.63 292.88
  Q 309.72 293.11 307.63 295.31
  Q 304.08 281.72 302.51 267.88
  Q 303.47 266.67 303.94 265.31
  Z"
/>
<path fill="#ffa683" d="
  M 302.51 267.88
  Q 304.08 281.72 307.63 295.31
  Q 305.75 297.58 301.91 299.22
  C 299.37 300.30 297.21 300.34 295.05 298.71
  Q 289.69 294.68 286.15 288.98
  Q 285.72 288.31 286.46 287.79
  C 295.51 286.08 298.47 281.60 299.31 272.68
  Q 301.78 271.29 302.51 267.88
  Z"
/>
<path fill="#006bdf" d="
  M 280.91 268.43
  Q 278.85 274.81 273.69 278.25
  C 269.74 280.89 262.89 282.07 257.76 283.32
  A 0.50 0.50 0.0 0 1 257.16 282.95
  L 257.10 282.70
  Q 257.04 282.46 257.29 282.41
  Q 264.99 281.02 272.13 277.75
  C 276.74 275.52 278.19 272.23 280.91 268.43
  Z"
/>
<rect fill="#274cbe" x="-0.69" y="-18.46" transform="translate(89.91,289.92) rotate(15.8)" width="1.38" height="36.92" rx="0.33"/>
<path fill="#bbe2f3" d="
  M 53.61 278.00
  Q 49.60 292.98 47.30 308.26
  C 45.79 318.30 49.43 325.17 56.49 332.01
  Q 56.72 332.23 56.51 332.47
  Q 56.38 332.63 56.22 332.59
  Q 55.66 332.52 55.50 332.78
  C 54.02 335.17 51.45 333.39 49.71 332.51
  C 36.68 321.98 26.31 295.91 34.53 280.83
  C 37.94 274.58 46.30 272.25 52.34 276.38
  Q 52.75 276.66 52.74 277.16
  Q 52.72 277.97 53.61 278.00
  Z"
/>
<path fill="#274cbe" d="
  M 411.70 282.29
  L 412.02 296.78
  L 411.63 297.76
  Q 409.98 297.91 409.03 299.05
  Q 405.65 303.10 402.00 306.41
  A 2.51 2.50 47.4 0 1 398.48 306.26
  L 391.16 298.40
  A 2.37 2.36 45.2 0 0 387.71 298.38
  L 380.18 306.30
  A 2.30 2.29 43.7 0 1 376.92 306.37
  C 374.17 303.73 371.08 299.50 367.86 297.58
  A 0.99 0.98 -43.0 0 0 366.92 297.55
  C 364.15 298.93 360.35 303.75 358.09 306.19
  A 2.50 2.50 0.0 0 1 354.41 306.17
  Q 351.62 303.11 348.59 299.67
  C 346.97 297.83 345.12 296.57 343.00 298.74
  Q 339.28 302.57 335.90 306.39
  A 2.23 2.22 -46.6 0 1 332.65 306.49
  L 323.53 297.30
  A 0.18 0.18 0.0 0 0 323.27 297.30
  Q 323.15 297.42 322.99 297.36
  Q 322.34 297.15 322.28 296.89
  L 322.13 296.21
  L 322.56 284.44
  Q 327.24 281.14 331.12 276.14
  Q 333.50 273.06 336.38 275.87
  Q 340.20 279.59 344.10 283.42
  Q 345.52 284.81 346.87 283.35
  L 353.69 275.98
  Q 356.20 273.27 358.77 275.94
  L 366.13 283.59
  Q 367.24 284.74 368.36 283.61
  L 376.26 275.63
  Q 378.26 273.62 380.28 275.61
  L 388.17 283.36
  A 1.83 1.83 0.0 0 0 390.82 283.28
  L 397.96 275.31
  A 2.71 2.70 -46.0 0 1 401.93 275.24
  L 410.03 283.71
  A 0.93 0.92 25.8 0 0 411.62 283.16
  L 411.70 282.29
  Z"
/>
<path fill="#bbe2f3" d="
  M 215.59 293.32
  L 214.94 308.88
  Q 198.71 308.26 182.73 309.43
  L 182.06 276.50
  Q 182.04 275.22 182.69 276.32
  C 187.29 284.08 192.74 291.70 200.10 297.61
  C 206.79 302.99 211.26 298.13 215.59 293.32
  Z"
/>
<path fill="#bbe2f3" d="
  M 459.68 276.95
  Q 466.94 279.26 467.08 286.02
  C 467.22 293.42 462.96 302.89 455.53 305.80
  Q 449.91 308.01 445.18 302.92
  A 0.48 0.48 0.0 0 1 445.54 302.11
  L 445.99 302.12
  Q 446.46 302.14 446.28 301.70
  Q 446.11 301.27 445.46 301.34
  Q 445.18 301.09 445.66 300.67
  Q 457.10 290.79 459.68 276.95
  Z"
/>
<path fill="#bbe2f3" d="
  M 322.56 284.44
  L 322.13 296.21
  L 321.05 385.72
  L 294.78 391.65
  L 293.64 384.56
  Q 301.78 384.85 309.74 384.96
  Q 316.49 385.06 316.48 378.75
  Q 316.46 347.69 316.44 316.62
  C 316.44 312.05 315.70 308.78 310.50 308.79
  Q 297.55 308.82 284.92 308.73
  L 284.23 288.87
  A 0.84 0.84 0.0 0 1 284.64 288.13
  Q 285.31 287.74 286.46 287.79
  Q 285.72 288.31 286.15 288.98
  Q 289.69 294.68 295.05 298.71
  C 297.21 300.34 299.37 300.30 301.91 299.22
  Q 305.75 297.58 307.63 295.31
  Q 309.72 293.11 310.63 292.88
  L 311.00 294.42
  Q 311.32 295.72 312.02 294.57
  L 321.89 278.44
  Q 322.76 277.02 322.71 278.68
  L 322.56 284.44
  Z"
/>
<path fill="#274cbe" d="
  M 168.77 283.81
  Q 168.72 283.37 169.16 283.37
  L 169.71 283.37
  Q 170.07 283.37 170.10 283.72
  Q 171.00 293.36 169.97 300.39
  C 169.19 305.65 166.15 311.28 164.01 316.58
  C 162.78 319.61 162.50 322.67 162.01 325.89
  A 0.58 0.57 4.0 0 1 161.44 326.38
  L 161.12 326.38
  Q 160.81 326.38 160.82 326.07
  Q 160.94 324.10 161.03 322.19
  C 161.22 318.02 163.52 313.29 165.25 309.51
  C 168.86 301.61 169.86 294.36 168.77 283.81
  Z"
/>
<path fill="#006bdf" d="
  M 243.64 307.68
  Q 242.95 307.58 241.35 306.41
  Q 232.59 299.98 224.97 292.21
  A 0.42 0.42 0.0 0 1 224.97 291.62
  L 225.20 291.39
  Q 225.39 291.20 225.58 291.40
  Q 233.79 300.29 244.05 306.69
  Q 246.31 308.09 243.64 307.68
  Z"
/>
<path fill="#006bdf" d="
  M 413.20 366.87
  Q 413.44 367.16 412.83 367.43
  L 412.27 385.10
  A 1.52 1.52 0.0 0 1 411.16 386.52
  L 407.45 387.53
  Q 389.30 391.79 371.12 392.37
  L 362.32 392.43
  Q 344.13 391.87 326.14 387.40
  Q 323.27 386.98 321.05 385.72
  L 322.13 296.21
  L 322.28 296.89
  Q 322.34 297.15 322.99 297.36
  Q 323.15 297.42 323.27 297.30
  A 0.18 0.18 0.0 0 1 323.53 297.30
  L 332.65 306.49
  A 2.23 2.22 -46.6 0 0 335.90 306.39
  Q 339.28 302.57 343.00 298.74
  C 345.12 296.57 346.97 297.83 348.59 299.67
  Q 351.62 303.11 354.41 306.17
  A 2.50 2.50 0.0 0 0 358.09 306.19
  C 360.35 303.75 364.15 298.93 366.92 297.55
  A 0.99 0.98 -43.0 0 1 367.86 297.58
  C 371.08 299.50 374.17 303.73 376.92 306.37
  A 2.30 2.29 43.7 0 0 380.18 306.30
  L 387.71 298.38
  A 2.37 2.36 45.2 0 1 391.16 298.40
  L 398.48 306.26
  A 2.51 2.50 47.4 0 0 402.00 306.41
  Q 405.65 303.10 409.03 299.05
  Q 409.98 297.91 411.63 297.76
  Q 412.23 303.31 412.23 305.50
  Q 412.18 323.49 412.43 341.55
  Q 412.46 343.22 413.56 341.97
  C 421.33 333.12 420.35 322.07 422.36 311.52
  C 423.80 303.98 429.06 298.78 435.22 294.72
  A 0.40 0.40 0.0 0 1 435.71 294.76
  L 435.98 295.01
  Q 436.48 295.48 435.91 295.87
  C 430.93 299.25 426.47 303.12 424.43 308.73
  Q 423.63 310.91 423.10 317.15
  C 422.33 326.07 420.58 337.96 413.21 344.13
  A 2.21 2.21 0.0 0 0 412.40 345.86
  L 412.47 366.74
  Q 412.47 367.14 412.87 367.14
  Q 413.04 367.14 413.20 366.87
  Z
  M 391.04 356.43
  C 380.42 355.70 371.12 353.12 362.41 348.08
  Q 350.11 340.96 340.15 330.54
  Q 339.98 330.36 339.80 330.53
  L 339.35 330.97
  Q 339.17 331.14 339.35 331.32
  Q 350.53 342.80 364.45 350.11
  C 371.90 354.02 382.84 357.25 391.27 357.01
  Q 391.30 357.01 391.30 356.98
  L 391.31 356.73
  Q 391.32 356.45 391.04 356.43
  Z"
/>
<path fill="#006bdf" d="
  M 241.80 295.29
  C 249.84 301.60 256.01 304.23 264.20 307.60
  Q 264.31 307.64 264.27 307.76
  L 264.18 308.00
  Q 264.06 308.34 263.71 308.24
  C 255.10 305.53 248.11 301.51 241.10 295.87
  Q 240.94 295.74 241.07 295.58
  L 241.25 295.36
  Q 241.49 295.05 241.80 295.29
  Z"
/>
<path fill="#1c31b4" d="
  M 429.82 408.63
  L 425.84 408.48
  C 426.69 406.14 427.64 404.30 427.21 401.77
  C 425.05 388.87 419.32 378.54 412.83 367.43
  Q 413.44 367.16 413.20 366.87
  L 427.71 360.31
  Q 432.35 377.22 430.49 393.36
  Q 430.08 396.87 431.32 393.56
  Q 436.67 379.24 442.34 364.04
  C 444.14 359.20 440.29 350.51 437.92 346.20
  Q 437.79 334.18 435.70 321.59
  C 444.13 328.35 445.94 343.79 445.14 353.74
  Q 444.85 357.23 446.16 353.98
  C 446.86 352.23 447.50 350.20 447.85 348.05
  C 450.02 334.80 458.06 313.49 470.55 306.56
  C 473.53 304.91 478.29 305.47 479.02 309.36
  C 480.45 316.94 465.00 332.49 460.35 337.11
  Q 458.14 339.30 454.75 344.75
  C 451.40 350.11 449.26 356.15 447.24 362.07
  Q 446.59 363.99 447.90 362.45
  C 452.83 356.63 464.74 346.63 473.22 348.43
  C 476.00 349.02 477.82 351.58 476.11 354.30
  C 473.55 358.37 464.93 361.91 460.26 363.54
  Q 450.43 366.96 444.25 370.93
  A 1.61 1.61 0.0 0 0 443.60 371.73
  L 429.82 408.63
  Z"
/>
<path fill="#18315a" d="
  M 284.92 308.73
  Q 297.55 308.82 310.50 308.79
  C 315.70 308.78 316.44 312.05 316.44 316.62
  Q 316.46 347.69 316.48 378.75
  Q 316.49 385.06 309.74 384.96
  Q 301.78 384.85 293.64 384.56
  Q 277.09 384.81 260.38 384.70
  Q 259.40 384.69 259.34 385.73
  L 259.26 385.13
  Q 259.17 384.50 258.54 384.50
  L 239.48 384.48
  Q 238.99 384.48 238.66 384.84
  L 238.27 385.27
  Q 238.35 385.11 238.30 384.95
  A 0.50 0.50 0.0 0 0 237.78 384.59
  C 233.74 384.88 229.91 385.34 225.79 385.05
  Q 215.77 384.32 205.77 384.67
  Q 196.40 384.80 187.06 384.74
  C 185.11 384.73 183.85 384.04 182.06 383.44
  Q 181.23 380.14 181.23 376.50
  Q 181.23 346.55 181.28 316.59
  Q 181.29 314.43 181.66 312.96
  Q 182.04 311.44 182.73 309.43
  Q 198.71 308.26 214.94 308.88
  Q 229.19 308.75 243.21 308.74
  C 244.13 308.74 246.10 308.40 247.60 308.60
  C 252.81 309.27 259.43 308.95 264.67 308.44
  Q 265.84 308.32 266.83 308.39
  Q 275.71 309.02 284.92 308.73
  Z
  M 258.92 347.69
  A 10.31 10.31 0.0 0 0 248.61 337.38
  A 10.31 10.31 0.0 0 0 238.30 347.69
  A 10.31 10.31 0.0 0 0 248.61 358.00
  A 10.31 10.31 0.0 0 0 258.92 347.69
  Z"
/>
<path fill="#019cf8" d="
  M 84.65 351.39
  L 78.26 345.62
  L 83.14 315.68
  A 0.55 0.55 0.0 0 1 83.81 315.24
  C 84.84 315.51 85.41 316.26 85.39 317.36
  Q 85.08 334.17 84.65 351.39
  Z"
/>
<path fill="#274cbe" d="
  M 362.41 348.08
  C 371.12 353.12 380.42 355.70 391.04 356.43
  Q 391.32 356.45 391.31 356.73
  L 391.30 356.98
  Q 391.30 357.01 391.27 357.01
  C 382.84 357.25 371.90 354.02 364.45 350.11
  Q 350.53 342.80 339.35 331.32
  Q 339.17 331.14 339.35 330.97
  L 339.80 330.53
  Q 339.98 330.36 340.15 330.54
  Q 350.11 340.96 362.41 348.08
  Z"
/>
<path fill="#18315a" d="
  M 49.71 332.51
  C 51.45 333.39 54.02 335.17 55.50 332.78
  Q 55.66 332.52 56.22 332.59
  Q 58.72 333.62 60.43 335.37
  Q 60.15 335.70 60.05 336.10
  Q 59.93 336.54 59.48 336.61
  C 56.10 337.17 52.30 334.79 49.71 332.51
  Z"
/>
<circle fill="#274cbe" cx="248.61" cy="347.69" r="10.31"/>
<path fill="#1c31b4" d="
  M 39.54 343.61
  C 41.71 349.71 44.75 355.09 50.12 358.64
  Q 52.26 360.05 59.54 362.12
  A 0.46 0.46 0.0 0 1 59.87 362.65
  L 59.81 363.01
  Q 59.75 363.30 59.47 363.24
  Q 43.23 359.92 38.88 343.80
  Q 38.84 343.63 39.01 343.57
  L 39.28 343.48
  Q 39.47 343.42 39.54 343.61
  Z"
/>
<path fill="#019cf8" d="
  M 73.49 363.25
  L 62.08 362.03
  Q 60.83 360.16 60.57 356.26
  Q 60.51 355.22 61.52 355.42
  Q 68.95 356.88 76.52 356.55
  A 0.39 0.38 2.5 0 1 76.92 356.98
  Q 76.24 361.76 73.49 363.25
  Z"
/>
<path fill="#ffa683" d="
  M 73.49 363.25
  L 73.97 370.54
  L 74.10 375.78
  Q 73.31 384.47 68.12 391.65
  A 0.95 0.94 47.9 0 1 66.54 391.57
  C 65.31 389.50 66.17 383.99 66.60 381.62
  Q 66.89 380.02 66.85 379.79
  Q 66.27 376.69 64.59 379.36
  Q 60.79 385.42 61.53 393.01
  Q 61.93 397.12 61.83 398.71
  Q 61.58 401.76 60.09 403.39
  A 1.04 1.04 0.0 0 1 58.28 402.72
  C 58.22 400.66 58.41 398.80 57.70 396.81
  C 56.19 392.53 54.77 387.38 55.76 382.84
  Q 56.26 380.56 56.64 378.49
  Q 59.30 371.45 62.18 364.89
  Q 62.59 363.96 62.08 362.03
  L 73.49 363.25
  Z"
/>
<path fill="#1c31b4" d="
  M 74.10 375.78
  L 73.97 370.54
  C 79.52 373.81 81.04 380.49 82.00 386.40
  C 83.24 394.00 87.74 400.89 91.93 406.92
  A 0.26 0.26 0.0 0 1 91.82 407.31
  L 91.43 407.49
  Q 91.21 407.58 91.05 407.40
  Q 82.75 398.06 80.38 386.08
  C 79.46 381.43 78.71 379.02 76.75 375.31
  A 1.80 1.80 0.0 0 0 74.29 374.58
  Q 74.15 374.65 74.10 375.78
  Z"
/>
<path fill="#bbe2f3" d="
  M 182.06 383.44
  C 183.85 384.04 185.11 384.73 187.06 384.74
  Q 196.40 384.80 205.77 384.67
  Q 205.31 387.67 204.50 390.28
  Q 204.30 390.94 203.99 390.65
  Q 192.38 389.11 181.59 384.54
  Q 180.93 384.51 182.06 383.44
  Z"
/>
<path fill="#000b2a" d="
  M 259.34 385.73
  Q 260.16 392.71 259.24 399.67
  Q 258.74 400.08 258.00 400.09
  Q 247.84 400.30 238.20 399.89
  L 238.27 385.27
  L 238.66 384.84
  Q 238.99 384.48 239.48 384.48
  L 258.54 384.50
  Q 259.17 384.50 259.26 385.13
  L 259.34 385.73
  Z"
/>
<path fill="#000b2a" d="
  M 119.08 389.14
  L 128.69 389.74
  Q 129.26 389.78 129.24 390.35
  L 129.06 396.21
  Q 110.43 393.92 92.50 388.80
  Q 92.08 387.38 92.49 385.85
  Q 92.63 385.34 93.16 385.41
  L 119.08 389.14
  Z"
/>
<path fill="#000b2a" d="
  M 174.93 385.27
  L 174.96 396.79
  L 138.43 397.48
  L 138.07 391.29
  Q 137.99 389.92 139.34 389.72
  L 141.69 389.37
  Q 158.69 388.83 174.93 385.27
  Z"
/>
<path fill="#274cbe" d="
  M 272.55 386.13
  L 273.94 386.80
  A 2.09 2.09 0.0 0 1 275.12 388.65
  L 275.16 390.76
  A 2.09 2.09 0.0 0 1 272.83 392.87
  L 270.91 392.65
  A 2.09 2.09 0.0 0 1 269.10 390.19
  L 269.58 387.62
  A 2.09 2.09 0.0 0 1 272.55 386.13
  Z"
/>
<path fill="#000b2a" d="
  M 326.14 387.40
  Q 344.13 391.87 362.32 392.43
  L 361.90 400.23
  L 358.37 399.45
  Q 357.62 399.28 357.38 400.01
  Q 355.93 404.31 357.85 408.20
  Q 356.44 408.64 353.93 408.52
  L 354.83 399.62
  A 0.61 0.59 -82.8 0 0 354.34 398.97
  L 325.93 393.88
  L 326.14 387.40
  Z"
/>
<path fill="#000b2a" d="
  M 407.45 387.53
  L 408.19 401.50
  Q 393.85 402.33 379.54 401.44
  Q 378.98 401.41 378.75 401.91
  C 377.79 403.95 379.12 406.33 379.31 408.50
  L 376.06 408.28
  L 376.14 402.61
  A 1.33 1.33 0.0 0 0 374.77 401.26
  L 371.94 401.34
  L 371.12 392.37
  Q 389.30 391.79 407.45 387.53
  Z"
/>
<path fill="#18315a" d="
  M 92.50 388.80
  Q 110.43 393.92 129.06 396.21
  L 129.51 408.36
  L 93.83 408.60
  A 0.77 0.76 86.7 0 1 93.06 407.91
  Q 92.08 398.68 92.50 388.80
  Z"
/>
<ellipse fill="#274cbe" cx="0.00" cy="0.00" transform="translate(214.29,392.64) rotate(23.8)" rx="3.41" ry="3.06"/>
<path fill="#18315a" d="
  M 325.93 393.88
  L 354.34 398.97
  A 0.61 0.59 -82.8 0 1 354.83 399.62
  L 353.93 408.52
  L 324.96 408.65
  L 325.93 393.88
  Z"
/>
<ellipse fill="#274cbe" cx="0.00" cy="0.00" transform="translate(288.89,397.90) rotate(-28.4)" rx="3.38" ry="3.20"/>
<path fill="#18315a" d="
  M 174.96 396.79
  L 174.85 408.62
  L 138.26 408.29
  L 138.43 397.48
  L 174.96 396.79
  Z"
/>
<path fill="#18315a" d="
  M 361.90 400.23
  L 361.35 408.64
  Q 360.05 408.08 357.85 408.20
  Q 355.93 404.31 357.38 400.01
  Q 357.62 399.28 358.37 399.45
  L 361.90 400.23
  Z"
/>
<path fill="#18315a" d="
  M 238.20 399.89
  Q 247.84 400.30 258.00 400.09
  Q 258.74 400.08 259.24 399.67
  L 272.65 400.71
  Q 275.39 400.92 275.64 403.66
  L 275.85 405.97
  Q 276.08 408.52 273.52 408.51
  L 223.73 408.48
  Q 219.68 408.48 221.21 404.73
  L 221.42 404.21
  A 6.37 6.37 0.0 0 1 227.10 400.25
  L 238.20 399.89
  Z"
/>
<path fill="#18315a" d="
  M 371.94 401.34
  L 374.77 401.26
  A 1.33 1.33 0.0 0 1 376.14 402.61
  L 376.06 408.28
  L 372.08 408.62
  L 371.94 401.34
  Z"
/>
<path fill="#18315a" d="
  M 408.19 401.50
  L 408.70 408.56
  L 379.31 408.50
  C 379.12 406.33 377.79 403.95 378.75 401.91
  Q 378.98 401.41 379.54 401.44
  Q 393.85 402.33 408.19 401.50
  Z"
/>
<path fill="#1c31b4" d="
  M 44.81 416.56
  L 456.01 416.61
  C 455.98 423.02 451.83 424.71 445.94 424.72
  Q 356.78 424.86 331.25 424.81
  C 306.81 424.77 284.75 425.09 262.00 425.02
  Q 158.81 424.72 55.63 424.75
  Q 50.66 424.75 48.58 423.59
  Q 44.89 421.53 44.81 416.56
  Z"
/>
</svg>
